<svg xmlns="http://www.w3.org/2000/svg" viewBox="0 0 37 37" width="1000" height="1000">
    
    <defs></defs>
    <g >
      <rect width="100%" height="100%" fill="white" />
      
      
        <mask id="mask-dots">
            <rect width="100%" height="100%" fill="black" />
            <path d="M 12 4 h 1 v 1 h -1 Z M 14 4 h 1 v 1 h -1 Z M 15 4 h 1 v 1 h -1 Z M 16 4 h 1 v 1 h -1 Z M 17 4 h 1 v 1 h -1 Z M 18 4 h 1 v 1 h -1 Z M 20 4 h 1 v 1 h -1 Z M 21 4 h 1 v 1 h -1 Z M 22 4 h 1 v 1 h -1 Z M 15 5 h 1 v 1 h -1 Z M 18 5 h 1 v 1 h -1 Z M 19 5 h 1 v 1 h -1 Z M 13 6 h 1 v 1 h -1 Z M 14 6 h 1 v 1 h -1 Z M 15 6 h 1 v 1 h -1 Z M 16 6 h 1 v 1 h -1 Z M 17 6 h 1 v 1 h -1 Z M 23 6 h 1 v 1 h -1 Z M 12 7 h 1 v 1 h -1 Z M 13 7 h 1 v 1 h -1 Z M 14 7 h 1 v 1 h -1 Z M 18 7 h 1 v 1 h -1 Z M 19 7 h 1 v 1 h -1 Z M 22 7 h 1 v 1 h -1 Z M 13 8 h 1 v 1 h -1 Z M 14 8 h 1 v 1 h -1 Z M 15 8 h 1 v 1 h -1 Z M 17 8 h 1 v 1 h -1 Z M 18 8 h 1 v 1 h -1 Z M 20 8 h 1 v 1 h -1 Z M 22 8 h 1 v 1 h -1 Z M 23 8 h 1 v 1 h -1 Z M 15 9 h 1 v 1 h -1 Z M 16 9 h 1 v 1 h -1 Z M 18 9 h 1 v 1 h -1 Z M 21 9 h 1 v 1 h -1 Z M 23 9 h 1 v 1 h -1 Z M 24 9 h 1 v 1 h -1 Z M 12 10 h 1 v 1 h -1 Z M 14 10 h 1 v 1 h -1 Z M 16 10 h 1 v 1 h -1 Z M 18 10 h 1 v 1 h -1 Z M 20 10 h 1 v 1 h -1 Z M 22 10 h 1 v 1 h -1 Z M 24 10 h 1 v 1 h -1 Z M 13 11 h 1 v 1 h -1 Z M 14 11 h 1 v 1 h -1 Z M 15 11 h 1 v 1 h -1 Z M 16 11 h 1 v 1 h -1 Z M 19 11 h 1 v 1 h -1 Z M 21 11 h 1 v 1 h -1 Z M 22 11 h 1 v 1 h -1 Z M 23 11 h 1 v 1 h -1 Z M 6 12 h 1 v 1 h -1 Z M 8 12 h 1 v 1 h -1 Z M 9 12 h 1 v 1 h -1 Z M 10 12 h 1 v 1 h -1 Z M 12 12 h 1 v 1 h -1 Z M 13 12 h 1 v 1 h -1 Z M 14 12 h 1 v 1 h -1 Z M 17 12 h 1 v 1 h -1 Z M 18 12 h 1 v 1 h -1 Z M 20 12 h 1 v 1 h -1 Z M 22 12 h 1 v 1 h -1 Z M 23 12 h 1 v 1 h -1 Z M 25 12 h 1 v 1 h -1 Z M 29 12 h 1 v 1 h -1 Z M 32 12 h 1 v 1 h -1 Z M 9 13 h 1 v 1 h -1 Z M 11 13 h 1 v 1 h -1 Z M 13 13 h 1 v 1 h -1 Z M 17 13 h 1 v 1 h -1 Z M 19 13 h 1 v 1 h -1 Z M 22 13 h 1 v 1 h -1 Z M 23 13 h 1 v 1 h -1 Z M 27 13 h 1 v 1 h -1 Z M 30 13 h 1 v 1 h -1 Z M 32 13 h 1 v 1 h -1 Z M 5 14 h 1 v 1 h -1 Z M 6 14 h 1 v 1 h -1 Z M 7 14 h 1 v 1 h -1 Z M 8 14 h 1 v 1 h -1 Z M 10 14 h 1 v 1 h -1 Z M 12 14 h 1 v 1 h -1 Z M 13 14 h 1 v 1 h -1 Z M 14 14 h 1 v 1 h -1 Z M 15 14 h 1 v 1 h -1 Z M 18 14 h 1 v 1 h -1 Z M 19 14 h 1 v 1 h -1 Z M 20 14 h 1 v 1 h -1 Z M 22 14 h 1 v 1 h -1 Z M 27 14 h 1 v 1 h -1 Z M 28 14 h 1 v 1 h -1 Z M 29 14 h 1 v 1 h -1 Z M 31 14 h 1 v 1 h -1 Z M 32 14 h 1 v 1 h -1 Z M 4 15 h 1 v 1 h -1 Z M 5 15 h 1 v 1 h -1 Z M 6 15 h 1 v 1 h -1 Z M 9 15 h 1 v 1 h -1 Z M 11 15 h 1 v 1 h -1 Z M 13 15 h 1 v 1 h -1 Z M 14 15 h 1 v 1 h -1 Z M 15 15 h 1 v 1 h -1 Z M 16 15 h 1 v 1 h -1 Z M 17 15 h 1 v 1 h -1 Z M 19 15 h 1 v 1 h -1 Z M 20 15 h 1 v 1 h -1 Z M 21 15 h 1 v 1 h -1 Z M 22 15 h 1 v 1 h -1 Z M 23 15 h 1 v 1 h -1 Z M 25 15 h 1 v 1 h -1 Z M 26 15 h 1 v 1 h -1 Z M 27 15 h 1 v 1 h -1 Z M 31 15 h 1 v 1 h -1 Z M 4 16 h 1 v 1 h -1 Z M 6 16 h 1 v 1 h -1 Z M 10 16 h 1 v 1 h -1 Z M 14 16 h 1 v 1 h -1 Z M 17 16 h 1 v 1 h -1 Z M 19 16 h 1 v 1 h -1 Z M 24 16 h 1 v 1 h -1 Z M 26 16 h 1 v 1 h -1 Z M 27 16 h 1 v 1 h -1 Z M 29 16 h 1 v 1 h -1 Z M 5 17 h 1 v 1 h -1 Z M 6 17 h 1 v 1 h -1 Z M 8 17 h 1 v 1 h -1 Z M 9 17 h 1 v 1 h -1 Z M 11 17 h 1 v 1 h -1 Z M 13 17 h 1 v 1 h -1 Z M 15 17 h 1 v 1 h -1 Z M 17 17 h 1 v 1 h -1 Z M 18 17 h 1 v 1 h -1 Z M 21 17 h 1 v 1 h -1 Z M 22 17 h 1 v 1 h -1 Z M 24 17 h 1 v 1 h -1 Z M 25 17 h 1 v 1 h -1 Z M 26 17 h 1 v 1 h -1 Z M 27 17 h 1 v 1 h -1 Z M 31 17 h 1 v 1 h -1 Z M 32 17 h 1 v 1 h -1 Z M 5 18 h 1 v 1 h -1 Z M 10 18 h 1 v 1 h -1 Z M 14 18 h 1 v 1 h -1 Z M 16 18 h 1 v 1 h -1 Z M 18 18 h 1 v 1 h -1 Z M 19 18 h 1 v 1 h -1 Z M 20 18 h 1 v 1 h -1 Z M 22 18 h 1 v 1 h -1 Z M 25 18 h 1 v 1 h -1 Z M 27 18 h 1 v 1 h -1 Z M 30 18 h 1 v 1 h -1 Z M 31 18 h 1 v 1 h -1 Z M 32 18 h 1 v 1 h -1 Z M 5 19 h 1 v 1 h -1 Z M 11 19 h 1 v 1 h -1 Z M 12 19 h 1 v 1 h -1 Z M 14 19 h 1 v 1 h -1 Z M 16 19 h 1 v 1 h -1 Z M 22 19 h 1 v 1 h -1 Z M 24 19 h 1 v 1 h -1 Z M 25 19 h 1 v 1 h -1 Z M 26 19 h 1 v 1 h -1 Z M 27 19 h 1 v 1 h -1 Z M 31 19 h 1 v 1 h -1 Z M 32 19 h 1 v 1 h -1 Z M 5 20 h 1 v 1 h -1 Z M 6 20 h 1 v 1 h -1 Z M 10 20 h 1 v 1 h -1 Z M 11 20 h 1 v 1 h -1 Z M 12 20 h 1 v 1 h -1 Z M 13 20 h 1 v 1 h -1 Z M 14 20 h 1 v 1 h -1 Z M 18 20 h 1 v 1 h -1 Z M 19 20 h 1 v 1 h -1 Z M 20 20 h 1 v 1 h -1 Z M 24 20 h 1 v 1 h -1 Z M 25 20 h 1 v 1 h -1 Z M 28 20 h 1 v 1 h -1 Z M 29 20 h 1 v 1 h -1 Z M 31 20 h 1 v 1 h -1 Z M 5 21 h 1 v 1 h -1 Z M 7 21 h 1 v 1 h -1 Z M 9 21 h 1 v 1 h -1 Z M 12 21 h 1 v 1 h -1 Z M 13 21 h 1 v 1 h -1 Z M 15 21 h 1 v 1 h -1 Z M 17 21 h 1 v 1 h -1 Z M 20 21 h 1 v 1 h -1 Z M 21 21 h 1 v 1 h -1 Z M 22 21 h 1 v 1 h -1 Z M 23 21 h 1 v 1 h -1 Z M 24 21 h 1 v 1 h -1 Z M 25 21 h 1 v 1 h -1 Z M 28 21 h 1 v 1 h -1 Z M 29 21 h 1 v 1 h -1 Z M 31 21 h 1 v 1 h -1 Z M 32 21 h 1 v 1 h -1 Z M 4 22 h 1 v 1 h -1 Z M 7 22 h 1 v 1 h -1 Z M 9 22 h 1 v 1 h -1 Z M 10 22 h 1 v 1 h -1 Z M 11 22 h 1 v 1 h -1 Z M 12 22 h 1 v 1 h -1 Z M 15 22 h 1 v 1 h -1 Z M 18 22 h 1 v 1 h -1 Z M 23 22 h 1 v 1 h -1 Z M 24 22 h 1 v 1 h -1 Z M 25 22 h 1 v 1 h -1 Z M 31 22 h 1 v 1 h -1 Z M 32 22 h 1 v 1 h -1 Z M 5 23 h 1 v 1 h -1 Z M 6 23 h 1 v 1 h -1 Z M 7 23 h 1 v 1 h -1 Z M 8 23 h 1 v 1 h -1 Z M 11 23 h 1 v 1 h -1 Z M 12 23 h 1 v 1 h -1 Z M 13 23 h 1 v 1 h -1 Z M 14 23 h 1 v 1 h -1 Z M 17 23 h 1 v 1 h -1 Z M 20 23 h 1 v 1 h -1 Z M 21 23 h 1 v 1 h -1 Z M 22 23 h 1 v 1 h -1 Z M 24 23 h 1 v 1 h -1 Z M 26 23 h 1 v 1 h -1 Z M 28 23 h 1 v 1 h -1 Z M 31 23 h 1 v 1 h -1 Z M 4 24 h 1 v 1 h -1 Z M 6 24 h 1 v 1 h -1 Z M 10 24 h 1 v 1 h -1 Z M 11 24 h 1 v 1 h -1 Z M 13 24 h 1 v 1 h -1 Z M 15 24 h 1 v 1 h -1 Z M 16 24 h 1 v 1 h -1 Z M 20 24 h 1 v 1 h -1 Z M 23 24 h 1 v 1 h -1 Z M 24 24 h 1 v 1 h -1 Z M 25 24 h 1 v 1 h -1 Z M 26 24 h 1 v 1 h -1 Z M 27 24 h 1 v 1 h -1 Z M 28 24 h 1 v 1 h -1 Z M 32 24 h 1 v 1 h -1 Z M 12 25 h 1 v 1 h -1 Z M 13 25 h 1 v 1 h -1 Z M 14 25 h 1 v 1 h -1 Z M 15 25 h 1 v 1 h -1 Z M 18 25 h 1 v 1 h -1 Z M 21 25 h 1 v 1 h -1 Z M 22 25 h 1 v 1 h -1 Z M 24 25 h 1 v 1 h -1 Z M 28 25 h 1 v 1 h -1 Z M 31 25 h 1 v 1 h -1 Z M 32 25 h 1 v 1 h -1 Z M 14 26 h 1 v 1 h -1 Z M 15 26 h 1 v 1 h -1 Z M 18 26 h 1 v 1 h -1 Z M 23 26 h 1 v 1 h -1 Z M 24 26 h 1 v 1 h -1 Z M 26 26 h 1 v 1 h -1 Z M 28 26 h 1 v 1 h -1 Z M 30 26 h 1 v 1 h -1 Z M 32 26 h 1 v 1 h -1 Z M 12 27 h 1 v 1 h -1 Z M 14 27 h 1 v 1 h -1 Z M 17 27 h 1 v 1 h -1 Z M 20 27 h 1 v 1 h -1 Z M 22 27 h 1 v 1 h -1 Z M 24 27 h 1 v 1 h -1 Z M 28 27 h 1 v 1 h -1 Z M 12 28 h 1 v 1 h -1 Z M 13 28 h 1 v 1 h -1 Z M 14 28 h 1 v 1 h -1 Z M 17 28 h 1 v 1 h -1 Z M 18 28 h 1 v 1 h -1 Z M 19 28 h 1 v 1 h -1 Z M 21 28 h 1 v 1 h -1 Z M 22 28 h 1 v 1 h -1 Z M 24 28 h 1 v 1 h -1 Z M 25 28 h 1 v 1 h -1 Z M 26 28 h 1 v 1 h -1 Z M 27 28 h 1 v 1 h -1 Z M 28 28 h 1 v 1 h -1 Z M 29 28 h 1 v 1 h -1 Z M 15 29 h 1 v 1 h -1 Z M 16 29 h 1 v 1 h -1 Z M 19 29 h 1 v 1 h -1 Z M 20 29 h 1 v 1 h -1 Z M 22 29 h 1 v 1 h -1 Z M 24 29 h 1 v 1 h -1 Z M 25 29 h 1 v 1 h -1 Z M 28 29 h 1 v 1 h -1 Z M 12 30 h 1 v 1 h -1 Z M 13 30 h 1 v 1 h -1 Z M 18 30 h 1 v 1 h -1 Z M 19 30 h 1 v 1 h -1 Z M 23 30 h 1 v 1 h -1 Z M 27 30 h 1 v 1 h -1 Z M 28 30 h 1 v 1 h -1 Z M 29 30 h 1 v 1 h -1 Z M 32 30 h 1 v 1 h -1 Z M 17 31 h 1 v 1 h -1 Z M 18 31 h 1 v 1 h -1 Z M 19 31 h 1 v 1 h -1 Z M 22 31 h 1 v 1 h -1 Z M 25 31 h 1 v 1 h -1 Z M 27 31 h 1 v 1 h -1 Z M 29 31 h 1 v 1 h -1 Z M 31 31 h 1 v 1 h -1 Z M 13 32 h 1 v 1 h -1 Z M 15 32 h 1 v 1 h -1 Z M 18 32 h 1 v 1 h -1 Z M 24 32 h 1 v 1 h -1 Z M 25 32 h 1 v 1 h -1 Z M 26 32 h 1 v 1 h -1 Z M 28 32 h 1 v 1 h -1 Z M 30 32 h 1 v 1 h -1 Z M 31 32 h 1 v 1 h -1 Z M 32 32 h 1 v 1 h -1 Z " fill="white" />
            <g fill="white"></g>
        </mask>
        <rect width="100%" height="100%" fill="#000000" mask="url(#mask-dots)" />
      
      <defs>
        <mask id="mask-cornerSquare">
            <rect width="100%" height="100%" fill="black" />
            <path d="M 4 4 h 1 v 1 h -1 Z M 5 4 h 1 v 1 h -1 Z M 6 4 h 1 v 1 h -1 Z M 7 4 h 1 v 1 h -1 Z M 8 4 h 1 v 1 h -1 Z M 9 4 h 1 v 1 h -1 Z M 10 4 h 1 v 1 h -1 Z M 26 4 h 1 v 1 h -1 Z M 27 4 h 1 v 1 h -1 Z M 28 4 h 1 v 1 h -1 Z M 29 4 h 1 v 1 h -1 Z M 30 4 h 1 v 1 h -1 Z M 31 4 h 1 v 1 h -1 Z M 32 4 h 1 v 1 h -1 Z M 4 5 h 1 v 1 h -1 Z M 10 5 h 1 v 1 h -1 Z M 26 5 h 1 v 1 h -1 Z M 32 5 h 1 v 1 h -1 Z M 4 6 h 1 v 1 h -1 Z M 10 6 h 1 v 1 h -1 Z M 26 6 h 1 v 1 h -1 Z M 32 6 h 1 v 1 h -1 Z M 4 7 h 1 v 1 h -1 Z M 10 7 h 1 v 1 h -1 Z M 26 7 h 1 v 1 h -1 Z M 32 7 h 1 v 1 h -1 Z M 4 8 h 1 v 1 h -1 Z M 10 8 h 1 v 1 h -1 Z M 26 8 h 1 v 1 h -1 Z M 32 8 h 1 v 1 h -1 Z M 4 9 h 1 v 1 h -1 Z M 10 9 h 1 v 1 h -1 Z M 26 9 h 1 v 1 h -1 Z M 32 9 h 1 v 1 h -1 Z M 4 10 h 1 v 1 h -1 Z M 5 10 h 1 v 1 h -1 Z M 6 10 h 1 v 1 h -1 Z M 7 10 h 1 v 1 h -1 Z M 8 10 h 1 v 1 h -1 Z M 9 10 h 1 v 1 h -1 Z M 10 10 h 1 v 1 h -1 Z M 26 10 h 1 v 1 h -1 Z M 27 10 h 1 v 1 h -1 Z M 28 10 h 1 v 1 h -1 Z M 29 10 h 1 v 1 h -1 Z M 30 10 h 1 v 1 h -1 Z M 31 10 h 1 v 1 h -1 Z M 32 10 h 1 v 1 h -1 Z M 4 26 h 1 v 1 h -1 Z M 5 26 h 1 v 1 h -1 Z M 6 26 h 1 v 1 h -1 Z M 7 26 h 1 v 1 h -1 Z M 8 26 h 1 v 1 h -1 Z M 9 26 h 1 v 1 h -1 Z M 10 26 h 1 v 1 h -1 Z M 4 27 h 1 v 1 h -1 Z M 10 27 h 1 v 1 h -1 Z M 4 28 h 1 v 1 h -1 Z M 10 28 h 1 v 1 h -1 Z M 4 29 h 1 v 1 h -1 Z M 10 29 h 1 v 1 h -1 Z M 4 30 h 1 v 1 h -1 Z M 10 30 h 1 v 1 h -1 Z M 4 31 h 1 v 1 h -1 Z M 10 31 h 1 v 1 h -1 Z M 4 32 h 1 v 1 h -1 Z M 5 32 h 1 v 1 h -1 Z M 6 32 h 1 v 1 h -1 Z M 7 32 h 1 v 1 h -1 Z M 8 32 h 1 v 1 h -1 Z M 9 32 h 1 v 1 h -1 Z M 10 32 h 1 v 1 h -1 Z " fill="white" />
            <g fill="white"></g>
        </mask>
      </defs><rect x="4" y="4" width="7" height="7" fill="#000000" mask="url(#mask-cornerSquare)" /><rect x="26" y="4" width="7" height="7" fill="#000000" mask="url(#mask-cornerSquare)" /><rect x="4" y="26" width="7" height="7" fill="#000000" mask="url(#mask-cornerSquare)" />
      <defs>
        <mask id="mask-cornerDot">
            <rect width="100%" height="100%" fill="black" />
            <path d="M 6 6 h 1 v 1 h -1 Z M 7 6 h 1 v 1 h -1 Z M 8 6 h 1 v 1 h -1 Z M 28 6 h 1 v 1 h -1 Z M 29 6 h 1 v 1 h -1 Z M 30 6 h 1 v 1 h -1 Z M 6 7 h 1 v 1 h -1 Z M 7 7 h 1 v 1 h -1 Z M 8 7 h 1 v 1 h -1 Z M 28 7 h 1 v 1 h -1 Z M 29 7 h 1 v 1 h -1 Z M 30 7 h 1 v 1 h -1 Z M 6 8 h 1 v 1 h -1 Z M 7 8 h 1 v 1 h -1 Z M 8 8 h 1 v 1 h -1 Z M 28 8 h 1 v 1 h -1 Z M 29 8 h 1 v 1 h -1 Z M 30 8 h 1 v 1 h -1 Z M 6 28 h 1 v 1 h -1 Z M 7 28 h 1 v 1 h -1 Z M 8 28 h 1 v 1 h -1 Z M 6 29 h 1 v 1 h -1 Z M 7 29 h 1 v 1 h -1 Z M 8 29 h 1 v 1 h -1 Z M 6 30 h 1 v 1 h -1 Z M 7 30 h 1 v 1 h -1 Z M 8 30 h 1 v 1 h -1 Z " fill="white" />
            <g fill="white"></g>
        </mask>
      </defs><rect x="4" y="4" width="7" height="7" fill="#000000" mask="url(#mask-cornerDot)" /><rect x="26" y="4" width="7" height="7" fill="#000000" mask="url(#mask-cornerDot)" /><rect x="4" y="26" width="7" height="7" fill="#000000" mask="url(#mask-cornerDot)" />
      
    </g>
  </svg>