<svg xmlns="http://www.w3.org/2000/svg" viewBox="0 0 35 35" width="362" height="362">
    
    <defs>
        <symbol id="icon-sq" viewBox="0 0 24 24">
          <path d="M12 0C18.6274 0 24 5.37258 24 12C24 18.6274 18.6274 24 12 24C5.37258 24 0 18.6274 0 12C0 5.37258 5.37258 0 12 0ZM12 3.5C7.30558 3.5 3.5 7.30558 3.5 12C3.5 16.6944 7.30558 20.5 12 20.5C16.6944 20.5 20.5 16.6944 20.5 12C20.5 7.30558 16.6944 3.5 12 3.5Z" />
        </symbol>
      
        <symbol id="icon-dot" viewBox="0 0 24 24">
          <path d="M0 4C0 1.79086 1.79086 0 4 0H20C22.2091 0 24 1.79086 24 4V20C24 22.2091 22.2091 24 20 24H4C1.79086 24 0 22.2091 0 20V4Z" />
        </symbol>
      </defs>
    <g >
      <rect width="35" height="35" fill="rgba(212,190,255,1)" />
      
      
        <mask id="mask-dots">
            <rect width="35" height="35" fill="black" />
            <g fill="white"><path d="M 10 1 h 1 v 1 h -1 ZM 11 1 h 1 v 1 h -1 ZM 15 1 h 1 v 1 h -1 ZM 16 1 h 1 v 1 h -1 ZM 18 1 h 1 v 1 h -1 ZM 19 1 h 1 v 1 h -1 ZM 20 1 h 1 v 1 h -1 ZM 21 1 h 1 v 1 h -1 ZM 22 1 h 1 v 1 h -1 ZM 24 1 h 1 v 1 h -1 ZM 25 1 h 1 v 1 h -1 ZM 11 2 h 1 v 1 h -1 ZM 13 2 h 1 v 1 h -1 ZM 15 2 h 1 v 1 h -1 ZM 16 2 h 1 v 1 h -1 ZM 17 2 h 1 v 1 h -1 ZM 18 2 h 1 v 1 h -1 ZM 21 2 h 1 v 1 h -1 ZM 23 2 h 1 v 1 h -1 ZM 24 2 h 1 v 1 h -1 ZM 10 3 h 1 v 1 h -1 ZM 11 3 h 1 v 1 h -1 ZM 12 3 h 1 v 1 h -1 ZM 15 3 h 1 v 1 h -1 ZM 16 3 h 1 v 1 h -1 ZM 20 3 h 1 v 1 h -1 ZM 24 3 h 1 v 1 h -1 ZM 11 4 h 1 v 1 h -1 ZM 15 4 h 1 v 1 h -1 ZM 17 4 h 1 v 1 h -1 ZM 19 4 h 1 v 1 h -1 ZM 21 4 h 1 v 1 h -1 ZM 24 4 h 1 v 1 h -1 ZM 9 5 h 1 v 1 h -1 ZM 10 5 h 1 v 1 h -1 ZM 11 5 h 1 v 1 h -1 ZM 12 5 h 1 v 1 h -1 ZM 14 5 h 1 v 1 h -1 ZM 17 5 h 1 v 1 h -1 ZM 19 5 h 1 v 1 h -1 ZM 22 5 h 1 v 1 h -1 ZM 25 5 h 1 v 1 h -1 ZM 12 6 h 1 v 1 h -1 ZM 13 6 h 1 v 1 h -1 ZM 14 6 h 1 v 1 h -1 ZM 19 6 h 1 v 1 h -1 ZM 20 6 h 1 v 1 h -1 ZM 21 6 h 1 v 1 h -1 ZM 22 6 h 1 v 1 h -1 ZM 25 6 h 1 v 1 h -1 ZM 9 7 h 1 v 1 h -1 ZM 11 7 h 1 v 1 h -1 ZM 13 7 h 1 v 1 h -1 ZM 15 7 h 1 v 1 h -1 ZM 17 7 h 1 v 1 h -1 ZM 19 7 h 1 v 1 h -1 ZM 21 7 h 1 v 1 h -1 ZM 23 7 h 1 v 1 h -1 ZM 25 7 h 1 v 1 h -1 ZM 9 8 h 1 v 1 h -1 ZM 10 8 h 1 v 1 h -1 ZM 14 8 h 1 v 1 h -1 ZM 16 8 h 1 v 1 h -1 ZM 18 8 h 1 v 1 h -1 ZM 20 8 h 1 v 1 h -1 ZM 24 8 h 1 v 1 h -1 ZM 3 9 h 1 v 1 h -1 ZM 4 9 h 1 v 1 h -1 ZM 7 9 h 1 v 1 h -1 ZM 8 9 h 1 v 1 h -1 ZM 9 9 h 1 v 1 h -1 ZM 13 9 h 1 v 1 h -1 ZM 20 9 h 1 v 1 h -1 ZM 21 9 h 1 v 1 h -1 ZM 22 9 h 1 v 1 h -1 ZM 26 9 h 1 v 1 h -1 ZM 27 9 h 1 v 1 h -1 ZM 29 9 h 1 v 1 h -1 ZM 1 10 h 1 v 1 h -1 ZM 2 10 h 1 v 1 h -1 ZM 3 10 h 1 v 1 h -1 ZM 4 10 h 1 v 1 h -1 ZM 8 10 h 1 v 1 h -1 ZM 9 10 h 1 v 1 h -1 ZM 10 10 h 1 v 1 h -1 ZM 11 10 h 1 v 1 h -1 ZM 14 10 h 1 v 1 h -1 ZM 15 10 h 1 v 1 h -1 ZM 16 10 h 1 v 1 h -1 ZM 17 10 h 1 v 1 h -1 ZM 19 10 h 1 v 1 h -1 ZM 20 10 h 1 v 1 h -1 ZM 21 10 h 1 v 1 h -1 ZM 22 10 h 1 v 1 h -1 ZM 23 10 h 1 v 1 h -1 ZM 24 10 h 1 v 1 h -1 ZM 25 10 h 1 v 1 h -1 ZM 26 10 h 1 v 1 h -1 ZM 27 10 h 1 v 1 h -1 ZM 30 10 h 1 v 1 h -1 ZM 31 10 h 1 v 1 h -1 ZM 32 10 h 1 v 1 h -1 ZM 33 10 h 1 v 1 h -1 ZM 1 11 h 1 v 1 h -1 ZM 3 11 h 1 v 1 h -1 ZM 6 11 h 1 v 1 h -1 ZM 7 11 h 1 v 1 h -1 ZM 8 11 h 1 v 1 h -1 ZM 9 11 h 1 v 1 h -1 ZM 12 11 h 1 v 1 h -1 ZM 13 11 h 1 v 1 h -1 ZM 15 11 h 1 v 1 h -1 ZM 19 11 h 1 v 1 h -1 ZM 20 11 h 1 v 1 h -1 ZM 24 11 h 1 v 1 h -1 ZM 27 11 h 1 v 1 h -1 ZM 32 11 h 1 v 1 h -1 ZM 33 11 h 1 v 1 h -1 ZM 1 12 h 1 v 1 h -1 ZM 3 12 h 1 v 1 h -1 ZM 4 12 h 1 v 1 h -1 ZM 9 12 h 1 v 1 h -1 ZM 10 12 h 1 v 1 h -1 ZM 11 12 h 1 v 1 h -1 ZM 18 12 h 1 v 1 h -1 ZM 19 12 h 1 v 1 h -1 ZM 20 12 h 1 v 1 h -1 ZM 23 12 h 1 v 1 h -1 ZM 24 12 h 1 v 1 h -1 ZM 27 12 h 1 v 1 h -1 ZM 28 12 h 1 v 1 h -1 ZM 29 12 h 1 v 1 h -1 ZM 30 12 h 1 v 1 h -1 ZM 1 13 h 1 v 1 h -1 ZM 3 13 h 1 v 1 h -1 ZM 6 13 h 1 v 1 h -1 ZM 7 13 h 1 v 1 h -1 ZM 9 13 h 1 v 1 h -1 ZM 11 13 h 1 v 1 h -1 ZM 12 13 h 1 v 1 h -1 ZM 14 13 h 1 v 1 h -1 ZM 15 13 h 1 v 1 h -1 ZM 16 13 h 1 v 1 h -1 ZM 17 13 h 1 v 1 h -1 ZM 18 13 h 1 v 1 h -1 ZM 20 13 h 1 v 1 h -1 ZM 21 13 h 1 v 1 h -1 ZM 23 13 h 1 v 1 h -1 ZM 25 13 h 1 v 1 h -1 ZM 26 13 h 1 v 1 h -1 ZM 28 13 h 1 v 1 h -1 ZM 29 13 h 1 v 1 h -1 ZM 1 14 h 1 v 1 h -1 ZM 2 14 h 1 v 1 h -1 ZM 3 14 h 1 v 1 h -1 ZM 6 14 h 1 v 1 h -1 ZM 8 14 h 1 v 1 h -1 ZM 9 14 h 1 v 1 h -1 ZM 10 14 h 1 v 1 h -1 ZM 12 14 h 1 v 1 h -1 ZM 15 14 h 1 v 1 h -1 ZM 16 14 h 1 v 1 h -1 ZM 17 14 h 1 v 1 h -1 ZM 18 14 h 1 v 1 h -1 ZM 20 14 h 1 v 1 h -1 ZM 22 14 h 1 v 1 h -1 ZM 23 14 h 1 v 1 h -1 ZM 25 14 h 1 v 1 h -1 ZM 28 14 h 1 v 1 h -1 ZM 30 14 h 1 v 1 h -1 ZM 2 15 h 1 v 1 h -1 ZM 4 15 h 1 v 1 h -1 ZM 5 15 h 1 v 1 h -1 ZM 7 15 h 1 v 1 h -1 ZM 9 15 h 1 v 1 h -1 ZM 10 15 h 1 v 1 h -1 ZM 12 15 h 1 v 1 h -1 ZM 14 15 h 1 v 1 h -1 ZM 19 15 h 1 v 1 h -1 ZM 20 15 h 1 v 1 h -1 ZM 22 15 h 1 v 1 h -1 ZM 28 15 h 1 v 1 h -1 ZM 29 15 h 1 v 1 h -1 ZM 31 15 h 1 v 1 h -1 ZM 1 16 h 1 v 1 h -1 ZM 5 16 h 1 v 1 h -1 ZM 11 16 h 1 v 1 h -1 ZM 13 16 h 1 v 1 h -1 ZM 14 16 h 1 v 1 h -1 ZM 16 16 h 1 v 1 h -1 ZM 17 16 h 1 v 1 h -1 ZM 19 16 h 1 v 1 h -1 ZM 21 16 h 1 v 1 h -1 ZM 22 16 h 1 v 1 h -1 ZM 23 16 h 1 v 1 h -1 ZM 30 16 h 1 v 1 h -1 ZM 31 16 h 1 v 1 h -1 ZM 33 16 h 1 v 1 h -1 ZM 2 17 h 1 v 1 h -1 ZM 4 17 h 1 v 1 h -1 ZM 7 17 h 1 v 1 h -1 ZM 8 17 h 1 v 1 h -1 ZM 11 17 h 1 v 1 h -1 ZM 14 17 h 1 v 1 h -1 ZM 15 17 h 1 v 1 h -1 ZM 17 17 h 1 v 1 h -1 ZM 20 17 h 1 v 1 h -1 ZM 21 17 h 1 v 1 h -1 ZM 22 17 h 1 v 1 h -1 ZM 24 17 h 1 v 1 h -1 ZM 25 17 h 1 v 1 h -1 ZM 26 17 h 1 v 1 h -1 ZM 27 17 h 1 v 1 h -1 ZM 29 17 h 1 v 1 h -1 ZM 30 17 h 1 v 1 h -1 ZM 31 17 h 1 v 1 h -1 ZM 33 17 h 1 v 1 h -1 ZM 2 18 h 1 v 1 h -1 ZM 5 18 h 1 v 1 h -1 ZM 9 18 h 1 v 1 h -1 ZM 11 18 h 1 v 1 h -1 ZM 12 18 h 1 v 1 h -1 ZM 13 18 h 1 v 1 h -1 ZM 16 18 h 1 v 1 h -1 ZM 17 18 h 1 v 1 h -1 ZM 22 18 h 1 v 1 h -1 ZM 23 18 h 1 v 1 h -1 ZM 24 18 h 1 v 1 h -1 ZM 26 18 h 1 v 1 h -1 ZM 27 18 h 1 v 1 h -1 ZM 28 18 h 1 v 1 h -1 ZM 29 18 h 1 v 1 h -1 ZM 31 18 h 1 v 1 h -1 ZM 33 18 h 1 v 1 h -1 ZM 1 19 h 1 v 1 h -1 ZM 2 19 h 1 v 1 h -1 ZM 3 19 h 1 v 1 h -1 ZM 7 19 h 1 v 1 h -1 ZM 9 19 h 1 v 1 h -1 ZM 10 19 h 1 v 1 h -1 ZM 12 19 h 1 v 1 h -1 ZM 15 19 h 1 v 1 h -1 ZM 17 19 h 1 v 1 h -1 ZM 18 19 h 1 v 1 h -1 ZM 19 19 h 1 v 1 h -1 ZM 20 19 h 1 v 1 h -1 ZM 21 19 h 1 v 1 h -1 ZM 22 19 h 1 v 1 h -1 ZM 23 19 h 1 v 1 h -1 ZM 26 19 h 1 v 1 h -1 ZM 27 19 h 1 v 1 h -1 ZM 28 19 h 1 v 1 h -1 ZM 31 19 h 1 v 1 h -1 ZM 32 19 h 1 v 1 h -1 ZM 2 20 h 1 v 1 h -1 ZM 4 20 h 1 v 1 h -1 ZM 5 20 h 1 v 1 h -1 ZM 6 20 h 1 v 1 h -1 ZM 10 20 h 1 v 1 h -1 ZM 11 20 h 1 v 1 h -1 ZM 12 20 h 1 v 1 h -1 ZM 14 20 h 1 v 1 h -1 ZM 18 20 h 1 v 1 h -1 ZM 19 20 h 1 v 1 h -1 ZM 21 20 h 1 v 1 h -1 ZM 23 20 h 1 v 1 h -1 ZM 27 20 h 1 v 1 h -1 ZM 28 20 h 1 v 1 h -1 ZM 29 20 h 1 v 1 h -1 ZM 32 20 h 1 v 1 h -1 ZM 33 20 h 1 v 1 h -1 ZM 1 21 h 1 v 1 h -1 ZM 4 21 h 1 v 1 h -1 ZM 7 21 h 1 v 1 h -1 ZM 8 21 h 1 v 1 h -1 ZM 9 21 h 1 v 1 h -1 ZM 13 21 h 1 v 1 h -1 ZM 16 21 h 1 v 1 h -1 ZM 21 21 h 1 v 1 h -1 ZM 22 21 h 1 v 1 h -1 ZM 26 21 h 1 v 1 h -1 ZM 30 21 h 1 v 1 h -1 ZM 31 21 h 1 v 1 h -1 ZM 1 22 h 1 v 1 h -1 ZM 2 22 h 1 v 1 h -1 ZM 3 22 h 1 v 1 h -1 ZM 4 22 h 1 v 1 h -1 ZM 5 22 h 1 v 1 h -1 ZM 6 22 h 1 v 1 h -1 ZM 8 22 h 1 v 1 h -1 ZM 9 22 h 1 v 1 h -1 ZM 11 22 h 1 v 1 h -1 ZM 12 22 h 1 v 1 h -1 ZM 13 22 h 1 v 1 h -1 ZM 14 22 h 1 v 1 h -1 ZM 15 22 h 1 v 1 h -1 ZM 17 22 h 1 v 1 h -1 ZM 19 22 h 1 v 1 h -1 ZM 20 22 h 1 v 1 h -1 ZM 21 22 h 1 v 1 h -1 ZM 22 22 h 1 v 1 h -1 ZM 24 22 h 1 v 1 h -1 ZM 27 22 h 1 v 1 h -1 ZM 31 22 h 1 v 1 h -1 ZM 32 22 h 1 v 1 h -1 ZM 33 22 h 1 v 1 h -1 ZM 4 23 h 1 v 1 h -1 ZM 6 23 h 1 v 1 h -1 ZM 7 23 h 1 v 1 h -1 ZM 8 23 h 1 v 1 h -1 ZM 13 23 h 1 v 1 h -1 ZM 17 23 h 1 v 1 h -1 ZM 20 23 h 1 v 1 h -1 ZM 22 23 h 1 v 1 h -1 ZM 23 23 h 1 v 1 h -1 ZM 24 23 h 1 v 1 h -1 ZM 27 23 h 1 v 1 h -1 ZM 28 23 h 1 v 1 h -1 ZM 30 23 h 1 v 1 h -1 ZM 31 23 h 1 v 1 h -1 ZM 32 23 h 1 v 1 h -1 ZM 33 23 h 1 v 1 h -1 ZM 2 24 h 1 v 1 h -1 ZM 3 24 h 1 v 1 h -1 ZM 5 24 h 1 v 1 h -1 ZM 6 24 h 1 v 1 h -1 ZM 8 24 h 1 v 1 h -1 ZM 11 24 h 1 v 1 h -1 ZM 14 24 h 1 v 1 h -1 ZM 16 24 h 1 v 1 h -1 ZM 21 24 h 1 v 1 h -1 ZM 23 24 h 1 v 1 h -1 ZM 24 24 h 1 v 1 h -1 ZM 25 24 h 1 v 1 h -1 ZM 26 24 h 1 v 1 h -1 ZM 28 24 h 1 v 1 h -1 ZM 32 24 h 1 v 1 h -1 ZM 33 24 h 1 v 1 h -1 ZM 1 25 h 1 v 1 h -1 ZM 7 25 h 1 v 1 h -1 ZM 9 25 h 1 v 1 h -1 ZM 10 25 h 1 v 1 h -1 ZM 11 25 h 1 v 1 h -1 ZM 13 25 h 1 v 1 h -1 ZM 16 25 h 1 v 1 h -1 ZM 17 25 h 1 v 1 h -1 ZM 18 25 h 1 v 1 h -1 ZM 19 25 h 1 v 1 h -1 ZM 20 25 h 1 v 1 h -1 ZM 21 25 h 1 v 1 h -1 ZM 23 25 h 1 v 1 h -1 ZM 24 25 h 1 v 1 h -1 ZM 25 25 h 1 v 1 h -1 ZM 26 25 h 1 v 1 h -1 ZM 27 25 h 1 v 1 h -1 ZM 28 25 h 1 v 1 h -1 ZM 29 25 h 1 v 1 h -1 ZM 9 26 h 1 v 1 h -1 ZM 11 26 h 1 v 1 h -1 ZM 13 26 h 1 v 1 h -1 ZM 16 26 h 1 v 1 h -1 ZM 18 26 h 1 v 1 h -1 ZM 20 26 h 1 v 1 h -1 ZM 25 26 h 1 v 1 h -1 ZM 29 26 h 1 v 1 h -1 ZM 30 26 h 1 v 1 h -1 ZM 31 26 h 1 v 1 h -1 ZM 32 26 h 1 v 1 h -1 ZM 9 27 h 1 v 1 h -1 ZM 12 27 h 1 v 1 h -1 ZM 13 27 h 1 v 1 h -1 ZM 14 27 h 1 v 1 h -1 ZM 17 27 h 1 v 1 h -1 ZM 18 27 h 1 v 1 h -1 ZM 19 27 h 1 v 1 h -1 ZM 20 27 h 1 v 1 h -1 ZM 21 27 h 1 v 1 h -1 ZM 23 27 h 1 v 1 h -1 ZM 24 27 h 1 v 1 h -1 ZM 25 27 h 1 v 1 h -1 ZM 27 27 h 1 v 1 h -1 ZM 29 27 h 1 v 1 h -1 ZM 30 27 h 1 v 1 h -1 ZM 10 28 h 1 v 1 h -1 ZM 11 28 h 1 v 1 h -1 ZM 20 28 h 1 v 1 h -1 ZM 21 28 h 1 v 1 h -1 ZM 22 28 h 1 v 1 h -1 ZM 24 28 h 1 v 1 h -1 ZM 25 28 h 1 v 1 h -1 ZM 29 28 h 1 v 1 h -1 ZM 30 28 h 1 v 1 h -1 ZM 31 28 h 1 v 1 h -1 ZM 32 28 h 1 v 1 h -1 ZM 33 28 h 1 v 1 h -1 ZM 14 29 h 1 v 1 h -1 ZM 16 29 h 1 v 1 h -1 ZM 17 29 h 1 v 1 h -1 ZM 18 29 h 1 v 1 h -1 ZM 20 29 h 1 v 1 h -1 ZM 21 29 h 1 v 1 h -1 ZM 24 29 h 1 v 1 h -1 ZM 25 29 h 1 v 1 h -1 ZM 26 29 h 1 v 1 h -1 ZM 27 29 h 1 v 1 h -1 ZM 28 29 h 1 v 1 h -1 ZM 29 29 h 1 v 1 h -1 ZM 30 29 h 1 v 1 h -1 ZM 31 29 h 1 v 1 h -1 ZM 32 29 h 1 v 1 h -1 ZM 9 30 h 1 v 1 h -1 ZM 10 30 h 1 v 1 h -1 ZM 11 30 h 1 v 1 h -1 ZM 14 30 h 1 v 1 h -1 ZM 15 30 h 1 v 1 h -1 ZM 21 30 h 1 v 1 h -1 ZM 23 30 h 1 v 1 h -1 ZM 24 30 h 1 v 1 h -1 ZM 28 30 h 1 v 1 h -1 ZM 32 30 h 1 v 1 h -1 ZM 33 30 h 1 v 1 h -1 ZM 9 31 h 1 v 1 h -1 ZM 11 31 h 1 v 1 h -1 ZM 12 31 h 1 v 1 h -1 ZM 13 31 h 1 v 1 h -1 ZM 16 31 h 1 v 1 h -1 ZM 17 31 h 1 v 1 h -1 ZM 18 31 h 1 v 1 h -1 ZM 23 31 h 1 v 1 h -1 ZM 24 31 h 1 v 1 h -1 ZM 25 31 h 1 v 1 h -1 ZM 26 31 h 1 v 1 h -1 ZM 27 31 h 1 v 1 h -1 ZM 30 31 h 1 v 1 h -1 ZM 10 32 h 1 v 1 h -1 ZM 12 32 h 1 v 1 h -1 ZM 14 32 h 1 v 1 h -1 ZM 16 32 h 1 v 1 h -1 ZM 18 32 h 1 v 1 h -1 ZM 21 32 h 1 v 1 h -1 ZM 24 32 h 1 v 1 h -1 ZM 25 32 h 1 v 1 h -1 ZM 26 32 h 1 v 1 h -1 ZM 33 32 h 1 v 1 h -1 ZM 10 33 h 1 v 1 h -1 ZM 11 33 h 1 v 1 h -1 ZM 13 33 h 1 v 1 h -1 ZM 15 33 h 1 v 1 h -1 ZM 17 33 h 1 v 1 h -1 ZM 20 33 h 1 v 1 h -1 ZM 22 33 h 1 v 1 h -1 ZM 24 33 h 1 v 1 h -1 ZM 27 33 h 1 v 1 h -1 ZM 28 33 h 1 v 1 h -1 ZM 29 33 h 1 v 1 h -1 ZM 31 33 h 1 v 1 h -1 Z" /></g>
        </mask>
        <rect width="35" height="35" fill="rgba(0,0,0,1)" mask="url(#mask-dots)" />
      
      <defs>
        <mask id="mask-cornerSquare">
            <rect width="35" height="35" fill="black" />
            <g fill="white" shape-rendering="crispEdges"><use href="#icon-sq" x="1" y="1" width="1" height="1" /><use href="#icon-sq" x="2" y="1" width="1" height="1" /><use href="#icon-sq" x="3" y="1" width="1" height="1" /><use href="#icon-sq" x="4" y="1" width="1" height="1" /><use href="#icon-sq" x="5" y="1" width="1" height="1" /><use href="#icon-sq" x="6" y="1" width="1" height="1" /><use href="#icon-sq" x="7" y="1" width="1" height="1" /><use href="#icon-sq" x="27" y="1" width="1" height="1" /><use href="#icon-sq" x="28" y="1" width="1" height="1" /><use href="#icon-sq" x="29" y="1" width="1" height="1" /><use href="#icon-sq" x="30" y="1" width="1" height="1" /><use href="#icon-sq" x="31" y="1" width="1" height="1" /><use href="#icon-sq" x="32" y="1" width="1" height="1" /><use href="#icon-sq" x="33" y="1" width="1" height="1" /><use href="#icon-sq" x="1" y="2" width="1" height="1" /><use href="#icon-sq" x="7" y="2" width="1" height="1" /><use href="#icon-sq" x="27" y="2" width="1" height="1" /><use href="#icon-sq" x="33" y="2" width="1" height="1" /><use href="#icon-sq" x="1" y="3" width="1" height="1" /><use href="#icon-sq" x="7" y="3" width="1" height="1" /><use href="#icon-sq" x="27" y="3" width="1" height="1" /><use href="#icon-sq" x="33" y="3" width="1" height="1" /><use href="#icon-sq" x="1" y="4" width="1" height="1" /><use href="#icon-sq" x="7" y="4" width="1" height="1" /><use href="#icon-sq" x="27" y="4" width="1" height="1" /><use href="#icon-sq" x="33" y="4" width="1" height="1" /><use href="#icon-sq" x="1" y="5" width="1" height="1" /><use href="#icon-sq" x="7" y="5" width="1" height="1" /><use href="#icon-sq" x="27" y="5" width="1" height="1" /><use href="#icon-sq" x="33" y="5" width="1" height="1" /><use href="#icon-sq" x="1" y="6" width="1" height="1" /><use href="#icon-sq" x="7" y="6" width="1" height="1" /><use href="#icon-sq" x="27" y="6" width="1" height="1" /><use href="#icon-sq" x="33" y="6" width="1" height="1" /><use href="#icon-sq" x="1" y="7" width="1" height="1" /><use href="#icon-sq" x="2" y="7" width="1" height="1" /><use href="#icon-sq" x="3" y="7" width="1" height="1" /><use href="#icon-sq" x="4" y="7" width="1" height="1" /><use href="#icon-sq" x="5" y="7" width="1" height="1" /><use href="#icon-sq" x="6" y="7" width="1" height="1" /><use href="#icon-sq" x="7" y="7" width="1" height="1" /><use href="#icon-sq" x="27" y="7" width="1" height="1" /><use href="#icon-sq" x="28" y="7" width="1" height="1" /><use href="#icon-sq" x="29" y="7" width="1" height="1" /><use href="#icon-sq" x="30" y="7" width="1" height="1" /><use href="#icon-sq" x="31" y="7" width="1" height="1" /><use href="#icon-sq" x="32" y="7" width="1" height="1" /><use href="#icon-sq" x="33" y="7" width="1" height="1" /><use href="#icon-sq" x="1" y="27" width="1" height="1" /><use href="#icon-sq" x="2" y="27" width="1" height="1" /><use href="#icon-sq" x="3" y="27" width="1" height="1" /><use href="#icon-sq" x="4" y="27" width="1" height="1" /><use href="#icon-sq" x="5" y="27" width="1" height="1" /><use href="#icon-sq" x="6" y="27" width="1" height="1" /><use href="#icon-sq" x="7" y="27" width="1" height="1" /><use href="#icon-sq" x="1" y="28" width="1" height="1" /><use href="#icon-sq" x="7" y="28" width="1" height="1" /><use href="#icon-sq" x="1" y="29" width="1" height="1" /><use href="#icon-sq" x="7" y="29" width="1" height="1" /><use href="#icon-sq" x="1" y="30" width="1" height="1" /><use href="#icon-sq" x="7" y="30" width="1" height="1" /><use href="#icon-sq" x="1" y="31" width="1" height="1" /><use href="#icon-sq" x="7" y="31" width="1" height="1" /><use href="#icon-sq" x="1" y="32" width="1" height="1" /><use href="#icon-sq" x="7" y="32" width="1" height="1" /><use href="#icon-sq" x="1" y="33" width="1" height="1" /><use href="#icon-sq" x="2" y="33" width="1" height="1" /><use href="#icon-sq" x="3" y="33" width="1" height="1" /><use href="#icon-sq" x="4" y="33" width="1" height="1" /><use href="#icon-sq" x="5" y="33" width="1" height="1" /><use href="#icon-sq" x="6" y="33" width="1" height="1" /><use href="#icon-sq" x="7" y="33" width="1" height="1" /></g>
        </mask>
      </defs><rect x="1" y="1" width="7" height="7" fill="#000000" mask="url(#mask-cornerSquare)" /><rect x="27" y="1" width="7" height="7" fill="#000000" mask="url(#mask-cornerSquare)" /><rect x="1" y="27" width="7" height="7" fill="#000000" mask="url(#mask-cornerSquare)" />
      <defs>
        <mask id="mask-cornerDot">
            <rect width="35" height="35" fill="black" />
            <g fill="white" shape-rendering="crispEdges"><use href="#icon-dot" x="3" y="3" width="1" height="1" /><use href="#icon-dot" x="4" y="3" width="1" height="1" /><use href="#icon-dot" x="5" y="3" width="1" height="1" /><use href="#icon-dot" x="29" y="3" width="1" height="1" /><use href="#icon-dot" x="30" y="3" width="1" height="1" /><use href="#icon-dot" x="31" y="3" width="1" height="1" /><use href="#icon-dot" x="3" y="4" width="1" height="1" /><use href="#icon-dot" x="4" y="4" width="1" height="1" /><use href="#icon-dot" x="5" y="4" width="1" height="1" /><use href="#icon-dot" x="29" y="4" width="1" height="1" /><use href="#icon-dot" x="30" y="4" width="1" height="1" /><use href="#icon-dot" x="31" y="4" width="1" height="1" /><use href="#icon-dot" x="3" y="5" width="1" height="1" /><use href="#icon-dot" x="4" y="5" width="1" height="1" /><use href="#icon-dot" x="5" y="5" width="1" height="1" /><use href="#icon-dot" x="29" y="5" width="1" height="1" /><use href="#icon-dot" x="30" y="5" width="1" height="1" /><use href="#icon-dot" x="31" y="5" width="1" height="1" /><use href="#icon-dot" x="3" y="29" width="1" height="1" /><use href="#icon-dot" x="4" y="29" width="1" height="1" /><use href="#icon-dot" x="5" y="29" width="1" height="1" /><use href="#icon-dot" x="3" y="30" width="1" height="1" /><use href="#icon-dot" x="4" y="30" width="1" height="1" /><use href="#icon-dot" x="5" y="30" width="1" height="1" /><use href="#icon-dot" x="3" y="31" width="1" height="1" /><use href="#icon-dot" x="4" y="31" width="1" height="1" /><use href="#icon-dot" x="5" y="31" width="1" height="1" /></g>
        </mask>
      </defs><rect x="1" y="1" width="7" height="7" fill="#000000" mask="url(#mask-cornerDot)" /><rect x="27" y="1" width="7" height="7" fill="#000000" mask="url(#mask-cornerDot)" /><rect x="1" y="27" width="7" height="7" fill="#000000" mask="url(#mask-cornerDot)" />
      
    </g>
  </svg>