<svg xmlns="http://www.w3.org/2000/svg" viewBox="0 0 35 35" width="362" height="362">
    
    <defs>
        <symbol id="icon-dots" viewBox="0 0 22 19">
          <path d="M10.75 2.96581L10.21 3.48581C10.28 3.55839 10.3638 3.61613 10.4566 3.65557C10.5494 3.695 10.6492 3.71533 10.75 3.71533C10.8508 3.71533 10.9506 3.695 11.0434 3.65557C11.1362 3.61613 11.22 3.55839 11.29 3.48581L10.75 2.96581ZM8.176 15.7878C6.66 14.5928 5.003 13.4258 3.688 11.9458C2.4 10.4938 1.5 8.80081 1.5 6.60281H0C0 9.26881 1.11 11.3028 2.567 12.9418C3.997 14.5518 5.821 15.8418 7.247 16.9658L8.176 15.7878ZM1.5 6.60281C1.5 4.45281 2.715 2.64881 4.374 1.88981C5.986 1.15281 8.152 1.34781 10.21 3.48581L11.29 2.44681C8.85 -0.0901935 6.014 -0.509194 3.75 0.525806C1.536 1.53881 0 3.89081 0 6.60281H1.5ZM7.247 16.9658C7.76 17.3698 8.31 17.7998 8.867 18.1258C9.424 18.4518 10.06 18.7158 10.75 18.7158V17.2158C10.44 17.2158 10.076 17.0958 9.624 16.8308C9.171 16.5668 8.702 16.2028 8.176 15.7878L7.247 16.9658ZM14.253 16.9658C15.679 15.8408 17.503 14.5528 18.933 12.9418C20.39 11.3018 21.5 9.26881 21.5 6.60281H20C20 8.80081 19.1 10.4938 17.812 11.9458C16.497 13.4258 14.84 14.5928 13.324 15.7878L14.253 16.9658ZM21.5 6.60281C21.5 3.89081 19.965 1.53881 17.75 0.525806C15.486 -0.509194 12.652 -0.0901935 10.21 2.44581L11.29 3.48581C13.348 1.34881 15.514 1.15281 17.126 1.88981C18.785 2.64881 20 4.45181 20 6.60281H21.5ZM13.324 15.7878C12.798 16.2028 12.329 16.5668 11.876 16.8308C11.423 17.0948 11.06 17.2158 10.75 17.2158V18.7158C11.44 18.7158 12.076 18.4508 12.633 18.1258C13.191 17.7998 13.74 17.3698 14.253 16.9658L13.324 15.7878Z M10.4566 3.65557C10.3638 3.61613 10.28 3.55839 10.21 3.48581C8.152 1.34781 5.986 1.15281 4.374 1.88981C2.715 2.64881 1.5 4.45281 1.5 6.60281C1.5 8.80081 2.4 10.4938 3.688 11.9458C5.003 13.4258 6.66 14.5928 8.176 15.7878C8.702 16.2028 9.171 16.5668 9.624 16.8308C10.076 17.0958 10.44 17.2158 10.75 17.2158C11.06 17.2158 11.423 17.0948 11.876 16.8308C12.329 16.5668 12.798 16.2028 13.324 15.7878C14.84 14.5928 16.497 13.4258 17.812 11.9458C19.1 10.4938 20 8.80081 20 6.60281C20 4.45181 18.785 2.64881 17.126 1.88981C15.514 1.15281 13.348 1.34881 11.29 3.48581C11.22 3.55839 11.1362 3.61613 11.0434 3.65557C10.9506 3.695 10.8508 3.71533 10.75 3.71533C10.6492 3.71533 10.5494 3.695 10.4566 3.65557Z" />
        </symbol>
      
        <symbol id="icon-sq" viewBox="0 0 24 24">
          <path d="M16 0C20.4183 0 24 3.58172 24 8V16C24 20.4183 20.4183 24 16 24H8C3.58172 24 1.28855e-07 20.4183 0 16V8C0 3.58172 3.58172 1.28851e-07 8 0H16ZM9 3.5C5.96243 3.5 3.5 5.96243 3.5 9V15C3.5 18.0376 5.96243 20.5 9 20.5H15C18.0376 20.5 20.5 18.0376 20.5 15V9C20.5 5.96243 18.0376 3.5 15 3.5H9Z" />
        </symbol>
      
        <symbol id="icon-dot" viewBox="0 0 22 19">
          <path d="M10.75 2.96581L10.21 3.48581C10.28 3.55839 10.3638 3.61613 10.4566 3.65557C10.5494 3.695 10.6492 3.71533 10.75 3.71533C10.8508 3.71533 10.9506 3.695 11.0434 3.65557C11.1362 3.61613 11.22 3.55839 11.29 3.48581L10.75 2.96581ZM8.176 15.7878C6.66 14.5928 5.003 13.4258 3.688 11.9458C2.4 10.4938 1.5 8.80081 1.5 6.60281H0C0 9.26881 1.11 11.3028 2.567 12.9418C3.997 14.5518 5.821 15.8418 7.247 16.9658L8.176 15.7878ZM1.5 6.60281C1.5 4.45281 2.715 2.64881 4.374 1.88981C5.986 1.15281 8.152 1.34781 10.21 3.48581L11.29 2.44681C8.85 -0.0901935 6.014 -0.509194 3.75 0.525806C1.536 1.53881 0 3.89081 0 6.60281H1.5ZM7.247 16.9658C7.76 17.3698 8.31 17.7998 8.867 18.1258C9.424 18.4518 10.06 18.7158 10.75 18.7158V17.2158C10.44 17.2158 10.076 17.0958 9.624 16.8308C9.171 16.5668 8.702 16.2028 8.176 15.7878L7.247 16.9658ZM14.253 16.9658C15.679 15.8408 17.503 14.5528 18.933 12.9418C20.39 11.3018 21.5 9.26881 21.5 6.60281H20C20 8.80081 19.1 10.4938 17.812 11.9458C16.497 13.4258 14.84 14.5928 13.324 15.7878L14.253 16.9658ZM21.5 6.60281C21.5 3.89081 19.965 1.53881 17.75 0.525806C15.486 -0.509194 12.652 -0.0901935 10.21 2.44581L11.29 3.48581C13.348 1.34881 15.514 1.15281 17.126 1.88981C18.785 2.64881 20 4.45181 20 6.60281H21.5ZM13.324 15.7878C12.798 16.2028 12.329 16.5668 11.876 16.8308C11.423 17.0948 11.06 17.2158 10.75 17.2158V18.7158C11.44 18.7158 12.076 18.4508 12.633 18.1258C13.191 17.7998 13.74 17.3698 14.253 16.9658L13.324 15.7878Z M10.4566 3.65557C10.3638 3.61613 10.28 3.55839 10.21 3.48581C8.152 1.34781 5.986 1.15281 4.374 1.88981C2.715 2.64881 1.5 4.45281 1.5 6.60281C1.5 8.80081 2.4 10.4938 3.688 11.9458C5.003 13.4258 6.66 14.5928 8.176 15.7878C8.702 16.2028 9.171 16.5668 9.624 16.8308C10.076 17.0958 10.44 17.2158 10.75 17.2158C11.06 17.2158 11.423 17.0948 11.876 16.8308C12.329 16.5668 12.798 16.2028 13.324 15.7878C14.84 14.5928 16.497 13.4258 17.812 11.9458C19.1 10.4938 20 8.80081 20 6.60281C20 4.45181 18.785 2.64881 17.126 1.88981C15.514 1.15281 13.348 1.34881 11.29 3.48581C11.22 3.55839 11.1362 3.61613 11.0434 3.65557C10.9506 3.695 10.8508 3.71533 10.75 3.71533C10.6492 3.71533 10.5494 3.695 10.4566 3.65557Z" />
        </symbol>
      </defs>
    <g >
      <rect width="35" height="35" fill="#ffffff" />
      
      
        <mask id="mask-dots">
            <rect width="35" height="35" fill="black" />
            <g fill="white"><use href="#icon-dots" x="10" y="1" width="1" height="1" /><use href="#icon-dots" x="11" y="1" width="1" height="1" /><use href="#icon-dots" x="15" y="1" width="1" height="1" /><use href="#icon-dots" x="16" y="1" width="1" height="1" /><use href="#icon-dots" x="18" y="1" width="1" height="1" /><use href="#icon-dots" x="19" y="1" width="1" height="1" /><use href="#icon-dots" x="20" y="1" width="1" height="1" /><use href="#icon-dots" x="21" y="1" width="1" height="1" /><use href="#icon-dots" x="22" y="1" width="1" height="1" /><use href="#icon-dots" x="24" y="1" width="1" height="1" /><use href="#icon-dots" x="25" y="1" width="1" height="1" /><use href="#icon-dots" x="11" y="2" width="1" height="1" /><use href="#icon-dots" x="13" y="2" width="1" height="1" /><use href="#icon-dots" x="15" y="2" width="1" height="1" /><use href="#icon-dots" x="16" y="2" width="1" height="1" /><use href="#icon-dots" x="17" y="2" width="1" height="1" /><use href="#icon-dots" x="18" y="2" width="1" height="1" /><use href="#icon-dots" x="21" y="2" width="1" height="1" /><use href="#icon-dots" x="23" y="2" width="1" height="1" /><use href="#icon-dots" x="24" y="2" width="1" height="1" /><use href="#icon-dots" x="10" y="3" width="1" height="1" /><use href="#icon-dots" x="11" y="3" width="1" height="1" /><use href="#icon-dots" x="12" y="3" width="1" height="1" /><use href="#icon-dots" x="15" y="3" width="1" height="1" /><use href="#icon-dots" x="16" y="3" width="1" height="1" /><use href="#icon-dots" x="20" y="3" width="1" height="1" /><use href="#icon-dots" x="24" y="3" width="1" height="1" /><use href="#icon-dots" x="11" y="4" width="1" height="1" /><use href="#icon-dots" x="15" y="4" width="1" height="1" /><use href="#icon-dots" x="17" y="4" width="1" height="1" /><use href="#icon-dots" x="19" y="4" width="1" height="1" /><use href="#icon-dots" x="21" y="4" width="1" height="1" /><use href="#icon-dots" x="24" y="4" width="1" height="1" /><use href="#icon-dots" x="9" y="5" width="1" height="1" /><use href="#icon-dots" x="10" y="5" width="1" height="1" /><use href="#icon-dots" x="11" y="5" width="1" height="1" /><use href="#icon-dots" x="12" y="5" width="1" height="1" /><use href="#icon-dots" x="14" y="5" width="1" height="1" /><use href="#icon-dots" x="17" y="5" width="1" height="1" /><use href="#icon-dots" x="19" y="5" width="1" height="1" /><use href="#icon-dots" x="22" y="5" width="1" height="1" /><use href="#icon-dots" x="25" y="5" width="1" height="1" /><use href="#icon-dots" x="12" y="6" width="1" height="1" /><use href="#icon-dots" x="13" y="6" width="1" height="1" /><use href="#icon-dots" x="14" y="6" width="1" height="1" /><use href="#icon-dots" x="19" y="6" width="1" height="1" /><use href="#icon-dots" x="20" y="6" width="1" height="1" /><use href="#icon-dots" x="21" y="6" width="1" height="1" /><use href="#icon-dots" x="22" y="6" width="1" height="1" /><use href="#icon-dots" x="25" y="6" width="1" height="1" /><use href="#icon-dots" x="9" y="7" width="1" height="1" /><use href="#icon-dots" x="11" y="7" width="1" height="1" /><use href="#icon-dots" x="13" y="7" width="1" height="1" /><use href="#icon-dots" x="15" y="7" width="1" height="1" /><use href="#icon-dots" x="17" y="7" width="1" height="1" /><use href="#icon-dots" x="19" y="7" width="1" height="1" /><use href="#icon-dots" x="21" y="7" width="1" height="1" /><use href="#icon-dots" x="23" y="7" width="1" height="1" /><use href="#icon-dots" x="25" y="7" width="1" height="1" /><use href="#icon-dots" x="9" y="8" width="1" height="1" /><use href="#icon-dots" x="10" y="8" width="1" height="1" /><use href="#icon-dots" x="14" y="8" width="1" height="1" /><use href="#icon-dots" x="16" y="8" width="1" height="1" /><use href="#icon-dots" x="18" y="8" width="1" height="1" /><use href="#icon-dots" x="20" y="8" width="1" height="1" /><use href="#icon-dots" x="24" y="8" width="1" height="1" /><use href="#icon-dots" x="3" y="9" width="1" height="1" /><use href="#icon-dots" x="4" y="9" width="1" height="1" /><use href="#icon-dots" x="7" y="9" width="1" height="1" /><use href="#icon-dots" x="8" y="9" width="1" height="1" /><use href="#icon-dots" x="9" y="9" width="1" height="1" /><use href="#icon-dots" x="13" y="9" width="1" height="1" /><use href="#icon-dots" x="20" y="9" width="1" height="1" /><use href="#icon-dots" x="21" y="9" width="1" height="1" /><use href="#icon-dots" x="22" y="9" width="1" height="1" /><use href="#icon-dots" x="26" y="9" width="1" height="1" /><use href="#icon-dots" x="27" y="9" width="1" height="1" /><use href="#icon-dots" x="29" y="9" width="1" height="1" /><use href="#icon-dots" x="1" y="10" width="1" height="1" /><use href="#icon-dots" x="2" y="10" width="1" height="1" /><use href="#icon-dots" x="3" y="10" width="1" height="1" /><use href="#icon-dots" x="4" y="10" width="1" height="1" /><use href="#icon-dots" x="8" y="10" width="1" height="1" /><use href="#icon-dots" x="9" y="10" width="1" height="1" /><use href="#icon-dots" x="10" y="10" width="1" height="1" /><use href="#icon-dots" x="11" y="10" width="1" height="1" /><use href="#icon-dots" x="14" y="10" width="1" height="1" /><use href="#icon-dots" x="15" y="10" width="1" height="1" /><use href="#icon-dots" x="16" y="10" width="1" height="1" /><use href="#icon-dots" x="17" y="10" width="1" height="1" /><use href="#icon-dots" x="19" y="10" width="1" height="1" /><use href="#icon-dots" x="20" y="10" width="1" height="1" /><use href="#icon-dots" x="21" y="10" width="1" height="1" /><use href="#icon-dots" x="22" y="10" width="1" height="1" /><use href="#icon-dots" x="23" y="10" width="1" height="1" /><use href="#icon-dots" x="24" y="10" width="1" height="1" /><use href="#icon-dots" x="25" y="10" width="1" height="1" /><use href="#icon-dots" x="26" y="10" width="1" height="1" /><use href="#icon-dots" x="27" y="10" width="1" height="1" /><use href="#icon-dots" x="30" y="10" width="1" height="1" /><use href="#icon-dots" x="31" y="10" width="1" height="1" /><use href="#icon-dots" x="32" y="10" width="1" height="1" /><use href="#icon-dots" x="33" y="10" width="1" height="1" /><use href="#icon-dots" x="1" y="11" width="1" height="1" /><use href="#icon-dots" x="3" y="11" width="1" height="1" /><use href="#icon-dots" x="6" y="11" width="1" height="1" /><use href="#icon-dots" x="7" y="11" width="1" height="1" /><use href="#icon-dots" x="8" y="11" width="1" height="1" /><use href="#icon-dots" x="9" y="11" width="1" height="1" /><use href="#icon-dots" x="12" y="11" width="1" height="1" /><use href="#icon-dots" x="13" y="11" width="1" height="1" /><use href="#icon-dots" x="15" y="11" width="1" height="1" /><use href="#icon-dots" x="19" y="11" width="1" height="1" /><use href="#icon-dots" x="20" y="11" width="1" height="1" /><use href="#icon-dots" x="24" y="11" width="1" height="1" /><use href="#icon-dots" x="27" y="11" width="1" height="1" /><use href="#icon-dots" x="32" y="11" width="1" height="1" /><use href="#icon-dots" x="33" y="11" width="1" height="1" /><use href="#icon-dots" x="1" y="12" width="1" height="1" /><use href="#icon-dots" x="3" y="12" width="1" height="1" /><use href="#icon-dots" x="4" y="12" width="1" height="1" /><use href="#icon-dots" x="9" y="12" width="1" height="1" /><use href="#icon-dots" x="10" y="12" width="1" height="1" /><use href="#icon-dots" x="11" y="12" width="1" height="1" /><use href="#icon-dots" x="18" y="12" width="1" height="1" /><use href="#icon-dots" x="19" y="12" width="1" height="1" /><use href="#icon-dots" x="20" y="12" width="1" height="1" /><use href="#icon-dots" x="23" y="12" width="1" height="1" /><use href="#icon-dots" x="24" y="12" width="1" height="1" /><use href="#icon-dots" x="27" y="12" width="1" height="1" /><use href="#icon-dots" x="28" y="12" width="1" height="1" /><use href="#icon-dots" x="29" y="12" width="1" height="1" /><use href="#icon-dots" x="30" y="12" width="1" height="1" /><use href="#icon-dots" x="1" y="13" width="1" height="1" /><use href="#icon-dots" x="3" y="13" width="1" height="1" /><use href="#icon-dots" x="6" y="13" width="1" height="1" /><use href="#icon-dots" x="7" y="13" width="1" height="1" /><use href="#icon-dots" x="9" y="13" width="1" height="1" /><use href="#icon-dots" x="11" y="13" width="1" height="1" /><use href="#icon-dots" x="12" y="13" width="1" height="1" /><use href="#icon-dots" x="14" y="13" width="1" height="1" /><use href="#icon-dots" x="15" y="13" width="1" height="1" /><use href="#icon-dots" x="16" y="13" width="1" height="1" /><use href="#icon-dots" x="17" y="13" width="1" height="1" /><use href="#icon-dots" x="18" y="13" width="1" height="1" /><use href="#icon-dots" x="20" y="13" width="1" height="1" /><use href="#icon-dots" x="21" y="13" width="1" height="1" /><use href="#icon-dots" x="23" y="13" width="1" height="1" /><use href="#icon-dots" x="25" y="13" width="1" height="1" /><use href="#icon-dots" x="26" y="13" width="1" height="1" /><use href="#icon-dots" x="28" y="13" width="1" height="1" /><use href="#icon-dots" x="29" y="13" width="1" height="1" /><use href="#icon-dots" x="1" y="14" width="1" height="1" /><use href="#icon-dots" x="2" y="14" width="1" height="1" /><use href="#icon-dots" x="3" y="14" width="1" height="1" /><use href="#icon-dots" x="6" y="14" width="1" height="1" /><use href="#icon-dots" x="8" y="14" width="1" height="1" /><use href="#icon-dots" x="9" y="14" width="1" height="1" /><use href="#icon-dots" x="10" y="14" width="1" height="1" /><use href="#icon-dots" x="12" y="14" width="1" height="1" /><use href="#icon-dots" x="15" y="14" width="1" height="1" /><use href="#icon-dots" x="16" y="14" width="1" height="1" /><use href="#icon-dots" x="17" y="14" width="1" height="1" /><use href="#icon-dots" x="18" y="14" width="1" height="1" /><use href="#icon-dots" x="20" y="14" width="1" height="1" /><use href="#icon-dots" x="22" y="14" width="1" height="1" /><use href="#icon-dots" x="23" y="14" width="1" height="1" /><use href="#icon-dots" x="25" y="14" width="1" height="1" /><use href="#icon-dots" x="28" y="14" width="1" height="1" /><use href="#icon-dots" x="30" y="14" width="1" height="1" /><use href="#icon-dots" x="2" y="15" width="1" height="1" /><use href="#icon-dots" x="4" y="15" width="1" height="1" /><use href="#icon-dots" x="5" y="15" width="1" height="1" /><use href="#icon-dots" x="7" y="15" width="1" height="1" /><use href="#icon-dots" x="9" y="15" width="1" height="1" /><use href="#icon-dots" x="10" y="15" width="1" height="1" /><use href="#icon-dots" x="12" y="15" width="1" height="1" /><use href="#icon-dots" x="14" y="15" width="1" height="1" /><use href="#icon-dots" x="19" y="15" width="1" height="1" /><use href="#icon-dots" x="20" y="15" width="1" height="1" /><use href="#icon-dots" x="22" y="15" width="1" height="1" /><use href="#icon-dots" x="28" y="15" width="1" height="1" /><use href="#icon-dots" x="29" y="15" width="1" height="1" /><use href="#icon-dots" x="31" y="15" width="1" height="1" /><use href="#icon-dots" x="1" y="16" width="1" height="1" /><use href="#icon-dots" x="5" y="16" width="1" height="1" /><use href="#icon-dots" x="11" y="16" width="1" height="1" /><use href="#icon-dots" x="13" y="16" width="1" height="1" /><use href="#icon-dots" x="14" y="16" width="1" height="1" /><use href="#icon-dots" x="16" y="16" width="1" height="1" /><use href="#icon-dots" x="17" y="16" width="1" height="1" /><use href="#icon-dots" x="19" y="16" width="1" height="1" /><use href="#icon-dots" x="21" y="16" width="1" height="1" /><use href="#icon-dots" x="22" y="16" width="1" height="1" /><use href="#icon-dots" x="23" y="16" width="1" height="1" /><use href="#icon-dots" x="30" y="16" width="1" height="1" /><use href="#icon-dots" x="31" y="16" width="1" height="1" /><use href="#icon-dots" x="33" y="16" width="1" height="1" /><use href="#icon-dots" x="2" y="17" width="1" height="1" /><use href="#icon-dots" x="4" y="17" width="1" height="1" /><use href="#icon-dots" x="7" y="17" width="1" height="1" /><use href="#icon-dots" x="8" y="17" width="1" height="1" /><use href="#icon-dots" x="11" y="17" width="1" height="1" /><use href="#icon-dots" x="14" y="17" width="1" height="1" /><use href="#icon-dots" x="15" y="17" width="1" height="1" /><use href="#icon-dots" x="17" y="17" width="1" height="1" /><use href="#icon-dots" x="20" y="17" width="1" height="1" /><use href="#icon-dots" x="21" y="17" width="1" height="1" /><use href="#icon-dots" x="22" y="17" width="1" height="1" /><use href="#icon-dots" x="24" y="17" width="1" height="1" /><use href="#icon-dots" x="25" y="17" width="1" height="1" /><use href="#icon-dots" x="26" y="17" width="1" height="1" /><use href="#icon-dots" x="27" y="17" width="1" height="1" /><use href="#icon-dots" x="29" y="17" width="1" height="1" /><use href="#icon-dots" x="30" y="17" width="1" height="1" /><use href="#icon-dots" x="31" y="17" width="1" height="1" /><use href="#icon-dots" x="33" y="17" width="1" height="1" /><use href="#icon-dots" x="2" y="18" width="1" height="1" /><use href="#icon-dots" x="5" y="18" width="1" height="1" /><use href="#icon-dots" x="9" y="18" width="1" height="1" /><use href="#icon-dots" x="11" y="18" width="1" height="1" /><use href="#icon-dots" x="12" y="18" width="1" height="1" /><use href="#icon-dots" x="13" y="18" width="1" height="1" /><use href="#icon-dots" x="16" y="18" width="1" height="1" /><use href="#icon-dots" x="17" y="18" width="1" height="1" /><use href="#icon-dots" x="22" y="18" width="1" height="1" /><use href="#icon-dots" x="23" y="18" width="1" height="1" /><use href="#icon-dots" x="24" y="18" width="1" height="1" /><use href="#icon-dots" x="26" y="18" width="1" height="1" /><use href="#icon-dots" x="27" y="18" width="1" height="1" /><use href="#icon-dots" x="28" y="18" width="1" height="1" /><use href="#icon-dots" x="29" y="18" width="1" height="1" /><use href="#icon-dots" x="31" y="18" width="1" height="1" /><use href="#icon-dots" x="33" y="18" width="1" height="1" /><use href="#icon-dots" x="1" y="19" width="1" height="1" /><use href="#icon-dots" x="2" y="19" width="1" height="1" /><use href="#icon-dots" x="3" y="19" width="1" height="1" /><use href="#icon-dots" x="7" y="19" width="1" height="1" /><use href="#icon-dots" x="9" y="19" width="1" height="1" /><use href="#icon-dots" x="10" y="19" width="1" height="1" /><use href="#icon-dots" x="12" y="19" width="1" height="1" /><use href="#icon-dots" x="15" y="19" width="1" height="1" /><use href="#icon-dots" x="17" y="19" width="1" height="1" /><use href="#icon-dots" x="18" y="19" width="1" height="1" /><use href="#icon-dots" x="19" y="19" width="1" height="1" /><use href="#icon-dots" x="20" y="19" width="1" height="1" /><use href="#icon-dots" x="21" y="19" width="1" height="1" /><use href="#icon-dots" x="22" y="19" width="1" height="1" /><use href="#icon-dots" x="23" y="19" width="1" height="1" /><use href="#icon-dots" x="26" y="19" width="1" height="1" /><use href="#icon-dots" x="27" y="19" width="1" height="1" /><use href="#icon-dots" x="28" y="19" width="1" height="1" /><use href="#icon-dots" x="31" y="19" width="1" height="1" /><use href="#icon-dots" x="32" y="19" width="1" height="1" /><use href="#icon-dots" x="2" y="20" width="1" height="1" /><use href="#icon-dots" x="4" y="20" width="1" height="1" /><use href="#icon-dots" x="5" y="20" width="1" height="1" /><use href="#icon-dots" x="6" y="20" width="1" height="1" /><use href="#icon-dots" x="10" y="20" width="1" height="1" /><use href="#icon-dots" x="11" y="20" width="1" height="1" /><use href="#icon-dots" x="12" y="20" width="1" height="1" /><use href="#icon-dots" x="14" y="20" width="1" height="1" /><use href="#icon-dots" x="18" y="20" width="1" height="1" /><use href="#icon-dots" x="19" y="20" width="1" height="1" /><use href="#icon-dots" x="21" y="20" width="1" height="1" /><use href="#icon-dots" x="23" y="20" width="1" height="1" /><use href="#icon-dots" x="27" y="20" width="1" height="1" /><use href="#icon-dots" x="28" y="20" width="1" height="1" /><use href="#icon-dots" x="29" y="20" width="1" height="1" /><use href="#icon-dots" x="32" y="20" width="1" height="1" /><use href="#icon-dots" x="33" y="20" width="1" height="1" /><use href="#icon-dots" x="1" y="21" width="1" height="1" /><use href="#icon-dots" x="4" y="21" width="1" height="1" /><use href="#icon-dots" x="7" y="21" width="1" height="1" /><use href="#icon-dots" x="8" y="21" width="1" height="1" /><use href="#icon-dots" x="9" y="21" width="1" height="1" /><use href="#icon-dots" x="13" y="21" width="1" height="1" /><use href="#icon-dots" x="16" y="21" width="1" height="1" /><use href="#icon-dots" x="21" y="21" width="1" height="1" /><use href="#icon-dots" x="22" y="21" width="1" height="1" /><use href="#icon-dots" x="26" y="21" width="1" height="1" /><use href="#icon-dots" x="30" y="21" width="1" height="1" /><use href="#icon-dots" x="31" y="21" width="1" height="1" /><use href="#icon-dots" x="1" y="22" width="1" height="1" /><use href="#icon-dots" x="2" y="22" width="1" height="1" /><use href="#icon-dots" x="3" y="22" width="1" height="1" /><use href="#icon-dots" x="4" y="22" width="1" height="1" /><use href="#icon-dots" x="5" y="22" width="1" height="1" /><use href="#icon-dots" x="6" y="22" width="1" height="1" /><use href="#icon-dots" x="8" y="22" width="1" height="1" /><use href="#icon-dots" x="9" y="22" width="1" height="1" /><use href="#icon-dots" x="11" y="22" width="1" height="1" /><use href="#icon-dots" x="12" y="22" width="1" height="1" /><use href="#icon-dots" x="13" y="22" width="1" height="1" /><use href="#icon-dots" x="14" y="22" width="1" height="1" /><use href="#icon-dots" x="15" y="22" width="1" height="1" /><use href="#icon-dots" x="17" y="22" width="1" height="1" /><use href="#icon-dots" x="19" y="22" width="1" height="1" /><use href="#icon-dots" x="20" y="22" width="1" height="1" /><use href="#icon-dots" x="21" y="22" width="1" height="1" /><use href="#icon-dots" x="22" y="22" width="1" height="1" /><use href="#icon-dots" x="24" y="22" width="1" height="1" /><use href="#icon-dots" x="27" y="22" width="1" height="1" /><use href="#icon-dots" x="31" y="22" width="1" height="1" /><use href="#icon-dots" x="32" y="22" width="1" height="1" /><use href="#icon-dots" x="33" y="22" width="1" height="1" /><use href="#icon-dots" x="4" y="23" width="1" height="1" /><use href="#icon-dots" x="6" y="23" width="1" height="1" /><use href="#icon-dots" x="7" y="23" width="1" height="1" /><use href="#icon-dots" x="8" y="23" width="1" height="1" /><use href="#icon-dots" x="13" y="23" width="1" height="1" /><use href="#icon-dots" x="17" y="23" width="1" height="1" /><use href="#icon-dots" x="20" y="23" width="1" height="1" /><use href="#icon-dots" x="22" y="23" width="1" height="1" /><use href="#icon-dots" x="23" y="23" width="1" height="1" /><use href="#icon-dots" x="24" y="23" width="1" height="1" /><use href="#icon-dots" x="27" y="23" width="1" height="1" /><use href="#icon-dots" x="28" y="23" width="1" height="1" /><use href="#icon-dots" x="30" y="23" width="1" height="1" /><use href="#icon-dots" x="31" y="23" width="1" height="1" /><use href="#icon-dots" x="32" y="23" width="1" height="1" /><use href="#icon-dots" x="33" y="23" width="1" height="1" /><use href="#icon-dots" x="2" y="24" width="1" height="1" /><use href="#icon-dots" x="3" y="24" width="1" height="1" /><use href="#icon-dots" x="5" y="24" width="1" height="1" /><use href="#icon-dots" x="6" y="24" width="1" height="1" /><use href="#icon-dots" x="8" y="24" width="1" height="1" /><use href="#icon-dots" x="11" y="24" width="1" height="1" /><use href="#icon-dots" x="14" y="24" width="1" height="1" /><use href="#icon-dots" x="16" y="24" width="1" height="1" /><use href="#icon-dots" x="21" y="24" width="1" height="1" /><use href="#icon-dots" x="23" y="24" width="1" height="1" /><use href="#icon-dots" x="24" y="24" width="1" height="1" /><use href="#icon-dots" x="25" y="24" width="1" height="1" /><use href="#icon-dots" x="26" y="24" width="1" height="1" /><use href="#icon-dots" x="28" y="24" width="1" height="1" /><use href="#icon-dots" x="32" y="24" width="1" height="1" /><use href="#icon-dots" x="33" y="24" width="1" height="1" /><use href="#icon-dots" x="1" y="25" width="1" height="1" /><use href="#icon-dots" x="7" y="25" width="1" height="1" /><use href="#icon-dots" x="9" y="25" width="1" height="1" /><use href="#icon-dots" x="10" y="25" width="1" height="1" /><use href="#icon-dots" x="11" y="25" width="1" height="1" /><use href="#icon-dots" x="13" y="25" width="1" height="1" /><use href="#icon-dots" x="16" y="25" width="1" height="1" /><use href="#icon-dots" x="17" y="25" width="1" height="1" /><use href="#icon-dots" x="18" y="25" width="1" height="1" /><use href="#icon-dots" x="19" y="25" width="1" height="1" /><use href="#icon-dots" x="20" y="25" width="1" height="1" /><use href="#icon-dots" x="21" y="25" width="1" height="1" /><use href="#icon-dots" x="23" y="25" width="1" height="1" /><use href="#icon-dots" x="24" y="25" width="1" height="1" /><use href="#icon-dots" x="25" y="25" width="1" height="1" /><use href="#icon-dots" x="26" y="25" width="1" height="1" /><use href="#icon-dots" x="27" y="25" width="1" height="1" /><use href="#icon-dots" x="28" y="25" width="1" height="1" /><use href="#icon-dots" x="29" y="25" width="1" height="1" /><use href="#icon-dots" x="9" y="26" width="1" height="1" /><use href="#icon-dots" x="11" y="26" width="1" height="1" /><use href="#icon-dots" x="13" y="26" width="1" height="1" /><use href="#icon-dots" x="16" y="26" width="1" height="1" /><use href="#icon-dots" x="18" y="26" width="1" height="1" /><use href="#icon-dots" x="20" y="26" width="1" height="1" /><use href="#icon-dots" x="25" y="26" width="1" height="1" /><use href="#icon-dots" x="29" y="26" width="1" height="1" /><use href="#icon-dots" x="30" y="26" width="1" height="1" /><use href="#icon-dots" x="31" y="26" width="1" height="1" /><use href="#icon-dots" x="32" y="26" width="1" height="1" /><use href="#icon-dots" x="9" y="27" width="1" height="1" /><use href="#icon-dots" x="12" y="27" width="1" height="1" /><use href="#icon-dots" x="13" y="27" width="1" height="1" /><use href="#icon-dots" x="14" y="27" width="1" height="1" /><use href="#icon-dots" x="17" y="27" width="1" height="1" /><use href="#icon-dots" x="18" y="27" width="1" height="1" /><use href="#icon-dots" x="19" y="27" width="1" height="1" /><use href="#icon-dots" x="20" y="27" width="1" height="1" /><use href="#icon-dots" x="21" y="27" width="1" height="1" /><use href="#icon-dots" x="23" y="27" width="1" height="1" /><use href="#icon-dots" x="24" y="27" width="1" height="1" /><use href="#icon-dots" x="25" y="27" width="1" height="1" /><use href="#icon-dots" x="27" y="27" width="1" height="1" /><use href="#icon-dots" x="29" y="27" width="1" height="1" /><use href="#icon-dots" x="30" y="27" width="1" height="1" /><use href="#icon-dots" x="10" y="28" width="1" height="1" /><use href="#icon-dots" x="11" y="28" width="1" height="1" /><use href="#icon-dots" x="20" y="28" width="1" height="1" /><use href="#icon-dots" x="21" y="28" width="1" height="1" /><use href="#icon-dots" x="22" y="28" width="1" height="1" /><use href="#icon-dots" x="24" y="28" width="1" height="1" /><use href="#icon-dots" x="25" y="28" width="1" height="1" /><use href="#icon-dots" x="29" y="28" width="1" height="1" /><use href="#icon-dots" x="30" y="28" width="1" height="1" /><use href="#icon-dots" x="31" y="28" width="1" height="1" /><use href="#icon-dots" x="32" y="28" width="1" height="1" /><use href="#icon-dots" x="33" y="28" width="1" height="1" /><use href="#icon-dots" x="14" y="29" width="1" height="1" /><use href="#icon-dots" x="16" y="29" width="1" height="1" /><use href="#icon-dots" x="17" y="29" width="1" height="1" /><use href="#icon-dots" x="18" y="29" width="1" height="1" /><use href="#icon-dots" x="20" y="29" width="1" height="1" /><use href="#icon-dots" x="21" y="29" width="1" height="1" /><use href="#icon-dots" x="24" y="29" width="1" height="1" /><use href="#icon-dots" x="25" y="29" width="1" height="1" /><use href="#icon-dots" x="26" y="29" width="1" height="1" /><use href="#icon-dots" x="27" y="29" width="1" height="1" /><use href="#icon-dots" x="28" y="29" width="1" height="1" /><use href="#icon-dots" x="29" y="29" width="1" height="1" /><use href="#icon-dots" x="30" y="29" width="1" height="1" /><use href="#icon-dots" x="31" y="29" width="1" height="1" /><use href="#icon-dots" x="32" y="29" width="1" height="1" /><use href="#icon-dots" x="9" y="30" width="1" height="1" /><use href="#icon-dots" x="10" y="30" width="1" height="1" /><use href="#icon-dots" x="11" y="30" width="1" height="1" /><use href="#icon-dots" x="14" y="30" width="1" height="1" /><use href="#icon-dots" x="15" y="30" width="1" height="1" /><use href="#icon-dots" x="21" y="30" width="1" height="1" /><use href="#icon-dots" x="23" y="30" width="1" height="1" /><use href="#icon-dots" x="24" y="30" width="1" height="1" /><use href="#icon-dots" x="28" y="30" width="1" height="1" /><use href="#icon-dots" x="32" y="30" width="1" height="1" /><use href="#icon-dots" x="33" y="30" width="1" height="1" /><use href="#icon-dots" x="9" y="31" width="1" height="1" /><use href="#icon-dots" x="11" y="31" width="1" height="1" /><use href="#icon-dots" x="12" y="31" width="1" height="1" /><use href="#icon-dots" x="13" y="31" width="1" height="1" /><use href="#icon-dots" x="16" y="31" width="1" height="1" /><use href="#icon-dots" x="17" y="31" width="1" height="1" /><use href="#icon-dots" x="18" y="31" width="1" height="1" /><use href="#icon-dots" x="23" y="31" width="1" height="1" /><use href="#icon-dots" x="24" y="31" width="1" height="1" /><use href="#icon-dots" x="25" y="31" width="1" height="1" /><use href="#icon-dots" x="26" y="31" width="1" height="1" /><use href="#icon-dots" x="27" y="31" width="1" height="1" /><use href="#icon-dots" x="30" y="31" width="1" height="1" /><use href="#icon-dots" x="10" y="32" width="1" height="1" /><use href="#icon-dots" x="12" y="32" width="1" height="1" /><use href="#icon-dots" x="14" y="32" width="1" height="1" /><use href="#icon-dots" x="16" y="32" width="1" height="1" /><use href="#icon-dots" x="18" y="32" width="1" height="1" /><use href="#icon-dots" x="21" y="32" width="1" height="1" /><use href="#icon-dots" x="24" y="32" width="1" height="1" /><use href="#icon-dots" x="25" y="32" width="1" height="1" /><use href="#icon-dots" x="26" y="32" width="1" height="1" /><use href="#icon-dots" x="33" y="32" width="1" height="1" /><use href="#icon-dots" x="10" y="33" width="1" height="1" /><use href="#icon-dots" x="11" y="33" width="1" height="1" /><use href="#icon-dots" x="13" y="33" width="1" height="1" /><use href="#icon-dots" x="15" y="33" width="1" height="1" /><use href="#icon-dots" x="17" y="33" width="1" height="1" /><use href="#icon-dots" x="20" y="33" width="1" height="1" /><use href="#icon-dots" x="22" y="33" width="1" height="1" /><use href="#icon-dots" x="24" y="33" width="1" height="1" /><use href="#icon-dots" x="27" y="33" width="1" height="1" /><use href="#icon-dots" x="28" y="33" width="1" height="1" /><use href="#icon-dots" x="29" y="33" width="1" height="1" /><use href="#icon-dots" x="31" y="33" width="1" height="1" /></g>
        </mask>
        <rect width="35" height="35" fill="#000000" mask="url(#mask-dots)" />
      
      <defs>
        <mask id="mask-cornerSquare">
            <rect width="35" height="35" fill="black" />
            <g fill="white" shape-rendering="crispEdges"><use href="#icon-sq" x="1" y="1" width="7" height="7" /><use href="#icon-sq" x="27" y="1" width="7" height="7" /><use href="#icon-sq" x="1" y="27" width="7" height="7" /></g>
        </mask>
      </defs><rect x="1" y="1" width="7" height="7" fill="#000000" mask="url(#mask-cornerSquare)" /><rect x="27" y="1" width="7" height="7" fill="#000000" mask="url(#mask-cornerSquare)" /><rect x="1" y="27" width="7" height="7" fill="#000000" mask="url(#mask-cornerSquare)" />
      <defs>
        <mask id="mask-cornerDot">
            <rect width="35" height="35" fill="black" />
            <g fill="white" shape-rendering="crispEdges"><use href="#icon-dot" x="3" y="3" width="3" height="3" /><use href="#icon-dot" x="29" y="3" width="3" height="3" /><use href="#icon-dot" x="3" y="29" width="3" height="3" /></g>
        </mask>
      </defs><rect x="1" y="1" width="7" height="7" fill="#000000" mask="url(#mask-cornerDot)" /><rect x="27" y="1" width="7" height="7" fill="#000000" mask="url(#mask-cornerDot)" /><rect x="1" y="27" width="7" height="7" fill="#000000" mask="url(#mask-cornerDot)" />
      
    </g>
  </svg>