<svg xmlns="http://www.w3.org/2000/svg" viewBox="0 0 35 35" width="362" height="362">
    
    <defs>
      <linearGradient id="grad-dots" gradientUnits="userSpaceOnUse" x1="-7.25" y1="17.50" x2="42.25" y2="17.50">
        <stop offset="0" stop-color="#000000" /><stop offset="1" stop-color="#000000" />
      </linearGradient>
    </defs>
    <g >
      <rect width="35" height="35" fill="rgba(255, 255, 255, 0)" />
      
      
        <mask id="mask-dots">
            <rect width="35" height="35" fill="black" />
            <g fill="white"><path d="M 10.5 1 L 11 1 L 11 1.5 L 11 2 L 10.5 2 L 10.25 2 A 0.25 0.25 0 0 1 10 1.75 L 10 1.5 L 10 1.25 A 0.25 0.25 0 0 1 10.25 1 L 10.5 1 ZM 11.5 1 L 11.75 1 A 0.25 0.25 0 0 1 12 1.25 L 12 1.5 L 12 2 L 11.5 2 L 11 2 L 11 1.5 L 11 1 L 11.5 1 ZM 15.5 1 L 16 1 L 16 1.5 L 16 2 L 15.5 2 L 15 2 L 15 1.5 L 15 1.25 A 0.25 0.25 0 0 1 15.25 1 L 15.5 1 ZM 16.5 1 L 16.75 1 A 0.25 0.25 0 0 1 17 1.25 L 17 1.5 L 17 2 L 16.5 2 L 16 2 L 16 1.5 L 16 1 L 16.5 1 ZM 18.5 1 L 19 1 L 19 1.5 L 19 2 L 18.5 2 L 18 2 L 18 1.5 L 18 1.25 A 0.25 0.25 0 0 1 18.25 1 L 18.5 1 ZM 19.5 1 L 20 1 L 20 1.5 L 20 2 L 19.5 2 L 19 2 L 19 1.5 L 19 1 L 19.5 1 ZM 20.5 1 L 21 1 L 21 1.5 L 21 2 L 20.5 2 L 20 2 L 20 1.5 L 20 1 L 20.5 1 ZM 21.5 1 L 22 1 L 22 1.5 L 22 2 L 21.5 2 L 21 2 L 21 1.5 L 21 1 L 21.5 1 ZM 22.5 1 L 22.75 1 A 0.25 0.25 0 0 1 23 1.25 L 23 1.5 L 23 1.75 A 0.25 0.25 0 0 1 22.75 2 L 22.5 2 L 22 2 L 22 1.5 L 22 1 L 22.5 1 ZM 24.5 1 L 25 1 L 25 1.5 L 25 2 L 24.5 2 L 24 2 L 24 1.5 L 24 1.25 A 0.25 0.25 0 0 1 24.25 1 L 24.5 1 ZM 25.5 1 L 25.75 1 A 0.25 0.25 0 0 1 26 1.25 L 26 1.5 L 26 1.75 A 0.25 0.25 0 0 1 25.75 2 L 25.5 2 L 25 2 L 25 1.5 L 25 1 L 25.5 1 ZM 11.5 2 L 12 2 L 12 2.5 L 12 3 L 11.5 3 L 11 3 L 11 2.5 L 11 2 L 11.5 2 ZM 13.5 2 L 13.75 2 A 0.25 0.25 0 0 1 14 2.25 L 14 2.5 L 14 2.75 A 0.25 0.25 0 0 1 13.75 3 L 13.5 3 L 13.25 3 A 0.25 0.25 0 0 1 13 2.75 L 13 2.5 L 13 2.25 A 0.25 0.25 0 0 1 13.25 2 L 13.5 2 ZM 15.5 2 L 16 2 L 16 2.5 L 16 3 L 15.5 3 L 15 3 L 15 2.5 L 15 2 L 15.5 2 ZM 16.5 2 L 17 2 L 17 2.5 L 17 3 L 16.5 3 L 16 3 L 16 2.5 L 16 2 L 16.5 2 ZM 17.5 2 L 18 2 L 18 2.5 L 18 3 L 17.5 3 L 17 3 L 17 2.5 L 17 2 L 17.5 2 ZM 18.5 2 L 19 2 L 19 2.5 L 19 2.75 A 0.25 0.25 0 0 1 18.75 3 L 18.5 3 L 18 3 L 18 2.5 L 18 2 L 18.5 2 ZM 21.5 2 L 22 2 L 22 2.5 L 22 2.75 A 0.25 0.25 0 0 1 21.75 3 L 21.5 3 L 21.25 3 A 0.25 0.25 0 0 1 21 2.75 L 21 2.5 L 21 2 L 21.5 2 ZM 23.5 2 L 24 2 L 24 2.5 L 24 3 L 23.5 3 L 23.25 3 A 0.25 0.25 0 0 1 23 2.75 L 23 2.5 L 23 2.25 A 0.25 0.25 0 0 1 23.25 2 L 23.5 2 ZM 24.5 2 L 25 2 L 25 2.5 L 25 3 L 24.5 3 L 24 3 L 24 2.5 L 24 2 L 24.5 2 ZM 10.5 3 L 11 3 L 11 3.5 L 11 4 L 10.5 4 L 10.25 4 A 0.25 0.25 0 0 1 10 3.75 L 10 3.5 L 10 3.25 A 0.25 0.25 0 0 1 10.25 3 L 10.5 3 ZM 11.5 3 L 12 3 L 12 3.5 L 12 4 L 11.5 4 L 11 4 L 11 3.5 L 11 3 L 11.5 3 ZM 12.5 3 L 12.75 3 A 0.25 0.25 0 0 1 13 3.25 L 13 3.5 L 13 3.75 A 0.25 0.25 0 0 1 12.75 4 L 12.5 4 L 12 4 L 12 3.5 L 12 3 L 12.5 3 ZM 15.5 3 L 16 3 L 16 3.5 L 16 4 L 15.5 4 L 15 4 L 15 3.5 L 15 3 L 15.5 3 ZM 16.5 3 L 17 3 L 17 3.5 L 17 3.75 A 0.25 0.25 0 0 1 16.75 4 L 16.5 4 L 16 4 L 16 3.5 L 16 3 L 16.5 3 ZM 20.5 3 L 20.75 3 A 0.25 0.25 0 0 1 21 3.25 L 21 3.5 L 21 3.75 A 0.25 0.25 0 0 1 20.75 4 L 20.5 4 L 20.25 4 A 0.25 0.25 0 0 1 20 3.75 L 20 3.5 L 20 3.25 A 0.25 0.25 0 0 1 20.25 3 L 20.5 3 ZM 24.5 3 L 25 3 L 25 3.5 L 25 4 L 24.5 4 L 24 4 L 24 3.5 L 24 3 L 24.5 3 ZM 11.5 4 L 12 4 L 12 4.5 L 12 5 L 11.5 5 L 11 5 L 11 4.5 L 11 4 L 11.5 4 ZM 15.5 4 L 16 4 L 16 4.5 L 16 4.75 A 0.25 0.25 0 0 1 15.75 5 L 15.5 5 L 15.25 5 A 0.25 0.25 0 0 1 15 4.75 L 15 4.5 L 15 4 L 15.5 4 ZM 17.5 4 L 17.75 4 A 0.25 0.25 0 0 1 18 4.25 L 18 4.5 L 18 5 L 17.5 5 L 17 5 L 17 4.5 L 17 4.25 A 0.25 0.25 0 0 1 17.25 4 L 17.5 4 ZM 19.5 4 L 19.75 4 A 0.25 0.25 0 0 1 20 4.25 L 20 4.5 L 20 5 L 19.5 5 L 19 5 L 19 4.5 L 19 4.25 A 0.25 0.25 0 0 1 19.25 4 L 19.5 4 ZM 21.5 4 L 21.75 4 A 0.25 0.25 0 0 1 22 4.25 L 22 4.5 L 22 4.75 A 0.25 0.25 0 0 1 21.75 5 L 21.5 5 L 21.25 5 A 0.25 0.25 0 0 1 21 4.75 L 21 4.5 L 21 4.25 A 0.25 0.25 0 0 1 21.25 4 L 21.5 4 ZM 24.5 4 L 25 4 L 25 4.5 L 25 4.75 A 0.25 0.25 0 0 1 24.75 5 L 24.5 5 L 24.25 5 A 0.25 0.25 0 0 1 24 4.75 L 24 4.5 L 24 4 L 24.5 4 ZM 9.5 5 L 10 5 L 10 5.5 L 10 6 L 9.5 6 L 9.25 6 A 0.25 0.25 0 0 1 9 5.75 L 9 5.5 L 9 5.25 A 0.25 0.25 0 0 1 9.25 5 L 9.5 5 ZM 10.5 5 L 11 5 L 11 5.5 L 11 6 L 10.5 6 L 10 6 L 10 5.5 L 10 5 L 10.5 5 ZM 11.5 5 L 12 5 L 12 5.5 L 12 6 L 11.5 6 L 11 6 L 11 5.5 L 11 5 L 11.5 5 ZM 12.5 5 L 12.75 5 A 0.25 0.25 0 0 1 13 5.25 L 13 5.5 L 13 6 L 12.5 6 L 12 6 L 12 5.5 L 12 5 L 12.5 5 ZM 14.5 5 L 14.75 5 A 0.25 0.25 0 0 1 15 5.25 L 15 5.5 L 15 6 L 14.5 6 L 14 6 L 14 5.5 L 14 5.25 A 0.25 0.25 0 0 1 14.25 5 L 14.5 5 ZM 17.5 5 L 18 5 L 18 5.5 L 18 5.75 A 0.25 0.25 0 0 1 17.75 6 L 17.5 6 L 17.25 6 A 0.25 0.25 0 0 1 17 5.75 L 17 5.5 L 17 5 L 17.5 5 ZM 19.5 5 L 20 5 L 20 5.5 L 20 6 L 19.5 6 L 19 6 L 19 5.5 L 19 5 L 19.5 5 ZM 22.5 5 L 22.75 5 A 0.25 0.25 0 0 1 23 5.25 L 23 5.5 L 23 6 L 22.5 6 L 22 6 L 22 5.5 L 22 5.25 A 0.25 0.25 0 0 1 22.25 5 L 22.5 5 ZM 25.5 5 L 25.75 5 A 0.25 0.25 0 0 1 26 5.25 L 26 5.5 L 26 6 L 25.5 6 L 25 6 L 25 5.5 L 25 5.25 A 0.25 0.25 0 0 1 25.25 5 L 25.5 5 ZM 12.5 6 L 13 6 L 13 6.5 L 13 7 L 12.5 7 L 12.25 7 A 0.25 0.25 0 0 1 12 6.75 L 12 6.5 L 12 6 L 12.5 6 ZM 13.5 6 L 14 6 L 14 6.5 L 14 7 L 13.5 7 L 13 7 L 13 6.5 L 13 6 L 13.5 6 ZM 14.5 6 L 15 6 L 15 6.5 L 15 6.75 A 0.25 0.25 0 0 1 14.75 7 L 14.5 7 L 14 7 L 14 6.5 L 14 6 L 14.5 6 ZM 19.5 6 L 20 6 L 20 6.5 L 20 7 L 19.5 7 L 19 7 L 19 6.5 L 19 6 L 19.5 6 ZM 20.5 6 L 21 6 L 21 6.5 L 21 7 L 20.5 7 L 20 7 L 20 6.5 L 20 6 L 20.5 6 ZM 21.5 6 L 22 6 L 22 6.5 L 22 7 L 21.5 7 L 21 7 L 21 6.5 L 21 6 L 21.5 6 ZM 22.5 6 L 23 6 L 23 6.5 L 23 6.75 A 0.25 0.25 0 0 1 22.75 7 L 22.5 7 L 22 7 L 22 6.5 L 22 6 L 22.5 6 ZM 25.5 6 L 26 6 L 26 6.5 L 26 7 L 25.5 7 L 25 7 L 25 6.5 L 25 6 L 25.5 6 ZM 9.5 7 L 9.75 7 A 0.25 0.25 0 0 1 10 7.25 L 10 7.5 L 10 8 L 9.5 8 L 9 8 L 9 7.5 L 9 7.25 A 0.25 0.25 0 0 1 9.25 7 L 9.5 7 ZM 11.5 7 L 11.75 7 A 0.25 0.25 0 0 1 12 7.25 L 12 7.5 L 12 7.75 A 0.25 0.25 0 0 1 11.75 8 L 11.5 8 L 11.25 8 A 0.25 0.25 0 0 1 11 7.75 L 11 7.5 L 11 7.25 A 0.25 0.25 0 0 1 11.25 7 L 11.5 7 ZM 13.5 7 L 14 7 L 14 7.5 L 14 7.75 A 0.25 0.25 0 0 1 13.75 8 L 13.5 8 L 13.25 8 A 0.25 0.25 0 0 1 13 7.75 L 13 7.5 L 13 7 L 13.5 7 ZM 15.5 7 L 15.75 7 A 0.25 0.25 0 0 1 16 7.25 L 16 7.5 L 16 7.75 A 0.25 0.25 0 0 1 15.75 8 L 15.5 8 L 15.25 8 A 0.25 0.25 0 0 1 15 7.75 L 15 7.5 L 15 7.25 A 0.25 0.25 0 0 1 15.25 7 L 15.5 7 ZM 17.5 7 L 17.75 7 A 0.25 0.25 0 0 1 18 7.25 L 18 7.5 L 18 7.75 A 0.25 0.25 0 0 1 17.75 8 L 17.5 8 L 17.25 8 A 0.25 0.25 0 0 1 17 7.75 L 17 7.5 L 17 7.25 A 0.25 0.25 0 0 1 17.25 7 L 17.5 7 ZM 19.5 7 L 20 7 L 20 7.5 L 20 7.75 A 0.25 0.25 0 0 1 19.75 8 L 19.5 8 L 19.25 8 A 0.25 0.25 0 0 1 19 7.75 L 19 7.5 L 19 7 L 19.5 7 ZM 21.5 7 L 22 7 L 22 7.5 L 22 7.75 A 0.25 0.25 0 0 1 21.75 8 L 21.5 8 L 21.25 8 A 0.25 0.25 0 0 1 21 7.75 L 21 7.5 L 21 7 L 21.5 7 ZM 23.5 7 L 23.75 7 A 0.25 0.25 0 0 1 24 7.25 L 24 7.5 L 24 7.75 A 0.25 0.25 0 0 1 23.75 8 L 23.5 8 L 23.25 8 A 0.25 0.25 0 0 1 23 7.75 L 23 7.5 L 23 7.25 A 0.25 0.25 0 0 1 23.25 7 L 23.5 7 ZM 25.5 7 L 26 7 L 26 7.5 L 26 7.75 A 0.25 0.25 0 0 1 25.75 8 L 25.5 8 L 25.25 8 A 0.25 0.25 0 0 1 25 7.75 L 25 7.5 L 25 7 L 25.5 7 ZM 9.5 8 L 10 8 L 10 8.5 L 10 9 L 9.5 9 L 9 9 L 9 8.5 L 9 8 L 9.5 8 ZM 10.5 8 L 10.75 8 A 0.25 0.25 0 0 1 11 8.25 L 11 8.5 L 11 8.75 A 0.25 0.25 0 0 1 10.75 9 L 10.5 9 L 10 9 L 10 8.5 L 10 8 L 10.5 8 ZM 14.5 8 L 14.75 8 A 0.25 0.25 0 0 1 15 8.25 L 15 8.5 L 15 8.75 A 0.25 0.25 0 0 1 14.75 9 L 14.5 9 L 14.25 9 A 0.25 0.25 0 0 1 14 8.75 L 14 8.5 L 14 8.25 A 0.25 0.25 0 0 1 14.25 8 L 14.5 8 ZM 16.5 8 L 16.75 8 A 0.25 0.25 0 0 1 17 8.25 L 17 8.5 L 17 8.75 A 0.25 0.25 0 0 1 16.75 9 L 16.5 9 L 16.25 9 A 0.25 0.25 0 0 1 16 8.75 L 16 8.5 L 16 8.25 A 0.25 0.25 0 0 1 16.25 8 L 16.5 8 ZM 18.5 8 L 18.75 8 A 0.25 0.25 0 0 1 19 8.25 L 19 8.5 L 19 8.75 A 0.25 0.25 0 0 1 18.75 9 L 18.5 9 L 18.25 9 A 0.25 0.25 0 0 1 18 8.75 L 18 8.5 L 18 8.25 A 0.25 0.25 0 0 1 18.25 8 L 18.5 8 ZM 20.5 8 L 20.75 8 A 0.25 0.25 0 0 1 21 8.25 L 21 8.5 L 21 9 L 20.5 9 L 20 9 L 20 8.5 L 20 8.25 A 0.25 0.25 0 0 1 20.25 8 L 20.5 8 ZM 24.5 8 L 24.75 8 A 0.25 0.25 0 0 1 25 8.25 L 25 8.5 L 25 8.75 A 0.25 0.25 0 0 1 24.75 9 L 24.5 9 L 24.25 9 A 0.25 0.25 0 0 1 24 8.75 L 24 8.5 L 24 8.25 A 0.25 0.25 0 0 1 24.25 8 L 24.5 8 ZM 3.5 9 L 4 9 L 4 9.5 L 4 10 L 3.5 10 L 3 10 L 3 9.5 L 3 9.25 A 0.25 0.25 0 0 1 3.25 9 L 3.5 9 ZM 4.5 9 L 4.75 9 A 0.25 0.25 0 0 1 5 9.25 L 5 9.5 L 5 10 L 4.5 10 L 4 10 L 4 9.5 L 4 9 L 4.5 9 ZM 7.5 9 L 8 9 L 8 9.5 L 8 10 L 7.5 10 L 7.25 10 A 0.25 0.25 0 0 1 7 9.75 L 7 9.5 L 7 9.25 A 0.25 0.25 0 0 1 7.25 9 L 7.5 9 ZM 8.5 9 L 9 9 L 9 9.5 L 9 10 L 8.5 10 L 8 10 L 8 9.5 L 8 9 L 8.5 9 ZM 9.5 9 L 10 9 L 10 9.5 L 10 10 L 9.5 10 L 9 10 L 9 9.5 L 9 9 L 9.5 9 ZM 13.5 9 L 13.75 9 A 0.25 0.25 0 0 1 14 9.25 L 14 9.5 L 14 9.75 A 0.25 0.25 0 0 1 13.75 10 L 13.5 10 L 13.25 10 A 0.25 0.25 0 0 1 13 9.75 L 13 9.5 L 13 9.25 A 0.25 0.25 0 0 1 13.25 9 L 13.5 9 ZM 20.5 9 L 21 9 L 21 9.5 L 21 10 L 20.5 10 L 20 10 L 20 9.5 L 20 9 L 20.5 9 ZM 21.5 9 L 22 9 L 22 9.5 L 22 10 L 21.5 10 L 21 10 L 21 9.5 L 21 9 L 21.5 9 ZM 22.5 9 L 22.75 9 A 0.25 0.25 0 0 1 23 9.25 L 23 9.5 L 23 10 L 22.5 10 L 22 10 L 22 9.5 L 22 9 L 22.5 9 ZM 26.5 9 L 27 9 L 27 9.5 L 27 10 L 26.5 10 L 26 10 L 26 9.5 L 26 9.25 A 0.25 0.25 0 0 1 26.25 9 L 26.5 9 ZM 27.5 9 L 27.75 9 A 0.25 0.25 0 0 1 28 9.25 L 28 9.5 L 28 10 L 27.5 10 L 27 10 L 27 9.5 L 27 9 L 27.5 9 ZM 29.5 9 L 29.75 9 A 0.25 0.25 0 0 1 30 9.25 L 30 9.5 L 30 9.75 A 0.25 0.25 0 0 1 29.75 10 L 29.5 10 L 29.25 10 A 0.25 0.25 0 0 1 29 9.75 L 29 9.5 L 29 9.25 A 0.25 0.25 0 0 1 29.25 9 L 29.5 9 ZM 1.5 10 L 2 10 L 2 10.5 L 2 11 L 1.5 11 L 1 11 L 1 10.5 L 1 10.25 A 0.25 0.25 0 0 1 1.25 10 L 1.5 10 ZM 2.5 10 L 3 10 L 3 10.5 L 3 11 L 2.5 11 L 2 11 L 2 10.5 L 2 10 L 2.5 10 ZM 3.5 10 L 4 10 L 4 10.5 L 4 11 L 3.5 11 L 3 11 L 3 10.5 L 3 10 L 3.5 10 ZM 4.5 10 L 5 10 L 5 10.5 L 5 10.75 A 0.25 0.25 0 0 1 4.75 11 L 4.5 11 L 4 11 L 4 10.5 L 4 10 L 4.5 10 ZM 8.5 10 L 9 10 L 9 10.5 L 9 11 L 8.5 11 L 8 11 L 8 10.5 L 8 10 L 8.5 10 ZM 9.5 10 L 10 10 L 10 10.5 L 10 11 L 9.5 11 L 9 11 L 9 10.5 L 9 10 L 9.5 10 ZM 10.5 10 L 11 10 L 11 10.5 L 11 11 L 10.5 11 L 10 11 L 10 10.5 L 10 10 L 10.5 10 ZM 11.5 10 L 11.75 10 A 0.25 0.25 0 0 1 12 10.25 L 12 10.5 L 12 10.75 A 0.25 0.25 0 0 1 11.75 11 L 11.5 11 L 11 11 L 11 10.5 L 11 10 L 11.5 10 ZM 14.5 10 L 15 10 L 15 10.5 L 15 11 L 14.5 11 L 14.25 11 A 0.25 0.25 0 0 1 14 10.75 L 14 10.5 L 14 10.25 A 0.25 0.25 0 0 1 14.25 10 L 14.5 10 ZM 15.5 10 L 16 10 L 16 10.5 L 16 11 L 15.5 11 L 15 11 L 15 10.5 L 15 10 L 15.5 10 ZM 16.5 10 L 17 10 L 17 10.5 L 17 11 L 16.5 11 L 16 11 L 16 10.5 L 16 10 L 16.5 10 ZM 17.5 10 L 17.75 10 A 0.25 0.25 0 0 1 18 10.25 L 18 10.5 L 18 10.75 A 0.25 0.25 0 0 1 17.75 11 L 17.5 11 L 17 11 L 17 10.5 L 17 10 L 17.5 10 ZM 19.5 10 L 20 10 L 20 10.5 L 20 11 L 19.5 11 L 19 11 L 19 10.5 L 19 10.25 A 0.25 0.25 0 0 1 19.25 10 L 19.5 10 ZM 20.5 10 L 21 10 L 21 10.5 L 21 11 L 20.5 11 L 20 11 L 20 10.5 L 20 10 L 20.5 10 ZM 21.5 10 L 22 10 L 22 10.5 L 22 11 L 21.5 11 L 21 11 L 21 10.5 L 21 10 L 21.5 10 ZM 22.5 10 L 23 10 L 23 10.5 L 23 11 L 22.5 11 L 22 11 L 22 10.5 L 22 10 L 22.5 10 ZM 23.5 10 L 24 10 L 24 10.5 L 24 11 L 23.5 11 L 23 11 L 23 10.5 L 23 10 L 23.5 10 ZM 24.5 10 L 25 10 L 25 10.5 L 25 11 L 24.5 11 L 24 11 L 24 10.5 L 24 10 L 24.5 10 ZM 25.5 10 L 26 10 L 26 10.5 L 26 11 L 25.5 11 L 25 11 L 25 10.5 L 25 10 L 25.5 10 ZM 26.5 10 L 27 10 L 27 10.5 L 27 11 L 26.5 11 L 26 11 L 26 10.5 L 26 10 L 26.5 10 ZM 27.5 10 L 28 10 L 28 10.5 L 28 11 L 27.5 11 L 27 11 L 27 10.5 L 27 10 L 27.5 10 ZM 30.5 10 L 31 10 L 31 10.5 L 31 11 L 30.5 11 L 30.25 11 A 0.25 0.25 0 0 1 30 10.75 L 30 10.5 L 30 10.25 A 0.25 0.25 0 0 1 30.25 10 L 30.5 10 ZM 31.5 10 L 32 10 L 32 10.5 L 32 11 L 31.5 11 L 31 11 L 31 10.5 L 31 10 L 31.5 10 ZM 32.5 10 L 33 10 L 33 10.5 L 33 11 L 32.5 11 L 32 11 L 32 10.5 L 32 10 L 32.5 10 ZM 33.5 10 L 33.75 10 A 0.25 0.25 0 0 1 34 10.25 L 34 10.5 L 34 11 L 33.5 11 L 33 11 L 33 10.5 L 33 10 L 33.5 10 ZM 1.5 11 L 2 11 L 2 11.5 L 2 12 L 1.5 12 L 1 12 L 1 11.5 L 1 11 L 1.5 11 ZM 3.5 11 L 4 11 L 4 11.5 L 4 12 L 3.5 12 L 3 12 L 3 11.5 L 3 11 L 3.5 11 ZM 6.5 11 L 7 11 L 7 11.5 L 7 12 L 6.5 12 L 6.25 12 A 0.25 0.25 0 0 1 6 11.75 L 6 11.5 L 6 11.25 A 0.25 0.25 0 0 1 6.25 11 L 6.5 11 ZM 7.5 11 L 8 11 L 8 11.5 L 8 12 L 7.5 12 L 7 12 L 7 11.5 L 7 11 L 7.5 11 ZM 8.5 11 L 9 11 L 9 11.5 L 9 12 L 8.5 12 L 8 12 L 8 11.5 L 8 11 L 8.5 11 ZM 9.5 11 L 10 11 L 10 11.5 L 10 12 L 9.5 12 L 9 12 L 9 11.5 L 9 11 L 9.5 11 ZM 12.5 11 L 13 11 L 13 11.5 L 13 12 L 12.5 12 L 12.25 12 A 0.25 0.25 0 0 1 12 11.75 L 12 11.5 L 12 11.25 A 0.25 0.25 0 0 1 12.25 11 L 12.5 11 ZM 13.5 11 L 13.75 11 A 0.25 0.25 0 0 1 14 11.25 L 14 11.5 L 14 11.75 A 0.25 0.25 0 0 1 13.75 12 L 13.5 12 L 13 12 L 13 11.5 L 13 11 L 13.5 11 ZM 15.5 11 L 16 11 L 16 11.5 L 16 11.75 A 0.25 0.25 0 0 1 15.75 12 L 15.5 12 L 15.25 12 A 0.25 0.25 0 0 1 15 11.75 L 15 11.5 L 15 11 L 15.5 11 ZM 19.5 11 L 20 11 L 20 11.5 L 20 12 L 19.5 12 L 19 12 L 19 11.5 L 19 11 L 19.5 11 ZM 20.5 11 L 21 11 L 21 11.5 L 21 12 L 20.5 12 L 20 12 L 20 11.5 L 20 11 L 20.5 11 ZM 24.5 11 L 25 11 L 25 11.5 L 25 12 L 24.5 12 L 24 12 L 24 11.5 L 24 11 L 24.5 11 ZM 27.5 11 L 28 11 L 28 11.5 L 28 12 L 27.5 12 L 27 12 L 27 11.5 L 27 11 L 27.5 11 ZM 32.5 11 L 33 11 L 33 11.5 L 33 12 L 32.5 12 L 32.25 12 A 0.25 0.25 0 0 1 32 11.75 L 32 11.5 L 32 11 L 32.5 11 ZM 33.5 11 L 34 11 L 34 11.5 L 34 11.75 A 0.25 0.25 0 0 1 33.75 12 L 33.5 12 L 33 12 L 33 11.5 L 33 11 L 33.5 11 ZM 1.5 12 L 2 12 L 2 12.5 L 2 13 L 1.5 13 L 1 13 L 1 12.5 L 1 12 L 1.5 12 ZM 3.5 12 L 4 12 L 4 12.5 L 4 13 L 3.5 13 L 3 13 L 3 12.5 L 3 12 L 3.5 12 ZM 4.5 12 L 4.75 12 A 0.25 0.25 0 0 1 5 12.25 L 5 12.5 L 5 12.75 A 0.25 0.25 0 0 1 4.75 13 L 4.5 13 L 4 13 L 4 12.5 L 4 12 L 4.5 12 ZM 9.5 12 L 10 12 L 10 12.5 L 10 13 L 9.5 13 L 9 13 L 9 12.5 L 9 12 L 9.5 12 ZM 10.5 12 L 11 12 L 11 12.5 L 11 13 L 10.5 13 L 10 13 L 10 12.5 L 10 12 L 10.5 12 ZM 11.5 12 L 11.75 12 A 0.25 0.25 0 0 1 12 12.25 L 12 12.5 L 12 13 L 11.5 13 L 11 13 L 11 12.5 L 11 12 L 11.5 12 ZM 18.5 12 L 19 12 L 19 12.5 L 19 13 L 18.5 13 L 18 13 L 18 12.5 L 18 12.25 A 0.25 0.25 0 0 1 18.25 12 L 18.5 12 ZM 19.5 12 L 20 12 L 20 12.5 L 20 13 L 19.5 13 L 19 13 L 19 12.5 L 19 12 L 19.5 12 ZM 20.5 12 L 21 12 L 21 12.5 L 21 13 L 20.5 13 L 20 13 L 20 12.5 L 20 12 L 20.5 12 ZM 23.5 12 L 24 12 L 24 12.5 L 24 13 L 23.5 13 L 23 13 L 23 12.5 L 23 12.25 A 0.25 0.25 0 0 1 23.25 12 L 23.5 12 ZM 24.5 12 L 25 12 L 25 12.5 L 25 12.75 A 0.25 0.25 0 0 1 24.75 13 L 24.5 13 L 24 13 L 24 12.5 L 24 12 L 24.5 12 ZM 27.5 12 L 28 12 L 28 12.5 L 28 13 L 27.5 13 L 27.25 13 A 0.25 0.25 0 0 1 27 12.75 L 27 12.5 L 27 12 L 27.5 12 ZM 28.5 12 L 29 12 L 29 12.5 L 29 13 L 28.5 13 L 28 13 L 28 12.5 L 28 12 L 28.5 12 ZM 29.5 12 L 30 12 L 30 12.5 L 30 13 L 29.5 13 L 29 13 L 29 12.5 L 29 12 L 29.5 12 ZM 30.5 12 L 30.75 12 A 0.25 0.25 0 0 1 31 12.25 L 31 12.5 L 31 12.75 A 0.25 0.25 0 0 1 30.75 13 L 30.5 13 L 30 13 L 30 12.5 L 30 12 L 30.5 12 ZM 1.5 13 L 2 13 L 2 13.5 L 2 14 L 1.5 14 L 1 14 L 1 13.5 L 1 13 L 1.5 13 ZM 3.5 13 L 4 13 L 4 13.5 L 4 14 L 3.5 14 L 3 14 L 3 13.5 L 3 13 L 3.5 13 ZM 6.5 13 L 7 13 L 7 13.5 L 7 14 L 6.5 14 L 6 14 L 6 13.5 L 6 13.25 A 0.25 0.25 0 0 1 6.25 13 L 6.5 13 ZM 7.5 13 L 7.75 13 A 0.25 0.25 0 0 1 8 13.25 L 8 13.5 L 8 13.75 A 0.25 0.25 0 0 1 7.75 14 L 7.5 14 L 7 14 L 7 13.5 L 7 13 L 7.5 13 ZM 9.5 13 L 10 13 L 10 13.5 L 10 14 L 9.5 14 L 9 14 L 9 13.5 L 9 13 L 9.5 13 ZM 11.5 13 L 12 13 L 12 13.5 L 12 14 L 11.5 14 L 11.25 14 A 0.25 0.25 0 0 1 11 13.75 L 11 13.5 L 11 13 L 11.5 13 ZM 12.5 13 L 12.75 13 A 0.25 0.25 0 0 1 13 13.25 L 13 13.5 L 13 14 L 12.5 14 L 12 14 L 12 13.5 L 12 13 L 12.5 13 ZM 14.5 13 L 15 13 L 15 13.5 L 15 14 L 14.5 14 L 14.25 14 A 0.25 0.25 0 0 1 14 13.75 L 14 13.5 L 14 13.25 A 0.25 0.25 0 0 1 14.25 13 L 14.5 13 ZM 15.5 13 L 16 13 L 16 13.5 L 16 14 L 15.5 14 L 15 14 L 15 13.5 L 15 13 L 15.5 13 ZM 16.5 13 L 17 13 L 17 13.5 L 17 14 L 16.5 14 L 16 14 L 16 13.5 L 16 13 L 16.5 13 ZM 17.5 13 L 18 13 L 18 13.5 L 18 14 L 17.5 14 L 17 14 L 17 13.5 L 17 13 L 17.5 13 ZM 18.5 13 L 19 13 L 19 13.5 L 19 14 L 18.5 14 L 18 14 L 18 13.5 L 18 13 L 18.5 13 ZM 20.5 13 L 21 13 L 21 13.5 L 21 14 L 20.5 14 L 20 14 L 20 13.5 L 20 13 L 20.5 13 ZM 21.5 13 L 21.75 13 A 0.25 0.25 0 0 1 22 13.25 L 22 13.5 L 22 13.75 A 0.25 0.25 0 0 1 21.75 14 L 21.5 14 L 21 14 L 21 13.5 L 21 13 L 21.5 13 ZM 23.5 13 L 24 13 L 24 13.5 L 24 14 L 23.5 14 L 23 14 L 23 13.5 L 23 13 L 23.5 13 ZM 25.5 13 L 26 13 L 26 13.5 L 26 14 L 25.5 14 L 25 14 L 25 13.5 L 25 13.25 A 0.25 0.25 0 0 1 25.25 13 L 25.5 13 ZM 26.5 13 L 26.75 13 A 0.25 0.25 0 0 1 27 13.25 L 27 13.5 L 27 13.75 A 0.25 0.25 0 0 1 26.75 14 L 26.5 14 L 26 14 L 26 13.5 L 26 13 L 26.5 13 ZM 28.5 13 L 29 13 L 29 13.5 L 29 14 L 28.5 14 L 28 14 L 28 13.5 L 28 13 L 28.5 13 ZM 29.5 13 L 30 13 L 30 13.5 L 30 13.75 A 0.25 0.25 0 0 1 29.75 14 L 29.5 14 L 29 14 L 29 13.5 L 29 13 L 29.5 13 ZM 1.5 14 L 2 14 L 2 14.5 L 2 15 L 1.5 15 L 1.25 15 A 0.25 0.25 0 0 1 1 14.75 L 1 14.5 L 1 14 L 1.5 14 ZM 2.5 14 L 3 14 L 3 14.5 L 3 15 L 2.5 15 L 2 15 L 2 14.5 L 2 14 L 2.5 14 ZM 3.5 14 L 4 14 L 4 14.5 L 4 14.75 A 0.25 0.25 0 0 1 3.75 15 L 3.5 15 L 3 15 L 3 14.5 L 3 14 L 3.5 14 ZM 6.5 14 L 7 14 L 7 14.5 L 7 14.75 A 0.25 0.25 0 0 1 6.75 15 L 6.5 15 L 6.25 15 A 0.25 0.25 0 0 1 6 14.75 L 6 14.5 L 6 14 L 6.5 14 ZM 8.5 14 L 9 14 L 9 14.5 L 9 15 L 8.5 15 L 8.25 15 A 0.25 0.25 0 0 1 8 14.75 L 8 14.5 L 8 14.25 A 0.25 0.25 0 0 1 8.25 14 L 8.5 14 ZM 9.5 14 L 10 14 L 10 14.5 L 10 15 L 9.5 15 L 9 15 L 9 14.5 L 9 14 L 9.5 14 ZM 10.5 14 L 10.75 14 A 0.25 0.25 0 0 1 11 14.25 L 11 14.5 L 11 15 L 10.5 15 L 10 15 L 10 14.5 L 10 14 L 10.5 14 ZM 12.5 14 L 13 14 L 13 14.5 L 13 15 L 12.5 15 L 12 15 L 12 14.5 L 12 14 L 12.5 14 ZM 15.5 14 L 16 14 L 16 14.5 L 16 15 L 15.5 15 L 15.25 15 A 0.25 0.25 0 0 1 15 14.75 L 15 14.5 L 15 14 L 15.5 14 ZM 16.5 14 L 17 14 L 17 14.5 L 17 15 L 16.5 15 L 16 15 L 16 14.5 L 16 14 L 16.5 14 ZM 17.5 14 L 18 14 L 18 14.5 L 18 15 L 17.5 15 L 17 15 L 17 14.5 L 17 14 L 17.5 14 ZM 18.5 14 L 19 14 L 19 14.5 L 19 14.75 A 0.25 0.25 0 0 1 18.75 15 L 18.5 15 L 18 15 L 18 14.5 L 18 14 L 18.5 14 ZM 20.5 14 L 21 14 L 21 14.5 L 21 15 L 20.5 15 L 20 15 L 20 14.5 L 20 14 L 20.5 14 ZM 22.5 14 L 23 14 L 23 14.5 L 23 15 L 22.5 15 L 22 15 L 22 14.5 L 22 14.25 A 0.25 0.25 0 0 1 22.25 14 L 22.5 14 ZM 23.5 14 L 24 14 L 24 14.5 L 24 14.75 A 0.25 0.25 0 0 1 23.75 15 L 23.5 15 L 23 15 L 23 14.5 L 23 14 L 23.5 14 ZM 25.5 14 L 26 14 L 26 14.5 L 26 14.75 A 0.25 0.25 0 0 1 25.75 15 L 25.5 15 L 25.25 15 A 0.25 0.25 0 0 1 25 14.75 L 25 14.5 L 25 14 L 25.5 14 ZM 28.5 14 L 29 14 L 29 14.5 L 29 15 L 28.5 15 L 28 15 L 28 14.5 L 28 14 L 28.5 14 ZM 30.5 14 L 30.75 14 A 0.25 0.25 0 0 1 31 14.25 L 31 14.5 L 31 14.75 A 0.25 0.25 0 0 1 30.75 15 L 30.5 15 L 30.25 15 A 0.25 0.25 0 0 1 30 14.75 L 30 14.5 L 30 14.25 A 0.25 0.25 0 0 1 30.25 14 L 30.5 14 ZM 2.5 15 L 3 15 L 3 15.5 L 3 15.75 A 0.25 0.25 0 0 1 2.75 16 L 2.5 16 L 2.25 16 A 0.25 0.25 0 0 1 2 15.75 L 2 15.5 L 2 15 L 2.5 15 ZM 4.5 15 L 5 15 L 5 15.5 L 5 16 L 4.5 16 L 4.25 16 A 0.25 0.25 0 0 1 4 15.75 L 4 15.5 L 4 15.25 A 0.25 0.25 0 0 1 4.25 15 L 4.5 15 ZM 5.5 15 L 5.75 15 A 0.25 0.25 0 0 1 6 15.25 L 6 15.5 L 6 16 L 5.5 16 L 5 16 L 5 15.5 L 5 15 L 5.5 15 ZM 7.5 15 L 7.75 15 A 0.25 0.25 0 0 1 8 15.25 L 8 15.5 L 8 15.75 A 0.25 0.25 0 0 1 7.75 16 L 7.5 16 L 7.25 16 A 0.25 0.25 0 0 1 7 15.75 L 7 15.5 L 7 15.25 A 0.25 0.25 0 0 1 7.25 15 L 7.5 15 ZM 9.5 15 L 10 15 L 10 15.5 L 10 16 L 9.5 16 L 9.25 16 A 0.25 0.25 0 0 1 9 15.75 L 9 15.5 L 9 15 L 9.5 15 ZM 10.5 15 L 11 15 L 11 15.5 L 11 15.75 A 0.25 0.25 0 0 1 10.75 16 L 10.5 16 L 10 16 L 10 15.5 L 10 15 L 10.5 15 ZM 12.5 15 L 13 15 L 13 15.5 L 13 15.75 A 0.25 0.25 0 0 1 12.75 16 L 12.5 16 L 12.25 16 A 0.25 0.25 0 0 1 12 15.75 L 12 15.5 L 12 15 L 12.5 15 ZM 14.5 15 L 14.75 15 A 0.25 0.25 0 0 1 15 15.25 L 15 15.5 L 15 16 L 14.5 16 L 14 16 L 14 15.5 L 14 15.25 A 0.25 0.25 0 0 1 14.25 15 L 14.5 15 ZM 19.5 15 L 20 15 L 20 15.5 L 20 16 L 19.5 16 L 19 16 L 19 15.5 L 19 15.25 A 0.25 0.25 0 0 1 19.25 15 L 19.5 15 ZM 20.5 15 L 21 15 L 21 15.5 L 21 15.75 A 0.25 0.25 0 0 1 20.75 16 L 20.5 16 L 20 16 L 20 15.5 L 20 15 L 20.5 15 ZM 22.5 15 L 23 15 L 23 15.5 L 23 16 L 22.5 16 L 22 16 L 22 15.5 L 22 15 L 22.5 15 ZM 28.5 15 L 29 15 L 29 15.5 L 29 16 L 28.5 16 L 28.25 16 A 0.25 0.25 0 0 1 28 15.75 L 28 15.5 L 28 15 L 28.5 15 ZM 29.5 15 L 29.75 15 A 0.25 0.25 0 0 1 30 15.25 L 30 15.5 L 30 15.75 A 0.25 0.25 0 0 1 29.75 16 L 29.5 16 L 29 16 L 29 15.5 L 29 15 L 29.5 15 ZM 31.5 15 L 31.75 15 A 0.25 0.25 0 0 1 32 15.25 L 32 15.5 L 32 16 L 31.5 16 L 31 16 L 31 15.5 L 31 15.25 A 0.25 0.25 0 0 1 31.25 15 L 31.5 15 ZM 1.5 16 L 1.75 16 A 0.25 0.25 0 0 1 2 16.25 L 2 16.5 L 2 16.75 A 0.25 0.25 0 0 1 1.75 17 L 1.5 17 L 1.25 17 A 0.25 0.25 0 0 1 1 16.75 L 1 16.5 L 1 16.25 A 0.25 0.25 0 0 1 1.25 16 L 1.5 16 ZM 5.5 16 L 6 16 L 6 16.5 L 6 16.75 A 0.25 0.25 0 0 1 5.75 17 L 5.5 17 L 5.25 17 A 0.25 0.25 0 0 1 5 16.75 L 5 16.5 L 5 16 L 5.5 16 ZM 11.5 16 L 11.75 16 A 0.25 0.25 0 0 1 12 16.25 L 12 16.5 L 12 17 L 11.5 17 L 11 17 L 11 16.5 L 11 16.25 A 0.25 0.25 0 0 1 11.25 16 L 11.5 16 ZM 13.5 16 L 14 16 L 14 16.5 L 14 17 L 13.5 17 L 13.25 17 A 0.25 0.25 0 0 1 13 16.75 L 13 16.5 L 13 16.25 A 0.25 0.25 0 0 1 13.25 16 L 13.5 16 ZM 14.5 16 L 15 16 L 15 16.5 L 15 17 L 14.5 17 L 14 17 L 14 16.5 L 14 16 L 14.5 16 ZM 16.5 16 L 17 16 L 17 16.5 L 17 17 L 16.5 17 L 16.25 17 A 0.25 0.25 0 0 1 16 16.75 L 16 16.5 L 16 16.25 A 0.25 0.25 0 0 1 16.25 16 L 16.5 16 ZM 17.5 16 L 17.75 16 A 0.25 0.25 0 0 1 18 16.25 L 18 16.5 L 18 17 L 17.5 17 L 17 17 L 17 16.5 L 17 16 L 17.5 16 ZM 19.5 16 L 20 16 L 20 16.5 L 20 16.75 A 0.25 0.25 0 0 1 19.75 17 L 19.5 17 L 19.25 17 A 0.25 0.25 0 0 1 19 16.75 L 19 16.5 L 19 16 L 19.5 16 ZM 21.5 16 L 22 16 L 22 16.5 L 22 17 L 21.5 17 L 21 17 L 21 16.5 L 21 16.25 A 0.25 0.25 0 0 1 21.25 16 L 21.5 16 ZM 22.5 16 L 23 16 L 23 16.5 L 23 17 L 22.5 17 L 22 17 L 22 16.5 L 22 16 L 22.5 16 ZM 23.5 16 L 23.75 16 A 0.25 0.25 0 0 1 24 16.25 L 24 16.5 L 24 16.75 A 0.25 0.25 0 0 1 23.75 17 L 23.5 17 L 23 17 L 23 16.5 L 23 16 L 23.5 16 ZM 30.5 16 L 31 16 L 31 16.5 L 31 17 L 30.5 17 L 30 17 L 30 16.5 L 30 16.25 A 0.25 0.25 0 0 1 30.25 16 L 30.5 16 ZM 31.5 16 L 32 16 L 32 16.5 L 32 17 L 31.5 17 L 31 17 L 31 16.5 L 31 16 L 31.5 16 ZM 33.5 16 L 33.75 16 A 0.25 0.25 0 0 1 34 16.25 L 34 16.5 L 34 17 L 33.5 17 L 33 17 L 33 16.5 L 33 16.25 A 0.25 0.25 0 0 1 33.25 16 L 33.5 16 ZM 2.5 17 L 2.75 17 A 0.25 0.25 0 0 1 3 17.25 L 3 17.5 L 3 18 L 2.5 18 L 2 18 L 2 17.5 L 2 17.25 A 0.25 0.25 0 0 1 2.25 17 L 2.5 17 ZM 4.5 17 L 4.75 17 A 0.25 0.25 0 0 1 5 17.25 L 5 17.5 L 5 17.75 A 0.25 0.25 0 0 1 4.75 18 L 4.5 18 L 4.25 18 A 0.25 0.25 0 0 1 4 17.75 L 4 17.5 L 4 17.25 A 0.25 0.25 0 0 1 4.25 17 L 4.5 17 ZM 7.5 17 L 8 17 L 8 17.5 L 8 18 L 7.5 18 L 7.25 18 A 0.25 0.25 0 0 1 7 17.75 L 7 17.5 L 7 17.25 A 0.25 0.25 0 0 1 7.25 17 L 7.5 17 ZM 8.5 17 L 8.75 17 A 0.25 0.25 0 0 1 9 17.25 L 9 17.5 L 9 17.75 A 0.25 0.25 0 0 1 8.75 18 L 8.5 18 L 8 18 L 8 17.5 L 8 17 L 8.5 17 ZM 11.5 17 L 12 17 L 12 17.5 L 12 18 L 11.5 18 L 11 18 L 11 17.5 L 11 17 L 11.5 17 ZM 14.5 17 L 15 17 L 15 17.5 L 15 18 L 14.5 18 L 14.25 18 A 0.25 0.25 0 0 1 14 17.75 L 14 17.5 L 14 17 L 14.5 17 ZM 15.5 17 L 15.75 17 A 0.25 0.25 0 0 1 16 17.25 L 16 17.5 L 16 17.75 A 0.25 0.25 0 0 1 15.75 18 L 15.5 18 L 15 18 L 15 17.5 L 15 17 L 15.5 17 ZM 17.5 17 L 18 17 L 18 17.5 L 18 18 L 17.5 18 L 17 18 L 17 17.5 L 17 17 L 17.5 17 ZM 20.5 17 L 21 17 L 21 17.5 L 21 18 L 20.5 18 L 20.25 18 A 0.25 0.25 0 0 1 20 17.75 L 20 17.5 L 20 17.25 A 0.25 0.25 0 0 1 20.25 17 L 20.5 17 ZM 21.5 17 L 22 17 L 22 17.5 L 22 18 L 21.5 18 L 21 18 L 21 17.5 L 21 17 L 21.5 17 ZM 22.5 17 L 23 17 L 23 17.5 L 23 18 L 22.5 18 L 22 18 L 22 17.5 L 22 17 L 22.5 17 ZM 24.5 17 L 25 17 L 25 17.5 L 25 18 L 24.5 18 L 24 18 L 24 17.5 L 24 17.25 A 0.25 0.25 0 0 1 24.25 17 L 24.5 17 ZM 25.5 17 L 26 17 L 26 17.5 L 26 18 L 25.5 18 L 25 18 L 25 17.5 L 25 17 L 25.5 17 ZM 26.5 17 L 27 17 L 27 17.5 L 27 18 L 26.5 18 L 26 18 L 26 17.5 L 26 17 L 26.5 17 ZM 27.5 17 L 27.75 17 A 0.25 0.25 0 0 1 28 17.25 L 28 17.5 L 28 18 L 27.5 18 L 27 18 L 27 17.5 L 27 17 L 27.5 17 ZM 29.5 17 L 30 17 L 30 17.5 L 30 18 L 29.5 18 L 29 18 L 29 17.5 L 29 17.25 A 0.25 0.25 0 0 1 29.25 17 L 29.5 17 ZM 30.5 17 L 31 17 L 31 17.5 L 31 18 L 30.5 18 L 30 18 L 30 17.5 L 30 17 L 30.5 17 ZM 31.5 17 L 32 17 L 32 17.5 L 32 18 L 31.5 18 L 31 18 L 31 17.5 L 31 17 L 31.5 17 ZM 33.5 17 L 34 17 L 34 17.5 L 34 18 L 33.5 18 L 33 18 L 33 17.5 L 33 17 L 33.5 17 ZM 2.5 18 L 3 18 L 3 18.5 L 3 19 L 2.5 19 L 2 19 L 2 18.5 L 2 18 L 2.5 18 ZM 5.5 18 L 5.75 18 A 0.25 0.25 0 0 1 6 18.25 L 6 18.5 L 6 18.75 A 0.25 0.25 0 0 1 5.75 19 L 5.5 19 L 5.25 19 A 0.25 0.25 0 0 1 5 18.75 L 5 18.5 L 5 18.25 A 0.25 0.25 0 0 1 5.25 18 L 5.5 18 ZM 9.5 18 L 9.75 18 A 0.25 0.25 0 0 1 10 18.25 L 10 18.5 L 10 19 L 9.5 19 L 9 19 L 9 18.5 L 9 18.25 A 0.25 0.25 0 0 1 9.25 18 L 9.5 18 ZM 11.5 18 L 12 18 L 12 18.5 L 12 19 L 11.5 19 L 11.25 19 A 0.25 0.25 0 0 1 11 18.75 L 11 18.5 L 11 18 L 11.5 18 ZM 12.5 18 L 13 18 L 13 18.5 L 13 19 L 12.5 19 L 12 19 L 12 18.5 L 12 18 L 12.5 18 ZM 13.5 18 L 13.75 18 A 0.25 0.25 0 0 1 14 18.25 L 14 18.5 L 14 18.75 A 0.25 0.25 0 0 1 13.75 19 L 13.5 19 L 13 19 L 13 18.5 L 13 18 L 13.5 18 ZM 16.5 18 L 17 18 L 17 18.5 L 17 19 L 16.5 19 L 16.25 19 A 0.25 0.25 0 0 1 16 18.75 L 16 18.5 L 16 18.25 A 0.25 0.25 0 0 1 16.25 18 L 16.5 18 ZM 17.5 18 L 18 18 L 18 18.5 L 18 19 L 17.5 19 L 17 19 L 17 18.5 L 17 18 L 17.5 18 ZM 22.5 18 L 23 18 L 23 18.5 L 23 19 L 22.5 19 L 22 19 L 22 18.5 L 22 18 L 22.5 18 ZM 23.5 18 L 24 18 L 24 18.5 L 24 19 L 23.5 19 L 23 19 L 23 18.5 L 23 18 L 23.5 18 ZM 24.5 18 L 25 18 L 25 18.5 L 25 18.75 A 0.25 0.25 0 0 1 24.75 19 L 24.5 19 L 24 19 L 24 18.5 L 24 18 L 24.5 18 ZM 26.5 18 L 27 18 L 27 18.5 L 27 19 L 26.5 19 L 26 19 L 26 18.5 L 26 18 L 26.5 18 ZM 27.5 18 L 28 18 L 28 18.5 L 28 19 L 27.5 19 L 27 19 L 27 18.5 L 27 18 L 27.5 18 ZM 28.5 18 L 29 18 L 29 18.5 L 29 19 L 28.5 19 L 28 19 L 28 18.5 L 28 18 L 28.5 18 ZM 29.5 18 L 30 18 L 30 18.5 L 30 18.75 A 0.25 0.25 0 0 1 29.75 19 L 29.5 19 L 29 19 L 29 18.5 L 29 18 L 29.5 18 ZM 31.5 18 L 32 18 L 32 18.5 L 32 19 L 31.5 19 L 31 19 L 31 18.5 L 31 18 L 31.5 18 ZM 33.5 18 L 34 18 L 34 18.5 L 34 18.75 A 0.25 0.25 0 0 1 33.75 19 L 33.5 19 L 33.25 19 A 0.25 0.25 0 0 1 33 18.75 L 33 18.5 L 33 18 L 33.5 18 ZM 1.5 19 L 2 19 L 2 19.5 L 2 20 L 1.5 20 L 1.25 20 A 0.25 0.25 0 0 1 1 19.75 L 1 19.5 L 1 19.25 A 0.25 0.25 0 0 1 1.25 19 L 1.5 19 ZM 2.5 19 L 3 19 L 3 19.5 L 3 20 L 2.5 20 L 2 20 L 2 19.5 L 2 19 L 2.5 19 ZM 3.5 19 L 3.75 19 A 0.25 0.25 0 0 1 4 19.25 L 4 19.5 L 4 19.75 A 0.25 0.25 0 0 1 3.75 20 L 3.5 20 L 3 20 L 3 19.5 L 3 19 L 3.5 19 ZM 7.5 19 L 7.75 19 A 0.25 0.25 0 0 1 8 19.25 L 8 19.5 L 8 19.75 A 0.25 0.25 0 0 1 7.75 20 L 7.5 20 L 7.25 20 A 0.25 0.25 0 0 1 7 19.75 L 7 19.5 L 7 19.25 A 0.25 0.25 0 0 1 7.25 19 L 7.5 19 ZM 9.5 19 L 10 19 L 10 19.5 L 10 20 L 9.5 20 L 9.25 20 A 0.25 0.25 0 0 1 9 19.75 L 9 19.5 L 9 19 L 9.5 19 ZM 10.5 19 L 10.75 19 A 0.25 0.25 0 0 1 11 19.25 L 11 19.5 L 11 20 L 10.5 20 L 10 20 L 10 19.5 L 10 19 L 10.5 19 ZM 12.5 19 L 13 19 L 13 19.5 L 13 20 L 12.5 20 L 12 20 L 12 19.5 L 12 19 L 12.5 19 ZM 15.5 19 L 15.75 19 A 0.25 0.25 0 0 1 16 19.25 L 16 19.5 L 16 19.75 A 0.25 0.25 0 0 1 15.75 20 L 15.5 20 L 15.25 20 A 0.25 0.25 0 0 1 15 19.75 L 15 19.5 L 15 19.25 A 0.25 0.25 0 0 1 15.25 19 L 15.5 19 ZM 17.5 19 L 18 19 L 18 19.5 L 18 20 L 17.5 20 L 17.25 20 A 0.25 0.25 0 0 1 17 19.75 L 17 19.5 L 17 19 L 17.5 19 ZM 18.5 19 L 19 19 L 19 19.5 L 19 20 L 18.5 20 L 18 20 L 18 19.5 L 18 19 L 18.5 19 ZM 19.5 19 L 20 19 L 20 19.5 L 20 20 L 19.5 20 L 19 20 L 19 19.5 L 19 19 L 19.5 19 ZM 20.5 19 L 21 19 L 21 19.5 L 21 20 L 20.5 20 L 20 20 L 20 19.5 L 20 19 L 20.5 19 ZM 21.5 19 L 22 19 L 22 19.5 L 22 20 L 21.5 20 L 21 20 L 21 19.5 L 21 19 L 21.5 19 ZM 22.5 19 L 23 19 L 23 19.5 L 23 20 L 22.5 20 L 22 20 L 22 19.5 L 22 19 L 22.5 19 ZM 23.5 19 L 24 19 L 24 19.5 L 24 20 L 23.5 20 L 23 20 L 23 19.5 L 23 19 L 23.5 19 ZM 26.5 19 L 27 19 L 27 19.5 L 27 20 L 26.5 20 L 26.25 20 A 0.25 0.25 0 0 1 26 19.75 L 26 19.5 L 26 19 L 26.5 19 ZM 27.5 19 L 28 19 L 28 19.5 L 28 20 L 27.5 20 L 27 20 L 27 19.5 L 27 19 L 27.5 19 ZM 28.5 19 L 29 19 L 29 19.5 L 29 20 L 28.5 20 L 28 20 L 28 19.5 L 28 19 L 28.5 19 ZM 31.5 19 L 32 19 L 32 19.5 L 32 20 L 31.5 20 L 31.25 20 A 0.25 0.25 0 0 1 31 19.75 L 31 19.5 L 31 19 L 31.5 19 ZM 32.5 19 L 32.75 19 A 0.25 0.25 0 0 1 33 19.25 L 33 19.5 L 33 20 L 32.5 20 L 32 20 L 32 19.5 L 32 19 L 32.5 19 ZM 2.5 20 L 3 20 L 3 20.5 L 3 20.75 A 0.25 0.25 0 0 1 2.75 21 L 2.5 21 L 2.25 21 A 0.25 0.25 0 0 1 2 20.75 L 2 20.5 L 2 20 L 2.5 20 ZM 4.5 20 L 5 20 L 5 20.5 L 5 21 L 4.5 21 L 4 21 L 4 20.5 L 4 20.25 A 0.25 0.25 0 0 1 4.25 20 L 4.5 20 ZM 5.5 20 L 6 20 L 6 20.5 L 6 21 L 5.5 21 L 5 21 L 5 20.5 L 5 20 L 5.5 20 ZM 6.5 20 L 6.75 20 A 0.25 0.25 0 0 1 7 20.25 L 7 20.5 L 7 20.75 A 0.25 0.25 0 0 1 6.75 21 L 6.5 21 L 6 21 L 6 20.5 L 6 20 L 6.5 20 ZM 10.5 20 L 11 20 L 11 20.5 L 11 21 L 10.5 21 L 10.25 21 A 0.25 0.25 0 0 1 10 20.75 L 10 20.5 L 10 20 L 10.5 20 ZM 11.5 20 L 12 20 L 12 20.5 L 12 21 L 11.5 21 L 11 21 L 11 20.5 L 11 20 L 11.5 20 ZM 12.5 20 L 13 20 L 13 20.5 L 13 20.75 A 0.25 0.25 0 0 1 12.75 21 L 12.5 21 L 12 21 L 12 20.5 L 12 20 L 12.5 20 ZM 14.5 20 L 14.75 20 A 0.25 0.25 0 0 1 15 20.25 L 15 20.5 L 15 20.75 A 0.25 0.25 0 0 1 14.75 21 L 14.5 21 L 14.25 21 A 0.25 0.25 0 0 1 14 20.75 L 14 20.5 L 14 20.25 A 0.25 0.25 0 0 1 14.25 20 L 14.5 20 ZM 18.5 20 L 19 20 L 19 20.5 L 19 21 L 18.5 21 L 18.25 21 A 0.25 0.25 0 0 1 18 20.75 L 18 20.5 L 18 20 L 18.5 20 ZM 19.5 20 L 20 20 L 20 20.5 L 20 20.75 A 0.25 0.25 0 0 1 19.75 21 L 19.5 21 L 19 21 L 19 20.5 L 19 20 L 19.5 20 ZM 21.5 20 L 22 20 L 22 20.5 L 22 21 L 21.5 21 L 21 21 L 21 20.5 L 21 20 L 21.5 20 ZM 23.5 20 L 24 20 L 24 20.5 L 24 20.75 A 0.25 0.25 0 0 1 23.75 21 L 23.5 21 L 23.25 21 A 0.25 0.25 0 0 1 23 20.75 L 23 20.5 L 23 20 L 23.5 20 ZM 27.5 20 L 28 20 L 28 20.5 L 28 21 L 27.5 21 L 27.25 21 A 0.25 0.25 0 0 1 27 20.75 L 27 20.5 L 27 20 L 27.5 20 ZM 28.5 20 L 29 20 L 29 20.5 L 29 21 L 28.5 21 L 28 21 L 28 20.5 L 28 20 L 28.5 20 ZM 29.5 20 L 29.75 20 A 0.25 0.25 0 0 1 30 20.25 L 30 20.5 L 30 20.75 A 0.25 0.25 0 0 1 29.75 21 L 29.5 21 L 29 21 L 29 20.5 L 29 20 L 29.5 20 ZM 32.5 20 L 33 20 L 33 20.5 L 33 21 L 32.5 21 L 32.25 21 A 0.25 0.25 0 0 1 32 20.75 L 32 20.5 L 32 20 L 32.5 20 ZM 33.5 20 L 33.75 20 A 0.25 0.25 0 0 1 34 20.25 L 34 20.5 L 34 20.75 A 0.25 0.25 0 0 1 33.75 21 L 33.5 21 L 33 21 L 33 20.5 L 33 20 L 33.5 20 ZM 1.5 21 L 1.75 21 A 0.25 0.25 0 0 1 2 21.25 L 2 21.5 L 2 22 L 1.5 22 L 1 22 L 1 21.5 L 1 21.25 A 0.25 0.25 0 0 1 1.25 21 L 1.5 21 ZM 4.5 21 L 5 21 L 5 21.5 L 5 22 L 4.5 22 L 4 22 L 4 21.5 L 4 21 L 4.5 21 ZM 7.5 21 L 8 21 L 8 21.5 L 8 22 L 7.5 22 L 7.25 22 A 0.25 0.25 0 0 1 7 21.75 L 7 21.5 L 7 21.25 A 0.25 0.25 0 0 1 7.25 21 L 7.5 21 ZM 8.5 21 L 9 21 L 9 21.5 L 9 22 L 8.5 22 L 8 22 L 8 21.5 L 8 21 L 8.5 21 ZM 9.5 21 L 9.75 21 A 0.25 0.25 0 0 1 10 21.25 L 10 21.5 L 10 22 L 9.5 22 L 9 22 L 9 21.5 L 9 21 L 9.5 21 ZM 13.5 21 L 13.75 21 A 0.25 0.25 0 0 1 14 21.25 L 14 21.5 L 14 22 L 13.5 22 L 13 22 L 13 21.5 L 13 21.25 A 0.25 0.25 0 0 1 13.25 21 L 13.5 21 ZM 16.5 21 L 16.75 21 A 0.25 0.25 0 0 1 17 21.25 L 17 21.5 L 17 21.75 A 0.25 0.25 0 0 1 16.75 22 L 16.5 22 L 16.25 22 A 0.25 0.25 0 0 1 16 21.75 L 16 21.5 L 16 21.25 A 0.25 0.25 0 0 1 16.25 21 L 16.5 21 ZM 21.5 21 L 22 21 L 22 21.5 L 22 22 L 21.5 22 L 21 22 L 21 21.5 L 21 21 L 21.5 21 ZM 22.5 21 L 22.75 21 A 0.25 0.25 0 0 1 23 21.25 L 23 21.5 L 23 22 L 22.5 22 L 22 22 L 22 21.5 L 22 21 L 22.5 21 ZM 26.5 21 L 26.75 21 A 0.25 0.25 0 0 1 27 21.25 L 27 21.5 L 27 21.75 A 0.25 0.25 0 0 1 26.75 22 L 26.5 22 L 26.25 22 A 0.25 0.25 0 0 1 26 21.75 L 26 21.5 L 26 21.25 A 0.25 0.25 0 0 1 26.25 21 L 26.5 21 ZM 30.5 21 L 31 21 L 31 21.5 L 31 22 L 30.5 22 L 30.25 22 A 0.25 0.25 0 0 1 30 21.75 L 30 21.5 L 30 21.25 A 0.25 0.25 0 0 1 30.25 21 L 30.5 21 ZM 31.5 21 L 31.75 21 A 0.25 0.25 0 0 1 32 21.25 L 32 21.5 L 32 22 L 31.5 22 L 31 22 L 31 21.5 L 31 21 L 31.5 21 ZM 1.5 22 L 2 22 L 2 22.5 L 2 23 L 1.5 23 L 1.25 23 A 0.25 0.25 0 0 1 1 22.75 L 1 22.5 L 1 22 L 1.5 22 ZM 2.5 22 L 3 22 L 3 22.5 L 3 23 L 2.5 23 L 2 23 L 2 22.5 L 2 22 L 2.5 22 ZM 3.5 22 L 4 22 L 4 22.5 L 4 23 L 3.5 23 L 3 23 L 3 22.5 L 3 22 L 3.5 22 ZM 4.5 22 L 5 22 L 5 22.5 L 5 23 L 4.5 23 L 4 23 L 4 22.5 L 4 22 L 4.5 22 ZM 5.5 22 L 6 22 L 6 22.5 L 6 23 L 5.5 23 L 5 23 L 5 22.5 L 5 22 L 5.5 22 ZM 6.5 22 L 6.75 22 A 0.25 0.25 0 0 1 7 22.25 L 7 22.5 L 7 23 L 6.5 23 L 6 23 L 6 22.5 L 6 22 L 6.5 22 ZM 8.5 22 L 9 22 L 9 22.5 L 9 23 L 8.5 23 L 8 23 L 8 22.5 L 8 22 L 8.5 22 ZM 9.5 22 L 10 22 L 10 22.5 L 10 22.75 A 0.25 0.25 0 0 1 9.75 23 L 9.5 23 L 9 23 L 9 22.5 L 9 22 L 9.5 22 ZM 11.5 22 L 12 22 L 12 22.5 L 12 23 L 11.5 23 L 11.25 23 A 0.25 0.25 0 0 1 11 22.75 L 11 22.5 L 11 22.25 A 0.25 0.25 0 0 1 11.25 22 L 11.5 22 ZM 12.5 22 L 13 22 L 13 22.5 L 13 23 L 12.5 23 L 12 23 L 12 22.5 L 12 22 L 12.5 22 ZM 13.5 22 L 14 22 L 14 22.5 L 14 23 L 13.5 23 L 13 23 L 13 22.5 L 13 22 L 13.5 22 ZM 14.5 22 L 15 22 L 15 22.5 L 15 23 L 14.5 23 L 14 23 L 14 22.5 L 14 22 L 14.5 22 ZM 15.5 22 L 15.75 22 A 0.25 0.25 0 0 1 16 22.25 L 16 22.5 L 16 22.75 A 0.25 0.25 0 0 1 15.75 23 L 15.5 23 L 15 23 L 15 22.5 L 15 22 L 15.5 22 ZM 17.5 22 L 17.75 22 A 0.25 0.25 0 0 1 18 22.25 L 18 22.5 L 18 23 L 17.5 23 L 17 23 L 17 22.5 L 17 22.25 A 0.25 0.25 0 0 1 17.25 22 L 17.5 22 ZM 19.5 22 L 20 22 L 20 22.5 L 20 23 L 19.5 23 L 19.25 23 A 0.25 0.25 0 0 1 19 22.75 L 19 22.5 L 19 22.25 A 0.25 0.25 0 0 1 19.25 22 L 19.5 22 ZM 20.5 22 L 21 22 L 21 22.5 L 21 23 L 20.5 23 L 20 23 L 20 22.5 L 20 22 L 20.5 22 ZM 21.5 22 L 22 22 L 22 22.5 L 22 23 L 21.5 23 L 21 23 L 21 22.5 L 21 22 L 21.5 22 ZM 22.5 22 L 23 22 L 23 22.5 L 23 23 L 22.5 23 L 22 23 L 22 22.5 L 22 22 L 22.5 22 ZM 24.5 22 L 24.75 22 A 0.25 0.25 0 0 1 25 22.25 L 25 22.5 L 25 23 L 24.5 23 L 24 23 L 24 22.5 L 24 22.25 A 0.25 0.25 0 0 1 24.25 22 L 24.5 22 ZM 27.5 22 L 27.75 22 A 0.25 0.25 0 0 1 28 22.25 L 28 22.5 L 28 23 L 27.5 23 L 27 23 L 27 22.5 L 27 22.25 A 0.25 0.25 0 0 1 27.25 22 L 27.5 22 ZM 31.5 22 L 32 22 L 32 22.5 L 32 23 L 31.5 23 L 31 23 L 31 22.5 L 31 22 L 31.5 22 ZM 32.5 22 L 33 22 L 33 22.5 L 33 23 L 32.5 23 L 32 23 L 32 22.5 L 32 22 L 32.5 22 ZM 33.5 22 L 33.75 22 A 0.25 0.25 0 0 1 34 22.25 L 34 22.5 L 34 23 L 33.5 23 L 33 23 L 33 22.5 L 33 22 L 33.5 22 ZM 4.5 23 L 5 23 L 5 23.5 L 5 23.75 A 0.25 0.25 0 0 1 4.75 24 L 4.5 24 L 4.25 24 A 0.25 0.25 0 0 1 4 23.75 L 4 23.5 L 4 23 L 4.5 23 ZM 6.5 23 L 7 23 L 7 23.5 L 7 24 L 6.5 24 L 6 24 L 6 23.5 L 6 23 L 6.5 23 ZM 7.5 23 L 8 23 L 8 23.5 L 8 24 L 7.5 24 L 7 24 L 7 23.5 L 7 23 L 7.5 23 ZM 8.5 23 L 9 23 L 9 23.5 L 9 24 L 8.5 24 L 8 24 L 8 23.5 L 8 23 L 8.5 23 ZM 13.5 23 L 14 23 L 14 23.5 L 14 23.75 A 0.25 0.25 0 0 1 13.75 24 L 13.5 24 L 13.25 24 A 0.25 0.25 0 0 1 13 23.75 L 13 23.5 L 13 23 L 13.5 23 ZM 17.5 23 L 18 23 L 18 23.5 L 18 23.75 A 0.25 0.25 0 0 1 17.75 24 L 17.5 24 L 17.25 24 A 0.25 0.25 0 0 1 17 23.75 L 17 23.5 L 17 23 L 17.5 23 ZM 20.5 23 L 21 23 L 21 23.5 L 21 23.75 A 0.25 0.25 0 0 1 20.75 24 L 20.5 24 L 20.25 24 A 0.25 0.25 0 0 1 20 23.75 L 20 23.5 L 20 23 L 20.5 23 ZM 22.5 23 L 23 23 L 23 23.5 L 23 24 L 22.5 24 L 22.25 24 A 0.25 0.25 0 0 1 22 23.75 L 22 23.5 L 22 23 L 22.5 23 ZM 23.5 23 L 24 23 L 24 23.5 L 24 24 L 23.5 24 L 23 24 L 23 23.5 L 23 23 L 23.5 23 ZM 24.5 23 L 25 23 L 25 23.5 L 25 24 L 24.5 24 L 24 24 L 24 23.5 L 24 23 L 24.5 23 ZM 27.5 23 L 28 23 L 28 23.5 L 28 24 L 27.5 24 L 27.25 24 A 0.25 0.25 0 0 1 27 23.75 L 27 23.5 L 27 23 L 27.5 23 ZM 28.5 23 L 28.75 23 A 0.25 0.25 0 0 1 29 23.25 L 29 23.5 L 29 24 L 28.5 24 L 28 24 L 28 23.5 L 28 23 L 28.5 23 ZM 30.5 23 L 31 23 L 31 23.5 L 31 24 L 30.5 24 L 30.25 24 A 0.25 0.25 0 0 1 30 23.75 L 30 23.5 L 30 23.25 A 0.25 0.25 0 0 1 30.25 23 L 30.5 23 ZM 31.5 23 L 32 23 L 32 23.5 L 32 24 L 31.5 24 L 31 24 L 31 23.5 L 31 23 L 31.5 23 ZM 32.5 23 L 33 23 L 33 23.5 L 33 24 L 32.5 24 L 32 24 L 32 23.5 L 32 23 L 32.5 23 ZM 33.5 23 L 34 23 L 34 23.5 L 34 24 L 33.5 24 L 33 24 L 33 23.5 L 33 23 L 33.5 23 ZM 2.5 24 L 3 24 L 3 24.5 L 3 25 L 2.5 25 L 2.25 25 A 0.25 0.25 0 0 1 2 24.75 L 2 24.5 L 2 24.25 A 0.25 0.25 0 0 1 2.25 24 L 2.5 24 ZM 3.5 24 L 3.75 24 A 0.25 0.25 0 0 1 4 24.25 L 4 24.5 L 4 24.75 A 0.25 0.25 0 0 1 3.75 25 L 3.5 25 L 3 25 L 3 24.5 L 3 24 L 3.5 24 ZM 5.5 24 L 6 24 L 6 24.5 L 6 25 L 5.5 25 L 5.25 25 A 0.25 0.25 0 0 1 5 24.75 L 5 24.5 L 5 24.25 A 0.25 0.25 0 0 1 5.25 24 L 5.5 24 ZM 6.5 24 L 7 24 L 7 24.5 L 7 24.75 A 0.25 0.25 0 0 1 6.75 25 L 6.5 25 L 6 25 L 6 24.5 L 6 24 L 6.5 24 ZM 8.5 24 L 9 24 L 9 24.5 L 9 24.75 A 0.25 0.25 0 0 1 8.75 25 L 8.5 25 L 8.25 25 A 0.25 0.25 0 0 1 8 24.75 L 8 24.5 L 8 24 L 8.5 24 ZM 11.5 24 L 11.75 24 A 0.25 0.25 0 0 1 12 24.25 L 12 24.5 L 12 25 L 11.5 25 L 11 25 L 11 24.5 L 11 24.25 A 0.25 0.25 0 0 1 11.25 24 L 11.5 24 ZM 14.5 24 L 14.75 24 A 0.25 0.25 0 0 1 15 24.25 L 15 24.5 L 15 24.75 A 0.25 0.25 0 0 1 14.75 25 L 14.5 25 L 14.25 25 A 0.25 0.25 0 0 1 14 24.75 L 14 24.5 L 14 24.25 A 0.25 0.25 0 0 1 14.25 24 L 14.5 24 ZM 16.5 24 L 16.75 24 A 0.25 0.25 0 0 1 17 24.25 L 17 24.5 L 17 25 L 16.5 25 L 16 25 L 16 24.5 L 16 24.25 A 0.25 0.25 0 0 1 16.25 24 L 16.5 24 ZM 21.5 24 L 21.75 24 A 0.25 0.25 0 0 1 22 24.25 L 22 24.5 L 22 25 L 21.5 25 L 21 25 L 21 24.5 L 21 24.25 A 0.25 0.25 0 0 1 21.25 24 L 21.5 24 ZM 23.5 24 L 24 24 L 24 24.5 L 24 25 L 23.5 25 L 23 25 L 23 24.5 L 23 24 L 23.5 24 ZM 24.5 24 L 25 24 L 25 24.5 L 25 25 L 24.5 25 L 24 25 L 24 24.5 L 24 24 L 24.5 24 ZM 25.5 24 L 26 24 L 26 24.5 L 26 25 L 25.5 25 L 25 25 L 25 24.5 L 25 24 L 25.5 24 ZM 26.5 24 L 26.75 24 A 0.25 0.25 0 0 1 27 24.25 L 27 24.5 L 27 25 L 26.5 25 L 26 25 L 26 24.5 L 26 24 L 26.5 24 ZM 28.5 24 L 29 24 L 29 24.5 L 29 25 L 28.5 25 L 28 25 L 28 24.5 L 28 24 L 28.5 24 ZM 32.5 24 L 33 24 L 33 24.5 L 33 25 L 32.5 25 L 32.25 25 A 0.25 0.25 0 0 1 32 24.75 L 32 24.5 L 32 24 L 32.5 24 ZM 33.5 24 L 34 24 L 34 24.5 L 34 24.75 A 0.25 0.25 0 0 1 33.75 25 L 33.5 25 L 33 25 L 33 24.5 L 33 24 L 33.5 24 ZM 1.5 25 L 1.75 25 A 0.25 0.25 0 0 1 2 25.25 L 2 25.5 L 2 25.75 A 0.25 0.25 0 0 1 1.75 26 L 1.5 26 L 1.25 26 A 0.25 0.25 0 0 1 1 25.75 L 1 25.5 L 1 25.25 A 0.25 0.25 0 0 1 1.25 25 L 1.5 25 ZM 7.5 25 L 7.75 25 A 0.25 0.25 0 0 1 8 25.25 L 8 25.5 L 8 25.75 A 0.25 0.25 0 0 1 7.75 26 L 7.5 26 L 7.25 26 A 0.25 0.25 0 0 1 7 25.75 L 7 25.5 L 7 25.25 A 0.25 0.25 0 0 1 7.25 25 L 7.5 25 ZM 9.5 25 L 10 25 L 10 25.5 L 10 26 L 9.5 26 L 9 26 L 9 25.5 L 9 25.25 A 0.25 0.25 0 0 1 9.25 25 L 9.5 25 ZM 10.5 25 L 11 25 L 11 25.5 L 11 26 L 10.5 26 L 10 26 L 10 25.5 L 10 25 L 10.5 25 ZM 11.5 25 L 12 25 L 12 25.5 L 12 26 L 11.5 26 L 11 26 L 11 25.5 L 11 25 L 11.5 25 ZM 13.5 25 L 13.75 25 A 0.25 0.25 0 0 1 14 25.25 L 14 25.5 L 14 26 L 13.5 26 L 13 26 L 13 25.5 L 13 25.25 A 0.25 0.25 0 0 1 13.25 25 L 13.5 25 ZM 16.5 25 L 17 25 L 17 25.5 L 17 26 L 16.5 26 L 16 26 L 16 25.5 L 16 25 L 16.5 25 ZM 17.5 25 L 18 25 L 18 25.5 L 18 26 L 17.5 26 L 17 26 L 17 25.5 L 17 25 L 17.5 25 ZM 18.5 25 L 19 25 L 19 25.5 L 19 26 L 18.5 26 L 18 26 L 18 25.5 L 18 25 L 18.5 25 ZM 19.5 25 L 20 25 L 20 25.5 L 20 26 L 19.5 26 L 19 26 L 19 25.5 L 19 25 L 19.5 25 ZM 20.5 25 L 21 25 L 21 25.5 L 21 26 L 20.5 26 L 20 26 L 20 25.5 L 20 25 L 20.5 25 ZM 21.5 25 L 22 25 L 22 25.5 L 22 25.75 A 0.25 0.25 0 0 1 21.75 26 L 21.5 26 L 21 26 L 21 25.5 L 21 25 L 21.5 25 ZM 23.5 25 L 24 25 L 24 25.5 L 24 26 L 23.5 26 L 23.25 26 A 0.25 0.25 0 0 1 23 25.75 L 23 25.5 L 23 25 L 23.5 25 ZM 24.5 25 L 25 25 L 25 25.5 L 25 26 L 24.5 26 L 24 26 L 24 25.5 L 24 25 L 24.5 25 ZM 25.5 25 L 26 25 L 26 25.5 L 26 26 L 25.5 26 L 25 26 L 25 25.5 L 25 25 L 25.5 25 ZM 26.5 25 L 27 25 L 27 25.5 L 27 26 L 26.5 26 L 26 26 L 26 25.5 L 26 25 L 26.5 25 ZM 27.5 25 L 28 25 L 28 25.5 L 28 26 L 27.5 26 L 27 26 L 27 25.5 L 27 25 L 27.5 25 ZM 28.5 25 L 29 25 L 29 25.5 L 29 26 L 28.5 26 L 28 26 L 28 25.5 L 28 25 L 28.5 25 ZM 29.5 25 L 29.75 25 A 0.25 0.25 0 0 1 30 25.25 L 30 25.5 L 30 26 L 29.5 26 L 29 26 L 29 25.5 L 29 25 L 29.5 25 ZM 9.5 26 L 10 26 L 10 26.5 L 10 27 L 9.5 27 L 9 27 L 9 26.5 L 9 26 L 9.5 26 ZM 11.5 26 L 12 26 L 12 26.5 L 12 26.75 A 0.25 0.25 0 0 1 11.75 27 L 11.5 27 L 11.25 27 A 0.25 0.25 0 0 1 11 26.75 L 11 26.5 L 11 26 L 11.5 26 ZM 13.5 26 L 14 26 L 14 26.5 L 14 27 L 13.5 27 L 13 27 L 13 26.5 L 13 26 L 13.5 26 ZM 16.5 26 L 17 26 L 17 26.5 L 17 26.75 A 0.25 0.25 0 0 1 16.75 27 L 16.5 27 L 16.25 27 A 0.25 0.25 0 0 1 16 26.75 L 16 26.5 L 16 26 L 16.5 26 ZM 18.5 26 L 19 26 L 19 26.5 L 19 27 L 18.5 27 L 18 27 L 18 26.5 L 18 26 L 18.5 26 ZM 20.5 26 L 21 26 L 21 26.5 L 21 27 L 20.5 27 L 20 27 L 20 26.5 L 20 26 L 20.5 26 ZM 25.5 26 L 26 26 L 26 26.5 L 26 27 L 25.5 27 L 25 27 L 25 26.5 L 25 26 L 25.5 26 ZM 29.5 26 L 30 26 L 30 26.5 L 30 27 L 29.5 27 L 29 27 L 29 26.5 L 29 26 L 29.5 26 ZM 30.5 26 L 31 26 L 31 26.5 L 31 27 L 30.5 27 L 30 27 L 30 26.5 L 30 26 L 30.5 26 ZM 31.5 26 L 32 26 L 32 26.5 L 32 27 L 31.5 27 L 31 27 L 31 26.5 L 31 26 L 31.5 26 ZM 32.5 26 L 32.75 26 A 0.25 0.25 0 0 1 33 26.25 L 33 26.5 L 33 26.75 A 0.25 0.25 0 0 1 32.75 27 L 32.5 27 L 32 27 L 32 26.5 L 32 26 L 32.5 26 ZM 9.5 27 L 10 27 L 10 27.5 L 10 27.75 A 0.25 0.25 0 0 1 9.75 28 L 9.5 28 L 9.25 28 A 0.25 0.25 0 0 1 9 27.75 L 9 27.5 L 9 27 L 9.5 27 ZM 12.5 27 L 13 27 L 13 27.5 L 13 28 L 12.5 28 L 12.25 28 A 0.25 0.25 0 0 1 12 27.75 L 12 27.5 L 12 27.25 A 0.25 0.25 0 0 1 12.25 27 L 12.5 27 ZM 13.5 27 L 14 27 L 14 27.5 L 14 28 L 13.5 28 L 13 28 L 13 27.5 L 13 27 L 13.5 27 ZM 14.5 27 L 14.75 27 A 0.25 0.25 0 0 1 15 27.25 L 15 27.5 L 15 27.75 A 0.25 0.25 0 0 1 14.75 28 L 14.5 28 L 14 28 L 14 27.5 L 14 27 L 14.5 27 ZM 17.5 27 L 18 27 L 18 27.5 L 18 28 L 17.5 28 L 17.25 28 A 0.25 0.25 0 0 1 17 27.75 L 17 27.5 L 17 27.25 A 0.25 0.25 0 0 1 17.25 27 L 17.5 27 ZM 18.5 27 L 19 27 L 19 27.5 L 19 28 L 18.5 28 L 18 28 L 18 27.5 L 18 27 L 18.5 27 ZM 19.5 27 L 20 27 L 20 27.5 L 20 28 L 19.5 28 L 19 28 L 19 27.5 L 19 27 L 19.5 27 ZM 20.5 27 L 21 27 L 21 27.5 L 21 28 L 20.5 28 L 20 28 L 20 27.5 L 20 27 L 20.5 27 ZM 21.5 27 L 21.75 27 A 0.25 0.25 0 0 1 22 27.25 L 22 27.5 L 22 28 L 21.5 28 L 21 28 L 21 27.5 L 21 27 L 21.5 27 ZM 23.5 27 L 24 27 L 24 27.5 L 24 28 L 23.5 28 L 23.25 28 A 0.25 0.25 0 0 1 23 27.75 L 23 27.5 L 23 27.25 A 0.25 0.25 0 0 1 23.25 27 L 23.5 27 ZM 24.5 27 L 25 27 L 25 27.5 L 25 28 L 24.5 28 L 24 28 L 24 27.5 L 24 27 L 24.5 27 ZM 25.5 27 L 26 27 L 26 27.5 L 26 28 L 25.5 28 L 25 28 L 25 27.5 L 25 27 L 25.5 27 ZM 27.5 27 L 27.75 27 A 0.25 0.25 0 0 1 28 27.25 L 28 27.5 L 28 27.75 A 0.25 0.25 0 0 1 27.75 28 L 27.5 28 L 27.25 28 A 0.25 0.25 0 0 1 27 27.75 L 27 27.5 L 27 27.25 A 0.25 0.25 0 0 1 27.25 27 L 27.5 27 ZM 29.5 27 L 30 27 L 30 27.5 L 30 28 L 29.5 28 L 29 28 L 29 27.5 L 29 27 L 29.5 27 ZM 30.5 27 L 31 27 L 31 27.5 L 31 28 L 30.5 28 L 30 28 L 30 27.5 L 30 27 L 30.5 27 ZM 10.5 28 L 11 28 L 11 28.5 L 11 29 L 10.5 29 L 10.25 29 A 0.25 0.25 0 0 1 10 28.75 L 10 28.5 L 10 28.25 A 0.25 0.25 0 0 1 10.25 28 L 10.5 28 ZM 11.5 28 L 11.75 28 A 0.25 0.25 0 0 1 12 28.25 L 12 28.5 L 12 28.75 A 0.25 0.25 0 0 1 11.75 29 L 11.5 29 L 11 29 L 11 28.5 L 11 28 L 11.5 28 ZM 20.5 28 L 21 28 L 21 28.5 L 21 29 L 20.5 29 L 20 29 L 20 28.5 L 20 28 L 20.5 28 ZM 21.5 28 L 22 28 L 22 28.5 L 22 29 L 21.5 29 L 21 29 L 21 28.5 L 21 28 L 21.5 28 ZM 22.5 28 L 22.75 28 A 0.25 0.25 0 0 1 23 28.25 L 23 28.5 L 23 28.75 A 0.25 0.25 0 0 1 22.75 29 L 22.5 29 L 22 29 L 22 28.5 L 22 28 L 22.5 28 ZM 24.5 28 L 25 28 L 25 28.5 L 25 29 L 24.5 29 L 24 29 L 24 28.5 L 24 28 L 24.5 28 ZM 25.5 28 L 26 28 L 26 28.5 L 26 29 L 25.5 29 L 25 29 L 25 28.5 L 25 28 L 25.5 28 ZM 29.5 28 L 30 28 L 30 28.5 L 30 29 L 29.5 29 L 29 29 L 29 28.5 L 29 28 L 29.5 28 ZM 30.5 28 L 31 28 L 31 28.5 L 31 29 L 30.5 29 L 30 29 L 30 28.5 L 30 28 L 30.5 28 ZM 31.5 28 L 32 28 L 32 28.5 L 32 29 L 31.5 29 L 31 29 L 31 28.5 L 31 28 L 31.5 28 ZM 32.5 28 L 33 28 L 33 28.5 L 33 29 L 32.5 29 L 32 29 L 32 28.5 L 32 28 L 32.5 28 ZM 33.5 28 L 33.75 28 A 0.25 0.25 0 0 1 34 28.25 L 34 28.5 L 34 28.75 A 0.25 0.25 0 0 1 33.75 29 L 33.5 29 L 33 29 L 33 28.5 L 33 28 L 33.5 28 ZM 14.5 29 L 14.75 29 A 0.25 0.25 0 0 1 15 29.25 L 15 29.5 L 15 30 L 14.5 30 L 14 30 L 14 29.5 L 14 29.25 A 0.25 0.25 0 0 1 14.25 29 L 14.5 29 ZM 16.5 29 L 17 29 L 17 29.5 L 17 30 L 16.5 30 L 16.25 30 A 0.25 0.25 0 0 1 16 29.75 L 16 29.5 L 16 29.25 A 0.25 0.25 0 0 1 16.25 29 L 16.5 29 ZM 17.5 29 L 18 29 L 18 29.5 L 18 30 L 17.5 30 L 17 30 L 17 29.5 L 17 29 L 17.5 29 ZM 18.5 29 L 18.75 29 A 0.25 0.25 0 0 1 19 29.25 L 19 29.5 L 19 29.75 A 0.25 0.25 0 0 1 18.75 30 L 18.5 30 L 18 30 L 18 29.5 L 18 29 L 18.5 29 ZM 20.5 29 L 21 29 L 21 29.5 L 21 30 L 20.5 30 L 20.25 30 A 0.25 0.25 0 0 1 20 29.75 L 20 29.5 L 20 29 L 20.5 29 ZM 21.5 29 L 22 29 L 22 29.5 L 22 30 L 21.5 30 L 21 30 L 21 29.5 L 21 29 L 21.5 29 ZM 24.5 29 L 25 29 L 25 29.5 L 25 30 L 24.5 30 L 24 30 L 24 29.5 L 24 29 L 24.5 29 ZM 25.5 29 L 26 29 L 26 29.5 L 26 30 L 25.5 30 L 25 30 L 25 29.5 L 25 29 L 25.5 29 ZM 26.5 29 L 27 29 L 27 29.5 L 27 30 L 26.5 30 L 26 30 L 26 29.5 L 26 29 L 26.5 29 ZM 27.5 29 L 28 29 L 28 29.5 L 28 30 L 27.5 30 L 27 30 L 27 29.5 L 27 29 L 27.5 29 ZM 28.5 29 L 29 29 L 29 29.5 L 29 30 L 28.5 30 L 28 30 L 28 29.5 L 28 29 L 28.5 29 ZM 29.5 29 L 30 29 L 30 29.5 L 30 30 L 29.5 30 L 29 30 L 29 29.5 L 29 29 L 29.5 29 ZM 30.5 29 L 31 29 L 31 29.5 L 31 30 L 30.5 30 L 30 30 L 30 29.5 L 30 29 L 30.5 29 ZM 31.5 29 L 32 29 L 32 29.5 L 32 30 L 31.5 30 L 31 30 L 31 29.5 L 31 29 L 31.5 29 ZM 32.5 29 L 33 29 L 33 29.5 L 33 30 L 32.5 30 L 32 30 L 32 29.5 L 32 29 L 32.5 29 ZM 9.5 30 L 10 30 L 10 30.5 L 10 31 L 9.5 31 L 9 31 L 9 30.5 L 9 30.25 A 0.25 0.25 0 0 1 9.25 30 L 9.5 30 ZM 10.5 30 L 11 30 L 11 30.5 L 11 31 L 10.5 31 L 10 31 L 10 30.5 L 10 30 L 10.5 30 ZM 11.5 30 L 11.75 30 A 0.25 0.25 0 0 1 12 30.25 L 12 30.5 L 12 31 L 11.5 31 L 11 31 L 11 30.5 L 11 30 L 11.5 30 ZM 14.5 30 L 15 30 L 15 30.5 L 15 31 L 14.5 31 L 14.25 31 A 0.25 0.25 0 0 1 14 30.75 L 14 30.5 L 14 30 L 14.5 30 ZM 15.5 30 L 15.75 30 A 0.25 0.25 0 0 1 16 30.25 L 16 30.5 L 16 30.75 A 0.25 0.25 0 0 1 15.75 31 L 15.5 31 L 15 31 L 15 30.5 L 15 30 L 15.5 30 ZM 21.5 30 L 22 30 L 22 30.5 L 22 30.75 A 0.25 0.25 0 0 1 21.75 31 L 21.5 31 L 21.25 31 A 0.25 0.25 0 0 1 21 30.75 L 21 30.5 L 21 30 L 21.5 30 ZM 23.5 30 L 24 30 L 24 30.5 L 24 31 L 23.5 31 L 23 31 L 23 30.5 L 23 30.25 A 0.25 0.25 0 0 1 23.25 30 L 23.5 30 ZM 24.5 30 L 25 30 L 25 30.5 L 25 31 L 24.5 31 L 24 31 L 24 30.5 L 24 30 L 24.5 30 ZM 28.5 30 L 29 30 L 29 30.5 L 29 30.75 A 0.25 0.25 0 0 1 28.75 31 L 28.5 31 L 28.25 31 A 0.25 0.25 0 0 1 28 30.75 L 28 30.5 L 28 30 L 28.5 30 ZM 32.5 30 L 33 30 L 33 30.5 L 33 31 L 32.5 31 L 32.25 31 A 0.25 0.25 0 0 1 32 30.75 L 32 30.5 L 32 30 L 32.5 30 ZM 33.5 30 L 33.75 30 A 0.25 0.25 0 0 1 34 30.25 L 34 30.5 L 34 30.75 A 0.25 0.25 0 0 1 33.75 31 L 33.5 31 L 33 31 L 33 30.5 L 33 30 L 33.5 30 ZM 9.5 31 L 10 31 L 10 31.5 L 10 31.75 A 0.25 0.25 0 0 1 9.75 32 L 9.5 32 L 9.25 32 A 0.25 0.25 0 0 1 9 31.75 L 9 31.5 L 9 31 L 9.5 31 ZM 11.5 31 L 12 31 L 12 31.5 L 12 32 L 11.5 32 L 11.25 32 A 0.25 0.25 0 0 1 11 31.75 L 11 31.5 L 11 31 L 11.5 31 ZM 12.5 31 L 13 31 L 13 31.5 L 13 32 L 12.5 32 L 12 32 L 12 31.5 L 12 31 L 12.5 31 ZM 13.5 31 L 13.75 31 A 0.25 0.25 0 0 1 14 31.25 L 14 31.5 L 14 31.75 A 0.25 0.25 0 0 1 13.75 32 L 13.5 32 L 13 32 L 13 31.5 L 13 31 L 13.5 31 ZM 16.5 31 L 17 31 L 17 31.5 L 17 32 L 16.5 32 L 16 32 L 16 31.5 L 16 31.25 A 0.25 0.25 0 0 1 16.25 31 L 16.5 31 ZM 17.5 31 L 18 31 L 18 31.5 L 18 32 L 17.5 32 L 17 32 L 17 31.5 L 17 31 L 17.5 31 ZM 18.5 31 L 18.75 31 A 0.25 0.25 0 0 1 19 31.25 L 19 31.5 L 19 32 L 18.5 32 L 18 32 L 18 31.5 L 18 31 L 18.5 31 ZM 23.5 31 L 24 31 L 24 31.5 L 24 32 L 23.5 32 L 23.25 32 A 0.25 0.25 0 0 1 23 31.75 L 23 31.5 L 23 31 L 23.5 31 ZM 24.5 31 L 25 31 L 25 31.5 L 25 32 L 24.5 32 L 24 32 L 24 31.5 L 24 31 L 24.5 31 ZM 25.5 31 L 26 31 L 26 31.5 L 26 32 L 25.5 32 L 25 32 L 25 31.5 L 25 31 L 25.5 31 ZM 26.5 31 L 27 31 L 27 31.5 L 27 32 L 26.5 32 L 26 32 L 26 31.5 L 26 31 L 26.5 31 ZM 27.5 31 L 27.75 31 A 0.25 0.25 0 0 1 28 31.25 L 28 31.5 L 28 31.75 A 0.25 0.25 0 0 1 27.75 32 L 27.5 32 L 27 32 L 27 31.5 L 27 31 L 27.5 31 ZM 30.5 31 L 30.75 31 A 0.25 0.25 0 0 1 31 31.25 L 31 31.5 L 31 31.75 A 0.25 0.25 0 0 1 30.75 32 L 30.5 32 L 30.25 32 A 0.25 0.25 0 0 1 30 31.75 L 30 31.5 L 30 31.25 A 0.25 0.25 0 0 1 30.25 31 L 30.5 31 ZM 10.5 32 L 10.75 32 A 0.25 0.25 0 0 1 11 32.25 L 11 32.5 L 11 33 L 10.5 33 L 10 33 L 10 32.5 L 10 32.25 A 0.25 0.25 0 0 1 10.25 32 L 10.5 32 ZM 12.5 32 L 13 32 L 13 32.5 L 13 32.75 A 0.25 0.25 0 0 1 12.75 33 L 12.5 33 L 12.25 33 A 0.25 0.25 0 0 1 12 32.75 L 12 32.5 L 12 32 L 12.5 32 ZM 14.5 32 L 14.75 32 A 0.25 0.25 0 0 1 15 32.25 L 15 32.5 L 15 32.75 A 0.25 0.25 0 0 1 14.75 33 L 14.5 33 L 14.25 33 A 0.25 0.25 0 0 1 14 32.75 L 14 32.5 L 14 32.25 A 0.25 0.25 0 0 1 14.25 32 L 14.5 32 ZM 16.5 32 L 17 32 L 17 32.5 L 17 32.75 A 0.25 0.25 0 0 1 16.75 33 L 16.5 33 L 16.25 33 A 0.25 0.25 0 0 1 16 32.75 L 16 32.5 L 16 32 L 16.5 32 ZM 18.5 32 L 19 32 L 19 32.5 L 19 32.75 A 0.25 0.25 0 0 1 18.75 33 L 18.5 33 L 18.25 33 A 0.25 0.25 0 0 1 18 32.75 L 18 32.5 L 18 32 L 18.5 32 ZM 21.5 32 L 21.75 32 A 0.25 0.25 0 0 1 22 32.25 L 22 32.5 L 22 32.75 A 0.25 0.25 0 0 1 21.75 33 L 21.5 33 L 21.25 33 A 0.25 0.25 0 0 1 21 32.75 L 21 32.5 L 21 32.25 A 0.25 0.25 0 0 1 21.25 32 L 21.5 32 ZM 24.5 32 L 25 32 L 25 32.5 L 25 33 L 24.5 33 L 24 33 L 24 32.5 L 24 32 L 24.5 32 ZM 25.5 32 L 26 32 L 26 32.5 L 26 33 L 25.5 33 L 25 33 L 25 32.5 L 25 32 L 25.5 32 ZM 26.5 32 L 27 32 L 27 32.5 L 27 32.75 A 0.25 0.25 0 0 1 26.75 33 L 26.5 33 L 26 33 L 26 32.5 L 26 32 L 26.5 32 ZM 33.5 32 L 33.75 32 A 0.25 0.25 0 0 1 34 32.25 L 34 32.5 L 34 32.75 A 0.25 0.25 0 0 1 33.75 33 L 33.5 33 L 33.25 33 A 0.25 0.25 0 0 1 33 32.75 L 33 32.5 L 33 32.25 A 0.25 0.25 0 0 1 33.25 32 L 33.5 32 ZM 10.5 33 L 11 33 L 11 33.5 L 11 34 L 10.5 34 L 10.25 34 A 0.25 0.25 0 0 1 10 33.75 L 10 33.5 L 10 33 L 10.5 33 ZM 11.5 33 L 11.75 33 A 0.25 0.25 0 0 1 12 33.25 L 12 33.5 L 12 33.75 A 0.25 0.25 0 0 1 11.75 34 L 11.5 34 L 11 34 L 11 33.5 L 11 33 L 11.5 33 ZM 13.5 33 L 13.75 33 A 0.25 0.25 0 0 1 14 33.25 L 14 33.5 L 14 33.75 A 0.25 0.25 0 0 1 13.75 34 L 13.5 34 L 13.25 34 A 0.25 0.25 0 0 1 13 33.75 L 13 33.5 L 13 33.25 A 0.25 0.25 0 0 1 13.25 33 L 13.5 33 ZM 15.5 33 L 15.75 33 A 0.25 0.25 0 0 1 16 33.25 L 16 33.5 L 16 33.75 A 0.25 0.25 0 0 1 15.75 34 L 15.5 34 L 15.25 34 A 0.25 0.25 0 0 1 15 33.75 L 15 33.5 L 15 33.25 A 0.25 0.25 0 0 1 15.25 33 L 15.5 33 ZM 17.5 33 L 17.75 33 A 0.25 0.25 0 0 1 18 33.25 L 18 33.5 L 18 33.75 A 0.25 0.25 0 0 1 17.75 34 L 17.5 34 L 17.25 34 A 0.25 0.25 0 0 1 17 33.75 L 17 33.5 L 17 33.25 A 0.25 0.25 0 0 1 17.25 33 L 17.5 33 ZM 20.5 33 L 20.75 33 A 0.25 0.25 0 0 1 21 33.25 L 21 33.5 L 21 33.75 A 0.25 0.25 0 0 1 20.75 34 L 20.5 34 L 20.25 34 A 0.25 0.25 0 0 1 20 33.75 L 20 33.5 L 20 33.25 A 0.25 0.25 0 0 1 20.25 33 L 20.5 33 ZM 22.5 33 L 22.75 33 A 0.25 0.25 0 0 1 23 33.25 L 23 33.5 L 23 33.75 A 0.25 0.25 0 0 1 22.75 34 L 22.5 34 L 22.25 34 A 0.25 0.25 0 0 1 22 33.75 L 22 33.5 L 22 33.25 A 0.25 0.25 0 0 1 22.25 33 L 22.5 33 ZM 24.5 33 L 25 33 L 25 33.5 L 25 33.75 A 0.25 0.25 0 0 1 24.75 34 L 24.5 34 L 24.25 34 A 0.25 0.25 0 0 1 24 33.75 L 24 33.5 L 24 33 L 24.5 33 ZM 27.5 33 L 28 33 L 28 33.5 L 28 34 L 27.5 34 L 27.25 34 A 0.25 0.25 0 0 1 27 33.75 L 27 33.5 L 27 33.25 A 0.25 0.25 0 0 1 27.25 33 L 27.5 33 ZM 28.5 33 L 29 33 L 29 33.5 L 29 34 L 28.5 34 L 28 34 L 28 33.5 L 28 33 L 28.5 33 ZM 29.5 33 L 29.75 33 A 0.25 0.25 0 0 1 30 33.25 L 30 33.5 L 30 33.75 A 0.25 0.25 0 0 1 29.75 34 L 29.5 34 L 29 34 L 29 33.5 L 29 33 L 29.5 33 ZM 31.5 33 L 31.75 33 A 0.25 0.25 0 0 1 32 33.25 L 32 33.5 L 32 33.75 A 0.25 0.25 0 0 1 31.75 34 L 31.5 34 L 31.25 34 A 0.25 0.25 0 0 1 31 33.75 L 31 33.5 L 31 33.25 A 0.25 0.25 0 0 1 31.25 33 L 31.5 33 Z" /></g>
        </mask>
        <rect width="35" height="35" fill="url(#grad-dots)" mask="url(#mask-dots)" />
      
      <defs>
        <mask id="mask-cornerSquare">
            <rect width="35" height="35" fill="black" />
            <g fill="white" shape-rendering="crispEdges"><path d="M 1.5 1 L 2 1 L 2 1.5 A 0.5 0.5 0 0 1 1.5 2 L 1 2 L 1 1.5 A 0.5 0.5 0 0 1 1.5 1 ZM 2.5 1 L 3 1 L 3 1.5 A 0.5 0.5 0 0 1 2.5 2 L 2 2 L 2 1.5 A 0.5 0.5 0 0 1 2.5 1 ZM 3.5 1 L 4 1 L 4 1.5 A 0.5 0.5 0 0 1 3.5 2 L 3 2 L 3 1.5 A 0.5 0.5 0 0 1 3.5 1 ZM 4.5 1 L 5 1 L 5 1.5 A 0.5 0.5 0 0 1 4.5 2 L 4 2 L 4 1.5 A 0.5 0.5 0 0 1 4.5 1 ZM 5.5 1 L 6 1 L 6 1.5 A 0.5 0.5 0 0 1 5.5 2 L 5 2 L 5 1.5 A 0.5 0.5 0 0 1 5.5 1 ZM 6.5 1 L 7 1 L 7 1.5 A 0.5 0.5 0 0 1 6.5 2 L 6 2 L 6 1.5 A 0.5 0.5 0 0 1 6.5 1 ZM 7.5 1 L 8 1 L 8 1.5 A 0.5 0.5 0 0 1 7.5 2 L 7 2 L 7 1.5 A 0.5 0.5 0 0 1 7.5 1 ZM 27.5 1 L 28 1 L 28 1.5 A 0.5 0.5 0 0 1 27.5 2 L 27 2 L 27 1.5 A 0.5 0.5 0 0 1 27.5 1 ZM 28.5 1 L 29 1 L 29 1.5 A 0.5 0.5 0 0 1 28.5 2 L 28 2 L 28 1.5 A 0.5 0.5 0 0 1 28.5 1 ZM 29.5 1 L 30 1 L 30 1.5 A 0.5 0.5 0 0 1 29.5 2 L 29 2 L 29 1.5 A 0.5 0.5 0 0 1 29.5 1 ZM 30.5 1 L 31 1 L 31 1.5 A 0.5 0.5 0 0 1 30.5 2 L 30 2 L 30 1.5 A 0.5 0.5 0 0 1 30.5 1 ZM 31.5 1 L 32 1 L 32 1.5 A 0.5 0.5 0 0 1 31.5 2 L 31 2 L 31 1.5 A 0.5 0.5 0 0 1 31.5 1 ZM 32.5 1 L 33 1 L 33 1.5 A 0.5 0.5 0 0 1 32.5 2 L 32 2 L 32 1.5 A 0.5 0.5 0 0 1 32.5 1 ZM 33.5 1 L 34 1 L 34 1.5 A 0.5 0.5 0 0 1 33.5 2 L 33 2 L 33 1.5 A 0.5 0.5 0 0 1 33.5 1 ZM 1.5 2 L 2 2 L 2 2.5 A 0.5 0.5 0 0 1 1.5 3 L 1 3 L 1 2.5 A 0.5 0.5 0 0 1 1.5 2 ZM 7.5 2 L 8 2 L 8 2.5 A 0.5 0.5 0 0 1 7.5 3 L 7 3 L 7 2.5 A 0.5 0.5 0 0 1 7.5 2 ZM 27.5 2 L 28 2 L 28 2.5 A 0.5 0.5 0 0 1 27.5 3 L 27 3 L 27 2.5 A 0.5 0.5 0 0 1 27.5 2 ZM 33.5 2 L 34 2 L 34 2.5 A 0.5 0.5 0 0 1 33.5 3 L 33 3 L 33 2.5 A 0.5 0.5 0 0 1 33.5 2 ZM 1.5 3 L 2 3 L 2 3.5 A 0.5 0.5 0 0 1 1.5 4 L 1 4 L 1 3.5 A 0.5 0.5 0 0 1 1.5 3 ZM 7.5 3 L 8 3 L 8 3.5 A 0.5 0.5 0 0 1 7.5 4 L 7 4 L 7 3.5 A 0.5 0.5 0 0 1 7.5 3 ZM 27.5 3 L 28 3 L 28 3.5 A 0.5 0.5 0 0 1 27.5 4 L 27 4 L 27 3.5 A 0.5 0.5 0 0 1 27.5 3 ZM 33.5 3 L 34 3 L 34 3.5 A 0.5 0.5 0 0 1 33.5 4 L 33 4 L 33 3.5 A 0.5 0.5 0 0 1 33.5 3 ZM 1.5 4 L 2 4 L 2 4.5 A 0.5 0.5 0 0 1 1.5 5 L 1 5 L 1 4.5 A 0.5 0.5 0 0 1 1.5 4 ZM 7.5 4 L 8 4 L 8 4.5 A 0.5 0.5 0 0 1 7.5 5 L 7 5 L 7 4.5 A 0.5 0.5 0 0 1 7.5 4 ZM 27.5 4 L 28 4 L 28 4.5 A 0.5 0.5 0 0 1 27.5 5 L 27 5 L 27 4.5 A 0.5 0.5 0 0 1 27.5 4 ZM 33.5 4 L 34 4 L 34 4.5 A 0.5 0.5 0 0 1 33.5 5 L 33 5 L 33 4.5 A 0.5 0.5 0 0 1 33.5 4 ZM 1.5 5 L 2 5 L 2 5.5 A 0.5 0.5 0 0 1 1.5 6 L 1 6 L 1 5.5 A 0.5 0.5 0 0 1 1.5 5 ZM 7.5 5 L 8 5 L 8 5.5 A 0.5 0.5 0 0 1 7.5 6 L 7 6 L 7 5.5 A 0.5 0.5 0 0 1 7.5 5 ZM 27.5 5 L 28 5 L 28 5.5 A 0.5 0.5 0 0 1 27.5 6 L 27 6 L 27 5.5 A 0.5 0.5 0 0 1 27.5 5 ZM 33.5 5 L 34 5 L 34 5.5 A 0.5 0.5 0 0 1 33.5 6 L 33 6 L 33 5.5 A 0.5 0.5 0 0 1 33.5 5 ZM 1.5 6 L 2 6 L 2 6.5 A 0.5 0.5 0 0 1 1.5 7 L 1 7 L 1 6.5 A 0.5 0.5 0 0 1 1.5 6 ZM 7.5 6 L 8 6 L 8 6.5 A 0.5 0.5 0 0 1 7.5 7 L 7 7 L 7 6.5 A 0.5 0.5 0 0 1 7.5 6 ZM 27.5 6 L 28 6 L 28 6.5 A 0.5 0.5 0 0 1 27.5 7 L 27 7 L 27 6.5 A 0.5 0.5 0 0 1 27.5 6 ZM 33.5 6 L 34 6 L 34 6.5 A 0.5 0.5 0 0 1 33.5 7 L 33 7 L 33 6.5 A 0.5 0.5 0 0 1 33.5 6 ZM 1.5 7 L 2 7 L 2 7.5 A 0.5 0.5 0 0 1 1.5 8 L 1 8 L 1 7.5 A 0.5 0.5 0 0 1 1.5 7 ZM 2.5 7 L 3 7 L 3 7.5 A 0.5 0.5 0 0 1 2.5 8 L 2 8 L 2 7.5 A 0.5 0.5 0 0 1 2.5 7 ZM 3.5 7 L 4 7 L 4 7.5 A 0.5 0.5 0 0 1 3.5 8 L 3 8 L 3 7.5 A 0.5 0.5 0 0 1 3.5 7 ZM 4.5 7 L 5 7 L 5 7.5 A 0.5 0.5 0 0 1 4.5 8 L 4 8 L 4 7.5 A 0.5 0.5 0 0 1 4.5 7 ZM 5.5 7 L 6 7 L 6 7.5 A 0.5 0.5 0 0 1 5.5 8 L 5 8 L 5 7.5 A 0.5 0.5 0 0 1 5.5 7 ZM 6.5 7 L 7 7 L 7 7.5 A 0.5 0.5 0 0 1 6.5 8 L 6 8 L 6 7.5 A 0.5 0.5 0 0 1 6.5 7 ZM 7.5 7 L 8 7 L 8 7.5 A 0.5 0.5 0 0 1 7.5 8 L 7 8 L 7 7.5 A 0.5 0.5 0 0 1 7.5 7 ZM 27.5 7 L 28 7 L 28 7.5 A 0.5 0.5 0 0 1 27.5 8 L 27 8 L 27 7.5 A 0.5 0.5 0 0 1 27.5 7 ZM 28.5 7 L 29 7 L 29 7.5 A 0.5 0.5 0 0 1 28.5 8 L 28 8 L 28 7.5 A 0.5 0.5 0 0 1 28.5 7 ZM 29.5 7 L 30 7 L 30 7.5 A 0.5 0.5 0 0 1 29.5 8 L 29 8 L 29 7.5 A 0.5 0.5 0 0 1 29.5 7 ZM 30.5 7 L 31 7 L 31 7.5 A 0.5 0.5 0 0 1 30.5 8 L 30 8 L 30 7.5 A 0.5 0.5 0 0 1 30.5 7 ZM 31.5 7 L 32 7 L 32 7.5 A 0.5 0.5 0 0 1 31.5 8 L 31 8 L 31 7.5 A 0.5 0.5 0 0 1 31.5 7 ZM 32.5 7 L 33 7 L 33 7.5 A 0.5 0.5 0 0 1 32.5 8 L 32 8 L 32 7.5 A 0.5 0.5 0 0 1 32.5 7 ZM 33.5 7 L 34 7 L 34 7.5 A 0.5 0.5 0 0 1 33.5 8 L 33 8 L 33 7.5 A 0.5 0.5 0 0 1 33.5 7 ZM 1.5 27 L 2 27 L 2 27.5 A 0.5 0.5 0 0 1 1.5 28 L 1 28 L 1 27.5 A 0.5 0.5 0 0 1 1.5 27 ZM 2.5 27 L 3 27 L 3 27.5 A 0.5 0.5 0 0 1 2.5 28 L 2 28 L 2 27.5 A 0.5 0.5 0 0 1 2.5 27 ZM 3.5 27 L 4 27 L 4 27.5 A 0.5 0.5 0 0 1 3.5 28 L 3 28 L 3 27.5 A 0.5 0.5 0 0 1 3.5 27 ZM 4.5 27 L 5 27 L 5 27.5 A 0.5 0.5 0 0 1 4.5 28 L 4 28 L 4 27.5 A 0.5 0.5 0 0 1 4.5 27 ZM 5.5 27 L 6 27 L 6 27.5 A 0.5 0.5 0 0 1 5.5 28 L 5 28 L 5 27.5 A 0.5 0.5 0 0 1 5.5 27 ZM 6.5 27 L 7 27 L 7 27.5 A 0.5 0.5 0 0 1 6.5 28 L 6 28 L 6 27.5 A 0.5 0.5 0 0 1 6.5 27 ZM 7.5 27 L 8 27 L 8 27.5 A 0.5 0.5 0 0 1 7.5 28 L 7 28 L 7 27.5 A 0.5 0.5 0 0 1 7.5 27 ZM 1.5 28 L 2 28 L 2 28.5 A 0.5 0.5 0 0 1 1.5 29 L 1 29 L 1 28.5 A 0.5 0.5 0 0 1 1.5 28 ZM 7.5 28 L 8 28 L 8 28.5 A 0.5 0.5 0 0 1 7.5 29 L 7 29 L 7 28.5 A 0.5 0.5 0 0 1 7.5 28 ZM 1.5 29 L 2 29 L 2 29.5 A 0.5 0.5 0 0 1 1.5 30 L 1 30 L 1 29.5 A 0.5 0.5 0 0 1 1.5 29 ZM 7.5 29 L 8 29 L 8 29.5 A 0.5 0.5 0 0 1 7.5 30 L 7 30 L 7 29.5 A 0.5 0.5 0 0 1 7.5 29 ZM 1.5 30 L 2 30 L 2 30.5 A 0.5 0.5 0 0 1 1.5 31 L 1 31 L 1 30.5 A 0.5 0.5 0 0 1 1.5 30 ZM 7.5 30 L 8 30 L 8 30.5 A 0.5 0.5 0 0 1 7.5 31 L 7 31 L 7 30.5 A 0.5 0.5 0 0 1 7.5 30 ZM 1.5 31 L 2 31 L 2 31.5 A 0.5 0.5 0 0 1 1.5 32 L 1 32 L 1 31.5 A 0.5 0.5 0 0 1 1.5 31 ZM 7.5 31 L 8 31 L 8 31.5 A 0.5 0.5 0 0 1 7.5 32 L 7 32 L 7 31.5 A 0.5 0.5 0 0 1 7.5 31 ZM 1.5 32 L 2 32 L 2 32.5 A 0.5 0.5 0 0 1 1.5 33 L 1 33 L 1 32.5 A 0.5 0.5 0 0 1 1.5 32 ZM 7.5 32 L 8 32 L 8 32.5 A 0.5 0.5 0 0 1 7.5 33 L 7 33 L 7 32.5 A 0.5 0.5 0 0 1 7.5 32 ZM 1.5 33 L 2 33 L 2 33.5 A 0.5 0.5 0 0 1 1.5 34 L 1 34 L 1 33.5 A 0.5 0.5 0 0 1 1.5 33 ZM 2.5 33 L 3 33 L 3 33.5 A 0.5 0.5 0 0 1 2.5 34 L 2 34 L 2 33.5 A 0.5 0.5 0 0 1 2.5 33 ZM 3.5 33 L 4 33 L 4 33.5 A 0.5 0.5 0 0 1 3.5 34 L 3 34 L 3 33.5 A 0.5 0.5 0 0 1 3.5 33 ZM 4.5 33 L 5 33 L 5 33.5 A 0.5 0.5 0 0 1 4.5 34 L 4 34 L 4 33.5 A 0.5 0.5 0 0 1 4.5 33 ZM 5.5 33 L 6 33 L 6 33.5 A 0.5 0.5 0 0 1 5.5 34 L 5 34 L 5 33.5 A 0.5 0.5 0 0 1 5.5 33 ZM 6.5 33 L 7 33 L 7 33.5 A 0.5 0.5 0 0 1 6.5 34 L 6 34 L 6 33.5 A 0.5 0.5 0 0 1 6.5 33 ZM 7.5 33 L 8 33 L 8 33.5 A 0.5 0.5 0 0 1 7.5 34 L 7 34 L 7 33.5 A 0.5 0.5 0 0 1 7.5 33 Z" /></g>
        </mask>
      </defs><rect x="1" y="1" width="7" height="7" fill="#000000" mask="url(#mask-cornerSquare)" /><rect x="27" y="1" width="7" height="7" fill="#000000" mask="url(#mask-cornerSquare)" /><rect x="1" y="27" width="7" height="7" fill="#000000" mask="url(#mask-cornerSquare)" />
      <defs>
        <mask id="mask-cornerDot">
            <rect width="35" height="35" fill="black" />
            <g fill="white" shape-rendering="crispEdges"><path d="M 3.5 3 L 4 3 L 4 3.5 A 0.5 0.5 0 0 1 3.5 4 L 3 4 L 3 3.5 A 0.5 0.5 0 0 1 3.5 3 ZM 4.5 3 L 5 3 L 5 3.5 A 0.5 0.5 0 0 1 4.5 4 L 4 4 L 4 3.5 A 0.5 0.5 0 0 1 4.5 3 ZM 5.5 3 L 6 3 L 6 3.5 A 0.5 0.5 0 0 1 5.5 4 L 5 4 L 5 3.5 A 0.5 0.5 0 0 1 5.5 3 ZM 29.5 3 L 30 3 L 30 3.5 A 0.5 0.5 0 0 1 29.5 4 L 29 4 L 29 3.5 A 0.5 0.5 0 0 1 29.5 3 ZM 30.5 3 L 31 3 L 31 3.5 A 0.5 0.5 0 0 1 30.5 4 L 30 4 L 30 3.5 A 0.5 0.5 0 0 1 30.5 3 ZM 31.5 3 L 32 3 L 32 3.5 A 0.5 0.5 0 0 1 31.5 4 L 31 4 L 31 3.5 A 0.5 0.5 0 0 1 31.5 3 ZM 3.5 4 L 4 4 L 4 4.5 A 0.5 0.5 0 0 1 3.5 5 L 3 5 L 3 4.5 A 0.5 0.5 0 0 1 3.5 4 ZM 4.5 4 L 5 4 L 5 4.5 A 0.5 0.5 0 0 1 4.5 5 L 4 5 L 4 4.5 A 0.5 0.5 0 0 1 4.5 4 ZM 5.5 4 L 6 4 L 6 4.5 A 0.5 0.5 0 0 1 5.5 5 L 5 5 L 5 4.5 A 0.5 0.5 0 0 1 5.5 4 ZM 29.5 4 L 30 4 L 30 4.5 A 0.5 0.5 0 0 1 29.5 5 L 29 5 L 29 4.5 A 0.5 0.5 0 0 1 29.5 4 ZM 30.5 4 L 31 4 L 31 4.5 A 0.5 0.5 0 0 1 30.5 5 L 30 5 L 30 4.5 A 0.5 0.5 0 0 1 30.5 4 ZM 31.5 4 L 32 4 L 32 4.5 A 0.5 0.5 0 0 1 31.5 5 L 31 5 L 31 4.5 A 0.5 0.5 0 0 1 31.5 4 ZM 3.5 5 L 4 5 L 4 5.5 A 0.5 0.5 0 0 1 3.5 6 L 3 6 L 3 5.5 A 0.5 0.5 0 0 1 3.5 5 ZM 4.5 5 L 5 5 L 5 5.5 A 0.5 0.5 0 0 1 4.5 6 L 4 6 L 4 5.5 A 0.5 0.5 0 0 1 4.5 5 ZM 5.5 5 L 6 5 L 6 5.5 A 0.5 0.5 0 0 1 5.5 6 L 5 6 L 5 5.5 A 0.5 0.5 0 0 1 5.5 5 ZM 29.5 5 L 30 5 L 30 5.5 A 0.5 0.5 0 0 1 29.5 6 L 29 6 L 29 5.5 A 0.5 0.5 0 0 1 29.5 5 ZM 30.5 5 L 31 5 L 31 5.5 A 0.5 0.5 0 0 1 30.5 6 L 30 6 L 30 5.5 A 0.5 0.5 0 0 1 30.5 5 ZM 31.5 5 L 32 5 L 32 5.5 A 0.5 0.5 0 0 1 31.5 6 L 31 6 L 31 5.5 A 0.5 0.5 0 0 1 31.5 5 ZM 3.5 29 L 4 29 L 4 29.5 A 0.5 0.5 0 0 1 3.5 30 L 3 30 L 3 29.5 A 0.5 0.5 0 0 1 3.5 29 ZM 4.5 29 L 5 29 L 5 29.5 A 0.5 0.5 0 0 1 4.5 30 L 4 30 L 4 29.5 A 0.5 0.5 0 0 1 4.5 29 ZM 5.5 29 L 6 29 L 6 29.5 A 0.5 0.5 0 0 1 5.5 30 L 5 30 L 5 29.5 A 0.5 0.5 0 0 1 5.5 29 ZM 3.5 30 L 4 30 L 4 30.5 A 0.5 0.5 0 0 1 3.5 31 L 3 31 L 3 30.5 A 0.5 0.5 0 0 1 3.5 30 ZM 4.5 30 L 5 30 L 5 30.5 A 0.5 0.5 0 0 1 4.5 31 L 4 31 L 4 30.5 A 0.5 0.5 0 0 1 4.5 30 ZM 5.5 30 L 6 30 L 6 30.5 A 0.5 0.5 0 0 1 5.5 31 L 5 31 L 5 30.5 A 0.5 0.5 0 0 1 5.5 30 ZM 3.5 31 L 4 31 L 4 31.5 A 0.5 0.5 0 0 1 3.5 32 L 3 32 L 3 31.5 A 0.5 0.5 0 0 1 3.5 31 ZM 4.5 31 L 5 31 L 5 31.5 A 0.5 0.5 0 0 1 4.5 32 L 4 32 L 4 31.5 A 0.5 0.5 0 0 1 4.5 31 ZM 5.5 31 L 6 31 L 6 31.5 A 0.5 0.5 0 0 1 5.5 32 L 5 32 L 5 31.5 A 0.5 0.5 0 0 1 5.5 31 Z" /></g>
        </mask>
      </defs><rect x="1" y="1" width="7" height="7" fill="#000000" mask="url(#mask-cornerDot)" /><rect x="27" y="1" width="7" height="7" fill="#000000" mask="url(#mask-cornerDot)" /><rect x="1" y="27" width="7" height="7" fill="#000000" mask="url(#mask-cornerDot)" />
      
    </g>
  </svg>